<?xml version="1.0" encoding="UTF-8"?>
<svg version="1.1" xmlns="http://www.w3.org/2000/svg" width="550" height="127">
<path d="M0 0 C181.5 0 363 0 550 0 C550 41.91 550 83.82 550 127 C368.5 127 187 127 0 127 C0 85.09 0 43.18 0 0 Z " fill="#FDFEFE" transform="translate(0,0)"/>
<path d="M0 0 C6.12140741 2.78245791 10.18577306 7.06389847 12.8125 13.3125 C13.63214651 19.57161878 13.09770849 25.82901073 9.8125 31.3125 C6.22221927 35.26482585 2.11937704 38.05618033 -3.2109375 38.6484375 C-14.48503969 38.77983729 -14.48503969 38.77983729 -19.1875 34.3125 C-24.43611844 28.79850197 -26.73455375 24.52163328 -26.56640625 16.91015625 C-25.73774796 11.22914841 -22.3565842 7.13071471 -18.125 3.4375 C-12.27276192 -0.79603393 -7.08499948 -2.22671412 0 0 Z " fill="#F8FAFB" transform="translate(132.1875,43.6875)"/>
<path d="M0 0 C3.36522864 1.30766711 5.45954565 3.45954565 8 6 C8.68571429 12.97142857 8.68571429 12.97142857 6 17 C5.34 17.66 4.68 18.32 4 19 C4.5053125 19.35191406 5.010625 19.70382813 5.53125 20.06640625 C10.82410769 24.08855803 10.82410769 24.08855803 11.6875 28.5625 C10.90295836 32.48520819 9.80742413 34.19257587 7 37 C1.39135248 40.73909835 -5.43401079 40.40151733 -12 40 C-12.66 39.67 -13.32 39.34 -14 39 C-14.21551241 27.6496798 -13.5687311 16.33226969 -13 5 C-11.68 5 -10.36 5 -9 5 C-9 9.95 -9 14.9 -9 20 C-3.80818311 18.9799142 -3.80818311 18.9799142 0.9375 16.8125 C2.70316043 13.80049104 3 11.47529226 3 8 C1.01587836 4.95768015 -0.55296665 3.41305243 -4.09375 2.40234375 C-9.22326587 1.63818642 -13.15362117 2.24705447 -18 4 C-12.90090142 -1.33087578 -7.08019912 -0.64521863 0 0 Z " fill="#4A568F" transform="translate(356,43)"/>
<path d="M0 0 C3.64987695 1.72539638 5.35522788 2.76331057 7.6484375 6.203125 C8.29363711 11.90238825 7.14930413 14.71763963 3.6484375 19.203125 C4.4321875 19.656875 5.2159375 20.110625 6.0234375 20.578125 C8.6484375 22.203125 8.6484375 22.203125 10.6484375 24.203125 C11.24659157 28.64655521 10.9769176 30.67556606 8.5859375 34.515625 C3.00677947 39.61996107 -2.88642034 39.42019 -10.09375 39.37109375 C-12.3515625 39.203125 -12.3515625 39.203125 -13.3515625 38.203125 C-13.44003993 35.68218424 -13.46683551 33.18881607 -13.44921875 30.66796875 C-13.4478038 29.91471817 -13.44638885 29.16146759 -13.44493103 28.38539124 C-13.43931626 25.9704294 -13.42676133 23.55555899 -13.4140625 21.140625 C-13.4090494 19.50716279 -13.40448616 17.87369914 -13.40039062 16.24023438 C-13.38934204 12.22782915 -13.37206756 8.21549259 -13.3515625 4.203125 C-12.0315625 4.203125 -10.7115625 4.203125 -9.3515625 4.203125 C-9.3515625 9.153125 -9.3515625 14.103125 -9.3515625 19.203125 C-3.57853921 18.17260026 -3.57853921 18.17260026 1.2109375 15.015625 C3.13823023 11.24483488 2.83962334 9.22337723 1.6484375 5.203125 C-0.46606037 3.16850816 -1.80311181 2.28729318 -4.71875 1.83984375 C-9.63724147 1.93943937 -13.74324246 2.26277972 -18.3515625 4.203125 C-18.3515625 3.543125 -18.3515625 2.883125 -18.3515625 2.203125 C-12.56113712 -1.45398577 -6.50059259 -2.20285862 0 0 Z " fill="#4F598E" transform="translate(28.3515625,43.796875)"/>
<path d="M0 0 C2.79117687 2.401872 3.82685197 4.65648183 5.04296875 8.10546875 C5.39423828 9.08837891 5.74550781 10.07128906 6.10742188 11.08398438 C6.46384766 12.10814453 6.82027344 13.13230469 7.1875 14.1875 C7.55552734 15.22326172 7.92355469 16.25902344 8.30273438 17.32617188 C9.20947156 19.88152212 10.10821315 22.43940192 11 25 C13.26478815 22.73521185 13.93204889 20.99798701 15.09375 18.02734375 C15.48433594 17.04572266 15.87492187 16.06410156 16.27734375 15.05273438 C17.09377656 12.97252618 17.90887674 10.89179448 18.72265625 8.81054688 C19.11324219 7.83021484 19.50382812 6.84988281 19.90625 5.83984375 C20.26009766 4.93613037 20.61394531 4.03241699 20.97851562 3.10131836 C22 1 22 1 24 0 C27.62357336 11.862648 30.33586284 23.8929767 33 36 C34.32 36.33 35.64 36.66 37 37 C37 37.66 37 38.32 37 39 C33.04 39 29.08 39 25 39 C25 38.34 25 37.68 25 37 C25.99 37 26.98 37 28 37 C27.02640626 33.18605426 26.04519806 29.37410917 25.0625 25.5625 C24.64581055 23.92958008 24.64581055 23.92958008 24.22070312 22.26367188 C23.95322266 21.22919922 23.68574219 20.19472656 23.41015625 19.12890625 C23.16402588 18.17056885 22.91789551 17.21223145 22.66430664 16.22485352 C22.2062048 14.04779036 22.2062048 14.04779036 21 13 C17.7 20.59 14.4 28.18 11 36 C8.18816076 34.59408038 8.11678424 33.06104651 7.08984375 30.125 C6.73986328 29.14015625 6.38988281 28.1553125 6.02929688 27.140625 C5.48885742 25.58601563 5.48885742 25.58601563 4.9375 24 C4.21982885 21.95749519 3.49989825 19.91578239 2.77734375 17.875 C2.46015381 16.96492188 2.14296387 16.05484375 1.81616211 15.1171875 C1.18263011 13.04748362 1.18263011 13.04748362 0 12 C-1.98 20.25 -3.96 28.5 -6 37 C-5.01 37 -4.02 37 -3 37 C-3 37.66 -3 38.32 -3 39 C-6.3 39 -9.6 39 -13 39 C-13 38.34 -13 37.68 -13 37 C-11.68 37 -10.36 37 -9 37 C-8.91878906 35.989375 -8.83757812 34.97875 -8.75390625 33.9375 C-7.90340642 27.13350139 -5.80393653 20.58016963 -3.9375 14 C-3.55611709 12.63946956 -3.17525327 11.27879351 -2.79492188 9.91796875 C-1.86926328 6.6102779 -0.93658374 3.30461624 0 0 Z " fill="#46538E" transform="translate(233,44)"/>
<path d="M0 0 C5.70048426 2.54935285 10.04600684 6.74435743 12.84765625 12.34765625 C13.4380333 20.56752137 13.47958717 26.58318773 8.39453125 33.25390625 C5.26911365 36.67827683 2.87657313 38.16006988 -1.73046875 39 C-7.66356976 39.24228799 -12.83755402 39.25766507 -17.83984375 35.78515625 C-23.45464738 30.50063519 -25.37389927 26.44237952 -25.65234375 18.78515625 C-25.43929577 12.58545992 -24.23526975 9.28220613 -19.69140625 4.95703125 C-13.63612973 -0.39128405 -7.90489137 -2.39585637 0 0 Z M-19.3203125 9.09765625 C-21.64673857 15.3888366 -21.26602392 24.94129329 -18.58984375 31.09765625 C-16.24218021 34.90020988 -13.45959235 36.17958883 -9.15234375 37.34765625 C-3.90709909 37.89978727 -0.6072116 37.18257215 3.84765625 34.34765625 C8.74217452 29.115585 8.24507074 22.67484535 8.1953125 15.84375 C7.59049719 9.76161847 5.05969657 6.31391431 0.59765625 2.34765625 C-7.9919593 -0.77584031 -14.27460386 1.53753093 -19.3203125 9.09765625 Z " fill="#465189" transform="translate(192.15234375,43.65234375)"/>
<path d="M0 0 C6.12140741 2.78245791 10.18577306 7.06389847 12.8125 13.3125 C13.63214651 19.57161878 13.09770849 25.82901073 9.8125 31.3125 C6.22221927 35.26482585 2.11937704 38.05618033 -3.2109375 38.6484375 C-14.48503969 38.77983729 -14.48503969 38.77983729 -19.1875 34.3125 C-24.43611844 28.79850197 -26.73455375 24.52163328 -26.56640625 16.91015625 C-25.73774796 11.22914841 -22.3565842 7.13071471 -18.125 3.4375 C-12.27276192 -0.79603393 -7.08499948 -2.22671412 0 0 Z M-19.1875 8.3125 C-22.01031707 13.94896915 -22.14375757 20.30817142 -20.6875 26.40625 C-18.86776992 31.1210052 -15.73802726 35.03723637 -11.1875 37.3125 C-5.85740056 37.97469158 -1.17182546 37.72313975 3.37109375 34.6875 C7.65336911 30.60251104 8.03208174 25.01931635 8.3125 19.375 C8.15203339 13.33839898 6.55517646 9.04009132 2.8125 4.3125 C-0.64986079 1.13866928 -4.2505887 0.61603041 -8.8359375 0.76171875 C-13.27752763 1.80202474 -16.37862954 4.83003951 -19.1875 8.3125 Z " fill="#4E5789" transform="translate(132.1875,43.6875)"/>
<path d="M0 0 C4.92352594 0.103402 8.87070133 1.50381222 12.875 4.375 C14.99392771 7.55339156 15.39973967 9.57388727 15.34375 13.3671875 C14.48653489 17.03892557 11.90997344 18.35168438 8.875 20.375 C9.6175 21.014375 10.36 21.65375 11.125 22.3125 C14.07507285 25.22914426 15.45196697 28.47756444 16.98046875 32.2890625 C17.90201143 34.61253977 17.90201143 34.61253977 19.875 37.375 C22.43782742 38.10465366 22.43782742 38.10465366 24.875 38.375 C22.875 40.375 22.875 40.375 20.5625 40.875 C17.26068591 40.26070901 16.06357861 38.87326904 14.078125 36.234375 C8.875 28.19318182 8.875 28.19318182 8.875 24.375 C5.905 23.385 2.935 22.395 -0.125 21.375 C-0.125 26.985 -0.125 32.595 -0.125 38.375 C1.195 38.375 2.515 38.375 3.875 38.375 C3.875 39.035 3.875 39.695 3.875 40.375 C-0.085 40.375 -4.045 40.375 -8.125 40.375 C-8.125 39.715 -8.125 39.055 -8.125 38.375 C-6.805 38.375 -5.485 38.375 -4.125 38.375 C-4.125 27.485 -4.125 16.595 -4.125 5.375 C-2.805 5.375 -1.485 5.375 -0.125 5.375 C-0.125 9.995 -0.125 14.615 -0.125 19.375 C4.54073782 18.98900037 4.54073782 18.98900037 8.8125 17.25 C10.48324546 14.30162565 10.11175966 11.68963528 9.875 8.375 C9.15287222 5.19295991 9.15287222 5.19295991 6.375 3.6875 C2.04904258 2.06526597 -1.56561947 2.10143717 -6.125 2.375 C-3.77479502 0.02479502 -3.20590378 0.05585198 0 0 Z " fill="#434F89" transform="translate(461.125,42.625)"/>
<path d="M0 0 C3.96 0 7.92 0 12 0 C12 0.66 12 1.32 12 2 C10.68 2 9.36 2 8 2 C8.0817882 5.81331844 8.19454615 9.6251424 8.3125 13.4375 C8.33505859 14.50677734 8.35761719 15.57605469 8.38085938 16.67773438 C8.59419108 23.0195042 8.93874241 29.30003371 12 35 C15.5086396 37.33909307 16.87089433 37.41291057 21 37 C24.7941009 35.27540868 26.51166787 33.86326035 28 30 C28.36605713 26.90338319 28.36605713 26.90338319 28.4140625 23.484375 C28.45273437 22.23398438 28.49140625 20.98359375 28.53125 19.6953125 C28.5621875 18.39335938 28.593125 17.09140625 28.625 15.75 C28.66367187 14.43257812 28.70234375 13.11515625 28.7421875 11.7578125 C28.83646182 8.50534839 28.9220675 5.25289004 29 2 C28.01 2 27.02 2 26 2 C26 1.34 26 0.68 26 0 C28.97 0 31.94 0 35 0 C35 0.66 35 1.32 35 2 C33.68 2 32.36 2 31 2 C31.02094727 2.77601562 31.04189453 3.55203125 31.06347656 4.3515625 C31.14712759 7.90090748 31.19881629 11.45004435 31.25 15 C31.30027344 16.83111328 31.30027344 16.83111328 31.3515625 18.69921875 C31.43027953 25.98054431 31.01960364 30.8523709 27 37 C23.62227362 40.00242345 20.50422151 40.5386636 15.98828125 40.3515625 C10.48941922 39.37926862 7.0855994 35.34269545 4 31 C2.61691219 28.23382437 2.88789804 25.98982 2.90234375 22.8984375 C2.90717773 21.08085938 2.90717773 21.08085938 2.91210938 19.2265625 C2.92048828 17.95554687 2.92886719 16.68453125 2.9375 15.375 C2.94201172 14.09625 2.94652344 12.8175 2.95117188 11.5 C2.96298797 8.33328708 2.97946185 5.16666644 3 2 C2.01 2 1.02 2 0 2 C0 1.34 0 0.68 0 0 Z " fill="#636D9F" transform="translate(394,43)"/>
<path d="M0 0 C4.62 0 9.24 0 14 0 C14 0.66 14 1.32 14 2 C13.01 2 12.02 2 11 2 C13.31 5.3 15.62 8.6 18 12 C21.48872415 10.83709195 22.09976864 9.86032391 24.1875 6.9375 C24.98220703 5.83728516 24.98220703 5.83728516 25.79296875 4.71484375 C26.19128906 4.14894531 26.58960938 3.58304688 27 3 C26.34 2.67 25.68 2.34 25 2 C25 1.34 25 0.68 25 0 C27.97 0 30.94 0 34 0 C34 0.66 34 1.32 34 2 C33.43667969 2.04125 32.87335937 2.0825 32.29296875 2.125 C28.88142713 3.42684893 27.33486915 6.10804544 25.3125 9 C24.51727083 10.10441426 23.72171428 11.20859289 22.92578125 12.3125 C22.29027344 13.199375 21.65476562 14.08625 21 15 C20.67 15.33 20.34 15.66 20 16 C19.84285346 17.63256758 19.74914586 19.27135338 19.68359375 20.91015625 C19.64169922 21.89951172 19.59980469 22.88886719 19.55664062 23.90820312 C19.51732422 24.94912109 19.47800781 25.99003906 19.4375 27.0625 C19.39431641 28.10728516 19.35113281 29.15207031 19.30664062 30.22851562 C19.20018775 32.81886884 19.0981724 35.40932186 19 38 C20.32 38 21.64 38 23 38 C23 38.66 23 39.32 23 40 C19.04 40 15.08 40 11 40 C11 39.34 11 38.68 11 38 C11.99 38 12.98 38 14 38 C14.66074808 20.10120127 14.66074808 20.10120127 6.32421875 4.9140625 C4.09275933 3.07639003 2.82984473 2.34968333 0 2 C0 1.34 0 0.68 0 0 Z " fill="#3F4D8B" transform="translate(505,43)"/>
<path d="M0 0 C3.96 0 7.92 0 12 0 C12 0.66 12 1.32 12 2 C10.68 2 9.36 2 8 2 C8 13.55 8 25.1 8 37 C20.40344124 37.46428059 20.40344124 37.46428059 25 32 C24.67 34.31 24.34 36.62 24 39 C15.75 39 7.5 39 -1 39 C-1 38.34 -1 37.68 -1 37 C0.32 37 1.64 37 3 37 C3 25.45 3 13.9 3 2 C2.01 2 1.02 2 0 2 C0 1.34 0 0.68 0 0 Z " fill="#505C97" transform="translate(63,43)"/>
<path d="M0 0 C0.515625 0.165 1.03125 0.33 1.5625 0.5 C1.5625 2.15 1.5625 3.8 1.5625 5.5 C0.5415625 4.7265625 0.5415625 4.7265625 -0.5 3.9375 C-4.25855322 2.098208 -6.42519629 2.57408376 -10.4375 3.5 C-10.7675 3.83 -11.0975 4.16 -11.4375 4.5 C-11.25045951 9.57525343 -11.25045951 9.57525343 -8.375 13.5625 C-7.405625 14.201875 -6.43625 14.84125 -5.4375 15.5 C-4.0547324 16.4892314 -2.6801659 17.48999258 -1.3125 18.5 C-0.64992188 18.974375 0.01265625 19.44875 0.6953125 19.9375 C3.71139692 22.46142002 5.40281157 24.45061892 6 28.375 C5.4406547 32.3703236 4.14881956 34.42437674 1.5625 37.5 C-2.34352776 39.82250299 -5.96034036 39.8997464 -10.4375 39.5 C-13.375 38 -13.375 38 -15.4375 36.5 C-15.7675 37.16 -16.0975 37.82 -16.4375 38.5 C-16.4375 35.86 -16.4375 33.22 -16.4375 30.5 C-15.78394531 31.1496875 -15.78394531 31.1496875 -15.1171875 31.8125 C-11.23614715 35.46236963 -11.23614715 35.46236963 -6.25 37.0625 C-3.03393519 36.41928704 -1.55761637 36.02783106 0.5625 33.5 C1.56381485 30.13051671 1.56381485 30.13051671 0.5625 26.5 C-1.81055576 24.0334248 -4.5346548 22.290784 -7.4375 20.5 C-14.43999377 16.09102244 -14.43999377 16.09102244 -15.4375 12.5 C-16.08558675 7.39631687 -16.08558675 7.39631687 -15.4375 4.5 C-10.78099195 -0.95152162 -6.78313989 -1.39141331 0 0 Z " fill="#465089" transform="translate(305.4375,43.5)"/>
<path d="M0 0 C3.46766106 0.08518821 5.09973463 0.33022175 8.25 1.9375 C10.86276956 5.22453268 11.33219296 7.17890405 11.1875 11.375 C9.46372791 14.40343096 7.34702697 16.79523651 4.1875 18.375 C2.2075 18.375 0.2275 18.375 -1.8125 18.375 C-1.8125 13.425 -1.8125 8.475 -1.8125 3.375 C-3.1325 3.375 -4.4525 3.375 -5.8125 3.375 C-5.8125 14.595 -5.8125 25.815 -5.8125 37.375 C-6.1425 37.375 -6.4725 37.375 -6.8125 37.375 C-6.8618651 32.42709823 -6.89820269 27.47933917 -6.92236328 22.53125 C-6.93243317 20.84730534 -6.94608988 19.16337821 -6.96337891 17.47949219 C-6.98758426 15.06180499 -6.99897296 12.64434857 -7.0078125 10.2265625 C-7.01813507 9.4713028 -7.02845764 8.71604309 -7.03909302 7.93789673 C-7.03949318 6.0820602 -6.93472716 4.2268072 -6.8125 2.375 C-4.33231247 -0.10518753 -3.42734049 0.05138442 0 0 Z " fill="#EBEFF8" transform="translate(20.8125,44.625)"/>
<path d="M0 0 C3.53988826 1.99118715 4.69193837 3.09506896 6 6.9375 C6 10.63634344 5.26591215 12.10900864 3 15 C1.1875 16.8125 1.1875 16.8125 -1 18 C-2.98 18 -4.96 18 -7 18 C-7 13.05 -7 8.1 -7 3 C-8.32 3 -9.64 3 -11 3 C-11 10.26 -11 17.52 -11 25 C-11.33 25 -11.66 25 -12 25 C-12 16.75 -12 8.5 -12 0 C-7.81129778 -1.39623407 -4.27596349 -0.96021636 0 0 Z " fill="#EAEEF6" transform="translate(354,45)"/>
<path d="M0 0 C4.16359093 0.27302236 7.7672398 1.2047398 10.8125 4.25 C11.16285717 7.25306148 11.37003147 9.34209075 10.8125 12.25 C8.11161306 15.57416854 6.65707784 17.01905286 2.41015625 17.55078125 C0.18645331 17.56132013 -1.97571388 17.47117861 -4.1875 17.25 C-4.21434679 14.60409986 -4.23426357 11.95846904 -4.25 9.3125 C-4.25837891 8.55775391 -4.26675781 7.80300781 -4.27539062 7.02539062 C-4.28402441 5.10005687 -4.23974333 3.17464419 -4.1875 1.25 C-3.1875 0.25 -3.1875 0.25 0 0 Z " fill="#F3F5FA" transform="translate(351.1875,63.75)"/>
<path d="M0 0 C9.03614458 -0.48192771 9.03614458 -0.48192771 13.125 1.5625 C15 4 15 4 15.5625 7.5 C14.92519445 11.46545673 14.1376325 12.60063397 11 15 C7.57067929 16.71466036 3.78283935 16.05404056 0 16 C0 10.72 0 5.44 0 0 Z " fill="#F4F6FA" transform="translate(19,65)"/>
<path d="M0 0 C9.87238494 0.61175035 9.87238494 0.61175035 13 4 C14.19754817 7.59264452 14.33094958 10.22717474 14 14 C12.4375 16.4375 12.4375 16.4375 10 18 C7.69 18 5.38 18 3 18 C3 13.38 3 8.76 3 4 C1.68 3.67 0.36 3.34 -1 3 C-0.01 3 0.98 3 2 3 C2 2.34 2 1.68 2 1 C1.34 0.67 0.68 0.34 0 0 Z " fill="#F1F4FA" transform="translate(458,44)"/>
<path d="M0 0 C1.32 0 2.64 0 4 0 C4 4.95 4 9.9 4 15 C7.3 14.67 10.6 14.34 14 14 C14 14.66 14 15.32 14 16 C11.03 16.33 8.06 16.66 5 17 C5 22.61 5 28.22 5 34 C3.02 34 1.04 34 -1 34 C-1.21551241 22.6496798 -0.5687311 11.33226969 0 0 Z " fill="#424F85" transform="translate(343,48)"/>
<path d="M0 0 C1.32 0 2.64 0 4 0 C4 4.95 4 9.9 4 15 C5.32 15.33 6.64 15.66 8 16 C6.68 16 5.36 16 4 16 C4 21.61 4 27.22 4 33 C5.32 33 6.64 33 8 33 C8 33.66 8 34.32 8 35 C4.04 35 0.08 35 -4 35 C-4 34.34 -4 33.68 -4 33 C-2.68 33 -1.36 33 0 33 C0 22.11 0 11.22 0 0 Z " fill="#3E4A83" transform="translate(457,48)"/>
<path d="M0 0 C1.32 0 2.64 0 4 0 C4 4.95 4 9.9 4 15 C6.31 15 8.62 15 11 15 C11 15.33 11 15.66 11 16 C9.02 16.33 7.04 16.66 5 17 C4.67 22.28 4.34 27.56 4 33 C4.99 33.33 5.98 33.66 7 34 C4.69 34 2.38 34 0 34 C0 22.78 0 11.56 0 0 Z " fill="#3A4580" transform="translate(15,48)"/>
<path d="M0 0 C3.96 0 7.92 0 12 0 C12 0.66 12 1.32 12 2 C10.68 2 9.36 2 8 2 C8 10.91 8 19.82 8 29 C7.01 29.33 6.02 29.66 5 30 C3.64299353 27.28598706 3.8876139 25.15153684 3.90234375 22.1171875 C3.90556641 20.95058594 3.90878906 19.78398438 3.91210938 18.58203125 C3.92048828 17.35871094 3.92886719 16.13539062 3.9375 14.875 C3.94201172 13.64394531 3.94652344 12.41289063 3.95117188 11.14453125 C3.9629867 8.09630608 3.97945972 5.04817686 4 2 C2.68 2 1.36 2 0 2 C0 1.34 0 0.68 0 0 Z " fill="#475287" transform="translate(394,43)"/>
<path d="M0 0 C5.11745345 2.28861162 8.82372355 5.62737106 11.84765625 10.34765625 C12.72265625 13.28515625 12.72265625 13.28515625 12.84765625 15.34765625 C12.18765625 15.34765625 11.52765625 15.34765625 10.84765625 15.34765625 C10.18765625 14.02765625 9.52765625 12.70765625 8.84765625 11.34765625 C7.85765625 11.84265625 7.85765625 11.84265625 6.84765625 12.34765625 C6.533125 11.79335938 6.21859375 11.2390625 5.89453125 10.66796875 C5.4665625 9.94351563 5.03859375 9.2190625 4.59765625 8.47265625 C4.18 7.75335938 3.76234375 7.0340625 3.33203125 6.29296875 C1.18179418 3.47502648 -0.84577881 2.57333565 -4.30078125 1.9765625 C-8.44004443 1.85311079 -11.27446276 1.950239 -14.58984375 4.59765625 C-18.56585335 8.86459339 -19.39875248 11.79259008 -19.77734375 17.59765625 C-19.85210937 18.6753125 -19.926875 19.75296875 -20.00390625 20.86328125 C-20.05289063 21.683125 -20.101875 22.50296875 -20.15234375 23.34765625 C-20.48234375 23.34765625 -20.81234375 23.34765625 -21.15234375 23.34765625 C-21.21292969 22.6 -21.27351562 21.85234375 -21.3359375 21.08203125 C-21.41972656 20.0971875 -21.50351563 19.11234375 -21.58984375 18.09765625 C-21.67105469 17.123125 -21.75226563 16.14859375 -21.8359375 15.14453125 C-22.10308959 12.78303872 -22.50606343 10.6286456 -23.15234375 8.34765625 C-21.9071641 7.21732327 -20.65597723 6.09360589 -19.40234375 4.97265625 C-18.70625 4.34617187 -18.01015625 3.7196875 -17.29296875 3.07421875 C-11.99145481 -1.20181987 -6.53801001 -1.98157472 0 0 Z " fill="#545C8A" transform="translate(192.15234375,43.65234375)"/>
<path d="M0 0 C0.66 0.33 1.32 0.66 2 1 C-0.38842617 13.06398931 -2.86596098 25.10489735 -6 37 C-5.01 37 -4.02 37 -3 37 C-3 37.66 -3 38.32 -3 39 C-6.3 39 -9.6 39 -13 39 C-13 38.34 -13 37.68 -13 37 C-11.68 37 -10.36 37 -9 37 C-8.91878906 35.989375 -8.83757812 34.97875 -8.75390625 33.9375 C-7.90340642 27.13350139 -5.80393653 20.58016963 -3.9375 14 C-3.55611709 12.63946956 -3.17525327 11.27879351 -2.79492188 9.91796875 C-1.86926328 6.6102779 -0.93658374 3.30461624 0 0 Z " fill="#51588A" transform="translate(233,44)"/>
<path d="M0 0 C0.66 0 1.32 0 2 0 C1.47731534 2.76276177 0.89130413 5.3260876 0 8 C-0.22718496 10.56634861 -0.41608184 13.11678107 -0.5625 15.6875 C-0.62727539 16.7403418 -0.62727539 16.7403418 -0.69335938 17.81445312 C-0.7991736 19.54275206 -0.90006581 21.2713511 -1 23 C-4.875 21.25 -4.875 21.25 -6 19 C-6.86168036 12.37737099 -6.04696145 7.95538416 -2.19140625 2.49609375 C-1 1 -1 1 0 0 Z " fill="#44518C" transform="translate(112,49)"/>
<path d="M0 0 C2.475 0.495 2.475 0.495 5 1 C5.36516955 4.83428028 5.11001082 6.78812732 3.3125 10.25 C-0.0620661 14.26299753 -2.35933063 14.85351166 -7.5 15.3125 C-11.19899355 14.98223272 -13.0310284 14.15925207 -16 12 C-16.33 12.66 -16.66 13.32 -17 14 C-17 11.36 -17 8.72 -17 6 C-16.56429688 6.433125 -16.12859375 6.86625 -15.6796875 7.3125 C-11.79864715 10.96236963 -11.79864715 10.96236963 -6.8125 12.5625 C-2.80812456 11.78587309 -2.80812456 11.78587309 0 9 C0.33288775 5.97179528 0.22893323 3.03336534 0 0 Z " fill="#4B568D" transform="translate(306,68)"/>
<path d="M0 0 C0.33 0 0.66 0 1 0 C1.33 1.65 1.66 3.3 2 5 C2.66 4.67 3.32 4.34 4 4 C4.33 9.61 4.66 15.22 5 21 C6.32 21.33 7.64 21.66 9 22 C9 22.66 9 23.32 9 24 C5.04 24 1.08 24 -3 24 C-3 23.34 -3 22.68 -3 22 C-2.01 22 -1.02 22 0 22 C0 14.74 0 7.48 0 0 Z " fill="#5A669C" transform="translate(519,59)"/>
<path d="M0 0 C2.97 0 5.94 0 9 0 C9 0.66 9 1.32 9 2 C7.68 2 6.36 2 5 2 C5.01571045 2.78648926 5.0314209 3.57297852 5.04760742 4.38330078 C5.11015915 7.96379338 5.14905551 11.54417076 5.1875 15.125 C5.22520508 16.98125 5.22520508 16.98125 5.26367188 18.875 C5.27817383 20.67324219 5.27817383 20.67324219 5.29296875 22.5078125 C5.3086792 23.60754395 5.32438965 24.70727539 5.34057617 25.84033203 C4.95166316 29.44844115 3.78838888 31.86877242 2 35 C1.34 34.67 0.68 34.34 0 34 C0.32145996 33.47438477 0.64291992 32.94876953 0.97412109 32.40722656 C2.28105216 29.34051063 2.323235 26.81471656 2.4140625 23.484375 C2.45273437 22.23398438 2.49140625 20.98359375 2.53125 19.6953125 C2.5621875 18.39335938 2.593125 17.09140625 2.625 15.75 C2.66367187 14.43257812 2.70234375 13.11515625 2.7421875 11.7578125 C2.83646182 8.50534839 2.9220675 5.25289004 3 2 C2.01 2 1.02 2 0 2 C0 1.34 0 0.68 0 0 Z " fill="#5D6185" transform="translate(420,43)"/>
<path d="M0 0 C2.86432408 0.30689187 3.93698121 0.93698121 6 3 C7.7478869 5.62183034 8.78822455 7.85142576 9.9375 10.75 C10.84681466 13.07192203 10.84681466 13.07192203 12 15 C14.6087705 16.2113453 14.6087705 16.2113453 17 16 C15 18 15 18 12.6875 18.5 C9.4302593 17.89400173 8.23371985 16.5986346 6.26953125 13.9921875 C0 4.15384615 0 4.15384615 0 0 Z " fill="#455189" transform="translate(469,65)"/>
<path d="M0 0 C2 2 2 2 2 6 C2.66 6 3.32 6 4 6 C4.3690205 16.55808656 4.3690205 16.55808656 2 21 C1.01 20.34 0.02 19.68 -1 19 C-1.35644531 17.13647461 -1.35644531 17.13647461 -1.328125 14.90234375 C-1.32296875 14.10119141 -1.3178125 13.30003906 -1.3125 12.47460938 C-1.291875 11.63736328 -1.27125 10.80011719 -1.25 9.9375 C-1.24484375 9.09638672 -1.2396875 8.25527344 -1.234375 7.38867188 C-1.15399235 1.15399235 -1.15399235 1.15399235 0 0 Z " fill="#3F4D8C" transform="translate(201,53)"/>
<path d="M0 0 C0.99 0.99 1.98 1.98 3 3 C1.80588686 6.22410548 -0.06708489 8.86196728 -2.76953125 11.00390625 C-8.15565385 13.40926748 -14.29747035 12.8834047 -20 12 C-23.91022998 10.1516298 -27.04110549 7.91778901 -29 4 C-27.68 3.67 -26.36 3.34 -25 3 C-24.443125 4.175625 -24.443125 4.175625 -23.875 5.375 C-21.48878952 8.71569467 -19.97813305 9.15847186 -16 10 C-10.79934324 10.46434435 -7.31490244 10.0400449 -3 7 C-1.63889902 4.69738555 -0.86849437 2.55723341 0 0 Z " fill="#555A86" transform="translate(199,70)"/>
<path d="M0 0 C0.66 0 1.32 0 2 0 C3.59412284 3.18824568 3.10174735 6.62896662 3.0625 10.125 C3.05798828 10.87910156 3.05347656 11.63320312 3.04882812 12.41015625 C3.03703499 14.27347127 3.01909942 16.13674555 3 18 C4.32 18 5.64 18 7 18 C7 18.66 7 19.32 7 20 C3.04 20 -0.92 20 -5 20 C-5 19.34 -5 18.68 -5 18 C-3.35 18 -1.7 18 0 18 C0 12.06 0 6.12 0 0 Z " fill="#48548A" transform="translate(458,63)"/>
<path d="M0 0 C2.91179676 1.16049871 4.77910559 2.77910559 7 5 C6.91036938 6.69141656 6.75422324 8.37959602 6.5625 10.0625 C6.46066406 10.98160156 6.35882813 11.90070312 6.25390625 12.84765625 C6.17011719 13.55792969 6.08632813 14.26820312 6 15 C5.34 15 4.68 15 4 15 C3.90203125 14.38511719 3.8040625 13.77023438 3.703125 13.13671875 C2.84718978 8.2401742 2.84718978 8.2401742 0.4375 4 C-5.93869251 1.38412615 -11.62149873 1.69288252 -18 4 C-12.90401548 -1.32762018 -7.07691814 -0.65272546 0 0 Z " fill="#3F498A" transform="translate(356,43)"/>
<path d="M0 0 C0.99 0 1.98 0 3 0 C3 4.62 3 9.24 3 14 C6.3 13.67 9.6 13.34 13 13 C13 13.66 13 14.32 13 15 C12.37351562 15.02578125 11.74703125 15.0515625 11.1015625 15.078125 C10.28429687 15.13484375 9.46703125 15.1915625 8.625 15.25 C7.81289063 15.29640625 7.00078125 15.3428125 6.1640625 15.390625 C3.81161073 15.7922092 3.81161073 15.7922092 2.7109375 18.046875 C2.47632813 18.69140625 2.24171875 19.3359375 2 20 C1.34 20 0.68 20 0 20 C0 13.4 0 6.8 0 0 Z " fill="#374481" transform="translate(344,49)"/>
<path d="M0 0 C4.48220504 1.5837637 7.3323737 2.99856056 10 7 C9.01 7.99 8.02 8.98 7 10 C6.5875 9.21625 6.175 8.4325 5.75 7.625 C3.87681604 4.81522406 3.04611207 4.21734316 0 3 C-3.9467704 2.3069442 -7.54125485 2.23602216 -11.140625 4.12109375 C-12.82458649 5.32930189 -14.42166608 6.65673709 -16 8 C-16.33 7.01 -16.66 6.02 -17 5 C-11.4798529 0.78844363 -6.99241831 -1.33768003 0 0 Z " fill="#656995" transform="translate(130,43)"/>
<path d="M0 0 C1.98 0 3.96 0 6 0 C5.67 7.59 5.34 15.18 5 23 C4.67 23 4.34 23 4 23 C3.67 17.72 3.34 12.44 3 7 C2.67 12.28 2.34 17.56 2 23 C1.67 23 1.34 23 1 23 C0.67 15.41 0.34 7.82 0 0 Z " fill="#354484" transform="translate(519,57)"/>
<path d="M0 0 C3.96 0 7.92 0 12 0 C12 0.66 12 1.32 12 2 C10.35 2 8.7 2 7 2 C7 12.89 7 23.78 7 35 C6.67 35 6.34 35 6 35 C5.97494385 34.14245117 5.9498877 33.28490234 5.92407227 32.40136719 C5.82876588 29.2106563 5.72954249 26.02009781 5.62768555 22.82958984 C5.5844545 21.45040622 5.54277134 20.07117315 5.50268555 18.69189453 C5.44469597 16.70593062 5.38062277 14.72014731 5.31640625 12.734375 C5.27974854 11.54038086 5.24309082 10.34638672 5.20532227 9.11621094 C5.03791006 6.57536745 4.73682141 4.4228576 4 2 C2.68 2 1.36 2 0 2 C0 1.34 0 0.68 0 0 Z " fill="#424C83" transform="translate(63,43)"/>
<path d="M0 0 C0.66 0 1.32 0 2 0 C2.33 7.92 2.66 15.84 3 24 C2.01 24.33 1.02 24.66 0 25 C-1.0162256 19.39194023 -0.96017114 14.23502748 -0.5625 8.5625 C-0.51029297 7.73556641 -0.45808594 6.90863281 -0.40429688 6.05664062 C-0.27590237 4.03734522 -0.13884576 2.01860371 0 0 Z " fill="#334489" transform="translate(399,48)"/>
<path d="M0 0 C2.97 0 5.94 0 9 0 C9 0.66 9 1.32 9 2 C8.43796875 2.03996094 7.8759375 2.07992187 7.296875 2.12109375 C3.86264759 3.43521138 2.29170388 6.15290571 0.25 9.0625 C-0.16121094 9.63033203 -0.57242188 10.19816406 -0.99609375 10.78320312 C-2.00695036 12.18194657 -3.00477206 13.59009375 -4 15 C-5.65 14.67 -7.3 14.34 -9 14 C-9.33 12.35 -9.66 10.7 -10 9 C-9.01 9.99 -8.02 10.98 -7 12 C-3.51127585 10.83709195 -2.90023136 9.86032391 -0.8125 6.9375 C-0.01779297 5.83728516 -0.01779297 5.83728516 0.79296875 4.71484375 C1.19128906 4.14894531 1.58960938 3.58304688 2 3 C1.34 2.67 0.68 2.34 0 2 C0 1.34 0 0.68 0 0 Z " fill="#5B648C" transform="translate(530,43)"/>
<path d="M0 0 C7.26153846 -0.61538462 7.26153846 -0.61538462 11 2.5 C11.66 3.325 12.32 4.15 13 5 C12.34 6.32 11.68 7.64 11 9 C10.34 8.34 9.68 7.68 9 7 C6.65778095 5.40610726 4.2790872 3.87562565 1.8984375 2.33984375 C1.27195312 1.89769531 0.64546875 1.45554688 0 1 C0 0.67 0 0.34 0 0 Z " fill="#424E8A" transform="translate(297,62)"/>
<path d="M0 0 C0.33 0.66 0.66 1.32 1 2 C1.66 2.33 2.32 2.66 3 3 C-0.465 10.425 -0.465 10.425 -4 18 C-4.66 17.67 -5.32 17.34 -6 17 C-4.33846988 11.14340094 -2.52958084 5.5409866 0 0 Z " fill="#545A89" transform="translate(252,52)"/>
<path d="M0 0 C0.61875 0.33 1.2375 0.66 1.875 1 C0.885 2.485 0.885 2.485 -0.125 4 C-1.115 3.34 -2.105 2.68 -3.125 2 C-8.73715735 1.34315542 -13.88954631 1.79559845 -19.125 4 C-19.125 3.34 -19.125 2.68 -19.125 2 C-13.05787009 -1.83187152 -6.75557558 -2.16178419 0 0 Z " fill="#8788A4" transform="translate(29.125,44)"/>
<path d="M0 0 C0.99 0.66 1.98 1.32 3 2 C2.67 3.98 2.34 5.96 2 8 C2.99 8 3.98 8 5 8 C5 8.66 5 9.32 5 10 C1.7 10 -1.6 10 -5 10 C-5 9.34 -5 8.68 -5 8 C-3.68 8 -2.36 8 -1 8 C-0.67 5.36 -0.34 2.72 0 0 Z " fill="#626B93" transform="translate(225,73)"/>
<path d="M0 0 C2 2 2 2 2 6 C2.66 6 3.32 6 4 6 C4 8.97 4 11.94 4 15 C3.34 14.67 2.68 14.34 2 14 C2 13.01 2 12.02 2 11 C1.34 10.67 0.68 10.34 0 10 C-0.44921875 7.96875 -0.44921875 7.96875 -0.6875 5.5 C-0.77386719 4.6853125 -0.86023438 3.870625 -0.94921875 3.03125 C-0.96597656 2.3609375 -0.98273438 1.690625 -1 1 C-0.67 0.67 -0.34 0.34 0 0 Z " fill="#344486" transform="translate(201,53)"/>
<path d="M0 0 C0.66 0 1.32 0 2 0 C4.10575375 5.52760359 5.37851209 10.06997733 5 16 C4.34 16.33 3.68 16.66 3 17 C2.49766027 14.54212344 1.99803143 12.08374976 1.5 9.625 C1.35691406 8.92632812 1.21382812 8.22765625 1.06640625 7.5078125 C0 2.2265625 0 2.2265625 0 0 Z " fill="#39448C" transform="translate(138,50)"/>
<path d="M0 0 C0.66 1.32 1.32 2.64 2 4 C-3.75263111 7.83508741 -10.31800851 7.11884965 -17 7 C-13.20450307 4.87769197 -9.59450422 4.31914877 -5.33984375 3.66015625 C-2.74295098 2.92747699 -1.70281996 2.04896697 0 0 Z " fill="#6B7399" transform="translate(361,76)"/>
<path d="M0 0 C1.71316406 -0.03867187 1.71316406 -0.03867187 3.4609375 -0.078125 C6.85436235 0.27378573 8.17208921 0.95417216 10.625 3.25 C8.03618037 4.20882209 6.99928755 4.42110288 4.4375 3.25 C-0.72616821 1.41402908 -6.1869958 2.87359072 -11.375 4.25 C-7.65179644 0.35755992 -5.39820735 0.07278482 0 0 Z " fill="#777B98" transform="translate(349.375,42.75)"/>
<path d="M0 0 C2.71303764 0.19038861 4.99263612 0.42764356 7.5625 1.25 C7.5625 2.9 7.5625 4.55 7.5625 6.25 C6.923125 5.755 6.28375 5.26 5.625 4.75 C1.52226517 2.74049723 -1.95193582 2.98614328 -6.4375 3.25 C-4.12725196 0.5816284 -3.74944471 0.27268689 0 0 Z " fill="#5D608C" transform="translate(299.4375,42.75)"/>
<path d="M0 0 C0.66 0 1.32 0 2 0 C2 3.96 2 7.92 2 12 C0.68 11.34 -0.64 10.68 -2 10 C-2 8.68 -2 7.36 -2 6 C-1.34 6 -0.68 6 0 6 C-0.2784375 4.7934375 -0.2784375 4.7934375 -0.5625 3.5625 C-0.706875 2.716875 -0.85125 1.87125 -1 1 C-0.67 0.67 -0.34 0.34 0 0 Z " fill="#374584" transform="translate(109,60)"/>
<path d="M0 0 C1.1725131 0.95117134 2.33787015 1.91117009 3.5 2.875 C4.47453125 3.67550781 4.47453125 3.67550781 5.46875 4.4921875 C5.9740625 4.98976563 6.479375 5.48734375 7 6 C7 6.66 7 7.32 7 8 C8.98 8 10.96 8 13 8 C13 8.33 13 8.66 13 9 C7.97745369 9.2954439 5.10457614 8.98514628 1 6 C0.67 6.66 0.34 7.32 0 8 C0 5.36 0 2.72 0 0 Z " fill="#646C90" transform="translate(289,74)"/>
<path d="M0 0 C0.4125 0.78375 0.825 1.5675 1.25 2.375 C3.44888887 5.6733333 5.23110958 6.07871568 9 7 C7.02 7.99 7.02 7.99 5 9 C3.68388323 8.04663979 2.37221039 7.08714226 1.0625 6.125 C0.33160156 5.59132813 -0.39929688 5.05765625 -1.15234375 4.5078125 C-3 3 -3 3 -4 1 C-2 0 -2 0 0 0 Z " fill="#5D628D" transform="translate(174,73)"/>
<path d="M0 0 C0.99 0.33 1.98 0.66 3 1 C-1.90924297 4.92739438 -4.73920552 5.43177893 -11 5 C-11 4.34 -11 3.68 -11 3 C-10.37351562 2.86722656 -9.74703125 2.73445313 -9.1015625 2.59765625 C-8.28429687 2.42105469 -7.46703125 2.24445313 -6.625 2.0625 C-5.81289063 1.88847656 -5.00078125 1.71445313 -4.1640625 1.53515625 C-1.970537 1.07669307 -1.970537 1.07669307 0 0 Z " fill="#6C7295" transform="translate(419,78)"/>
<path d="M0 0 C0.66 0 1.32 0 2 0 C1.44894091 3.9492568 0.61064629 7.34920174 -1 11 C-1.66 10.67 -2.32 10.34 -3 10 C-3.625 7.4375 -3.625 7.4375 -4 5 C-3.01 5 -2.02 5 -1 5 C-0.67 3.35 -0.34 1.7 0 0 Z " fill="#4E588C" transform="translate(245,69)"/>
<path d="M0 0 C4.4571874 0.26218749 6.51522698 0.57711289 9.9375 3.5625 C10.618125 4.366875 11.29875 5.17125 12 6 C11.01 6.99 10.02 7.98 9 9 C8.443125 7.8553125 8.443125 7.8553125 7.875 6.6875 C5.6369085 3.47956885 3.55788567 2.5022184 0 1 C0 0.67 0 0.34 0 0 Z " fill="#535A88" transform="translate(128,44)"/>
<path d="M0 0 C0.93423645 3.01031744 1.04449911 3.86650268 0 7 C-5.61 6.67 -11.22 6.34 -17 6 C-17 5.67 -17 5.34 -17 5 C-16.02417969 4.97421875 -15.04835938 4.9484375 -14.04296875 4.921875 C-12.77066406 4.86515625 -11.49835938 4.8084375 -10.1875 4.75 C-8.92292969 4.70359375 -7.65835938 4.6571875 -6.35546875 4.609375 C-2.92847161 4.32743779 -2.92847161 4.32743779 -1.05078125 1.953125 C-0.70402344 1.30859375 -0.35726562 0.6640625 0 0 Z " fill="#555C8D" transform="translate(87,75)"/>
<path d="M0 0 C1.32 0 2.64 0 4 0 C4.66 0.99 5.32 1.98 6 3 C8.56282742 3.72965366 8.56282742 3.72965366 11 4 C9 6 9 6 6.625 6.375 C3.21509703 5.887871 2.10881598 4.65554604 0 2 C0 1.34 0 0.68 0 0 Z " fill="#515989" transform="translate(475,77)"/>
<path d="M0 0 C0.66 0.66 1.32 1.32 2 2 C1.9765625 5.0390625 1.9765625 5.0390625 1.625 8.625 C1.51414063 9.81351563 1.40328125 11.00203125 1.2890625 12.2265625 C1.19367188 13.14179687 1.09828125 14.05703125 1 15 C-1 13 -1 13 -1.23046875 10.9765625 C-1.21628906 10.20054688 -1.20210937 9.42453125 -1.1875 8.625 C-1.18105469 7.85414062 -1.17460937 7.08328125 -1.16796875 6.2890625 C-1.00595151 4.08110656 -0.60634894 2.12464668 0 0 Z " fill="#35418E" transform="translate(169,54)"/>
<path d="M0 0 C1.32 0 2.64 0 4 0 C4 2.97 4 5.94 4 9 C3.01 8.67 2.02 8.34 1 8 C0.67 5.36 0.34 2.72 0 0 Z " fill="#404D87" transform="translate(15,48)"/>
<path d="M0 0 C1.60670684 3.21341369 0.82510855 6.62958968 0.5625 10.125 C0.51029297 10.87910156 0.45808594 11.63320313 0.40429688 12.41015625 C0.27454996 14.2737937 0.13792512 16.13694996 0 18 C-0.33 18 -0.66 18 -1 18 C-1.06058594 17.25234375 -1.12117187 16.5046875 -1.18359375 15.734375 C-1.26738281 14.74953125 -1.35117188 13.7646875 -1.4375 12.75 C-1.51871094 11.77546875 -1.59992188 10.8009375 -1.68359375 9.796875 C-1.91819352 7.06527284 -1.91819352 7.06527284 -2.625 4.75 C-2.74875 4.1725 -2.8725 3.595 -3 3 C-1.5625 1.25 -1.5625 1.25 0 0 Z " fill="#616AA1" transform="translate(172,49)"/>
<path d="M0 0 C2.76223278 2.76223278 2.57856291 5.20706617 3 9 C2.34 9 1.68 9 1 9 C0.67 8.34 0.34 7.68 0 7 C-0.99 7.33 -1.98 7.66 -3 8 C-1.125 1.125 -1.125 1.125 0 0 Z " fill="#555E8E" transform="translate(256,44)"/>
<path d="M0 0 C4.62 0 9.24 0 14 0 C14 0.66 14 1.32 14 2 C12.68 2.33 11.36 2.66 10 3 C10 2.34 10 1.68 10 1 C9.0925 1.350625 8.185 1.70125 7.25 2.0625 C4.12241564 2.96468779 2.94791919 3.13381507 0 2 C0 1.34 0 0.68 0 0 Z " fill="#555B80" transform="translate(505,43)"/>
<path d="M0 0 C2.97 0 5.94 0 9 0 C9 0.66 9 1.32 9 2 C8.360625 2.12375 7.72125 2.2475 7.0625 2.375 C6.381875 2.58125 5.70125 2.7875 5 3 C4.67 3.66 4.34 4.32 4 5 C3.34 5 2.68 5 2 5 C2 4.34 2 3.68 2 3 C1.34 2.67 0.68 2.34 0 2 C0 1.34 0 0.68 0 0 Z " fill="#4C5478" transform="translate(530,43)"/>
<path d="M0 0 C0.99 0.33 1.98 0.66 3 1 C3.125 3.875 3.125 3.875 3 7 C2.34 7.66 1.68 8.32 1 9 C0.01 8.67 -0.98 8.34 -2 8 C-1.67 7.01 -1.34 6.02 -1 5 C-0.34 5 0.32 5 1 5 C1.33 4.34 1.66 3.68 2 3 C1.34 3 0.68 3 0 3 C0 2.01 0 1.02 0 0 Z " fill="#364586" transform="translate(363,70)"/>
<path d="M0 0 C0.93423645 3.01031744 1.04449911 3.86650268 0 7 C0.66 7.33 1.32 7.66 2 8 C-0.31 8 -2.62 8 -5 8 C-4.01 7.67 -3.02 7.34 -2 7 C-2 5.02 -2 3.04 -2 1 C-1.34 0.67 -0.68 0.34 0 0 Z " fill="#384684" transform="translate(263,74)"/>
<path d="M0 0 C0.33 0 0.66 0 1 0 C1 4.62 1 9.24 1 14 C0.67 14 0.34 14 0 14 C-0.33 12.02 -0.66 10.04 -1 8 C-1.33 8 -1.66 8 -2 8 C-2.20086443 4.28400809 -2.1519437 3.22791555 0 0 Z " fill="#49568D" transform="translate(346,67)"/>
<path d="M0 0 C1.9451 2.91765 2.45276317 4.62537285 3 8 C1.125 7.75 1.125 7.75 -1 7 C-2.25 4.9375 -2.25 4.9375 -3 3 C-2.34 3 -1.68 3 -1 3 C-0.67 2.01 -0.34 1.02 0 0 Z " fill="#4B548E" transform="translate(111,68)"/>
<path d="M0 0 C4.75 0.875 4.75 0.875 7 2 C7.33 1.34 7.66 0.68 8 0 C8.99 0.99 9.98 1.98 11 3 C8.4086487 4.29567565 6.87704151 4.34250494 4 4 C1.6875 2 1.6875 2 0 0 Z " fill="#515B91" transform="translate(292,59)"/>
<path d="M0 0 C4.44355888 0.02987266 7.96999406 0.17957355 12.01171875 2.265625 C11.02171875 2.925625 10.03171875 3.585625 9.01171875 4.265625 C8.4496875 3.93820313 7.88765625 3.61078125 7.30859375 3.2734375 C4.74311911 2.14777006 3.04329598 2.0588139 0.26171875 2.140625 C-0.93710937 2.16769531 -0.93710937 2.16769531 -2.16015625 2.1953125 C-3.06507813 2.23011719 -3.06507813 2.23011719 -3.98828125 2.265625 C-1.98828125 0.265625 -1.98828125 0.265625 0 0 Z " fill="#727591" transform="translate(458.98828125,42.734375)"/>
<path d="M0 0 C0.66 0 1.32 0 2 0 C1.88637738 1.4800841 1.75877092 2.95910074 1.625 4.4375 C1.52058594 5.67306641 1.52058594 5.67306641 1.4140625 6.93359375 C1.27742187 7.61550781 1.14078125 8.29742187 1 9 C0.01 9.495 0.01 9.495 -1 10 C-0.67 6.7 -0.34 3.4 0 0 Z " fill="#535687" transform="translate(227,66)"/>
<path d="M0 0 C0.99 0.33 1.98 0.66 3 1 C2.34 4.3 1.68 7.6 1 11 C-1.78637633 6.8204355 -0.79562512 4.85331323 0 0 Z " fill="#666C9D" transform="translate(229,58)"/>
<path d="M0 0 C0.33 0.66 0.66 1.32 1 2 C1.66 2.33 2.32 2.66 3 3 C0.375 7.875 0.375 7.875 -3 9 C-2.01 6.03 -1.02 3.06 0 0 Z " fill="#5F6698" transform="translate(252,52)"/>
<path d="M0 0 C0.66 0.99 1.32 1.98 2 3 C-1.90028225 5.60018816 -5.47434569 5.15085514 -10 5 C-10 4.67 -10 4.34 -10 4 C-7.98177083 3.54427083 -5.96354167 3.08854167 -3.9453125 2.6328125 C-1.79280036 2.09525572 -1.79280036 2.09525572 0 0 Z " fill="#5A6087" transform="translate(306,77)"/>
<path d="M0 0 C0.33 0.99 0.66 1.98 1 3 C1.66 3 2.32 3 3 3 C2.67 3.99 2.34 4.98 2 6 C1.01 6 0.02 6 -1 6 C-1 5.34 -1 4.68 -1 4 C-1.66 4 -2.32 4 -3 4 C-2.67 3.01 -2.34 2.02 -2 1 C-1.34 0.67 -0.68 0.34 0 0 Z " fill="#374385" transform="translate(256,50)"/>
<path d="M0 0 C0.33 1.32 0.66 2.64 1 4 C0.01 3.67 -0.98 3.34 -2 3 C-2 3.66 -2 4.32 -2 5 C-2.66 5 -3.32 5 -4 5 C-4.33 3.68 -4.66 2.36 -5 1 C-3 0 -3 0 0 0 Z " fill="#3A4980" transform="translate(515,44)"/>
<path d="M0 0 C0.99 0.33 1.98 0.66 3 1 C2.42655063 3.86724686 2.1385485 4.8614515 0 7 C-0.38133299 5.0085944 -0.71325582 3.00720923 -1 1 C-0.67 0.67 -0.34 0.34 0 0 Z " fill="#3B4887" transform="translate(35,66)"/>
<path d="M0 0 C0.33 0.99 0.66 1.98 1 3 C1.99 3.33 2.98 3.66 4 4 C3.34 5.32 2.68 6.64 2 8 C1.34 8 0.68 8 0 8 C0 5.36 0 2.72 0 0 Z " fill="#475796" transform="translate(200,60)"/>
<path d="M0 0 C2.31 0 4.62 0 7 0 C7 0.66 7 1.32 7 2 C7.66 2.33 8.32 2.66 9 3 C8.34 3.66 7.68 4.32 7 5 C6.01 4.34 5.02 3.68 4 3 C4 2.34 4 1.68 4 1 C2.68 0.67 1.36 0.34 0 0 Z " fill="#5E6696" transform="translate(461,62)"/>
<path d="M0 0 C0.33 1.32 0.66 2.64 1 4 C1.66 4 2.32 4 3 4 C2.34 5.32 1.68 6.64 1 8 C0.34 8 -0.32 8 -1 8 C-0.67 5.36 -0.34 2.72 0 0 Z " fill="#555A93" transform="translate(139,69)"/>
<path d="M0 0 C-0.99 1.32 -1.98 2.64 -3 4 C-4.32 2.68 -5.64 1.36 -7 0 C-3.86650268 -1.04449911 -3.01031744 -0.93423645 0 0 Z " fill="#565F94" transform="translate(36,65)"/>
</svg>
