<?xml version="1.0" encoding="UTF-8"?>
<svg version="1.1" xmlns="http://www.w3.org/2000/svg" width="2249" height="997">
<path d="M0 0 C742.17 0 1484.34 0 2249 0 C2249 329.01 2249 658.02 2249 997 C1506.83 997 764.66 997 0 997 C0 667.99 0 338.98 0 0 Z " fill="#FEFEFE" transform="translate(0,0)"/>
<path d="M0 0 C0.33 0 0.66 0 1 0 C1.03867188 1.16402344 1.03867188 1.16402344 1.078125 2.3515625 C1.7362636 14.88611124 3.88632435 28.12097685 13.25 37.17578125 C18.38482348 40.58197808 24.08046357 39.69050796 30 39 C47.84509099 34.71356854 62.34006516 17.91310297 73 4 C75.15858854 7.23788281 76.17095644 10.39503599 77.3125 14.0625 C80.6796222 24.38090026 83.922087 32.44706943 93 39 C98.30161867 41.65080934 104.75268833 40.00819346 110.1875 38.5 C123.55209072 34.03476422 133.68099757 26.26272659 144 17 C144.85851563 16.26265625 145.71703125 15.5253125 146.6015625 14.765625 C151.18825338 10.80787836 155.17908322 6.70266681 159 2 C161.44239579 4.44239579 161.78829465 6.25980135 162.75 9.5625 C165.84509704 19.09905362 170.9396399 27.03418071 179.8359375 32.03125 C188.68273189 35.9310614 197.54141726 34.36755491 206.3359375 31.140625 C209.548535 29.76514337 212.24535077 28.14997013 215 26 C216.2065625 25.195625 216.2065625 25.195625 217.4375 24.375 C220.74982494 21.3050403 223.05406734 17.79692479 225.546875 14.046875 C226.02640625 13.37140625 226.5059375 12.6959375 227 12 C227.33 12 227.66 12 228 12 C228 70.08 228 128.16 228 188 C149.68512594 188.63930509 149.68512594 188.63930509 125.515625 188.77734375 C124.16626216 188.7851153 124.16626216 188.7851153 122.78963947 188.79304385 C65.37006106 189.12062887 7.94927805 189.08180319 -49.47102904 189.06315851 C-51.5062553 189.06249797 -53.54148157 189.06185524 -55.57670784 189.06121445 C-64.97464137 189.05822221 -74.37257462 189.05470052 -83.77050781 189.05078125 C-85.54238661 189.05004482 -85.54238661 189.05004482 -87.35006094 189.04929352 C-111.56671261 189.03882825 -135.78335159 189.0183955 -160 189 C-160 133.56 -160 78.12 -160 21 C-156.7 22.65 -153.4 24.3 -150 26 C-132.8881827 28.80251343 -119.5354193 20.33648746 -106 11 C-101.56688351 7.79290193 -97.26200658 4.43003955 -93 1 C-92.01708058 4.448369 -91.97291078 7.55701135 -92.06567383 11.14306641 C-92.35563514 22.66276408 -91.62029171 33.72603795 -84 43 C-78.0888378 48.36128664 -73.57618554 48.35305981 -65.80859375 48.19921875 C-49.9847516 47.37151008 -36.27019973 35.21339907 -25 25 C-24.47245117 24.52739746 -23.94490234 24.05479492 -23.40136719 23.56787109 C-12.18730039 13.56840042 -12.18730039 13.56840042 -2.0625 2.5 C-1.381875 1.675 -0.70125 0.85 0 0 Z " fill="#0072AD" transform="translate(1069,292)"/>
<path d="M0 0 C15.68208015 4.05571038 30.04640708 15.50539199 38.47241211 29.27246094 C51.59855901 52.13796559 53.00645332 78.04474565 46.43017578 103.17773438 C41.54504894 120.79061809 32.3691812 135.98825214 22.70166016 151.34570312 C19.33731961 156.726237 16.17064492 162.1455818 13.3125 167.8125 C12.99780762 168.42762451 12.68311523 169.04274902 12.35888672 169.67651367 C10.22453252 174.04158524 9.05266592 178.2863383 8 183 C8.78310547 181.72769531 8.78310547 181.72769531 9.58203125 180.4296875 C21.23230137 161.75645279 35.29645284 145.42476864 52.1171875 131.2109375 C67.36860018 118.21459751 78.73923327 100.66251355 80.86303711 80.35473633 C81.17983002 74.90827002 81.09992999 69.45326114 81.0625 64 C81.05573242 62.12248047 81.05573242 62.12248047 81.04882812 60.20703125 C81.03711415 57.13797059 81.02071073 54.06901093 81 51 C95.23217743 56.48974313 104.70822945 69.544807 110.91894531 82.98925781 C118.83825778 100.92587861 121.46482976 119.69813564 124 139 C124.4125 138.17757812 124.825 137.35515625 125.25 136.5078125 C129.14857897 128.97172012 133.34070945 122.38513142 139 116 C139.52980469 115.38769531 140.05960938 114.77539062 140.60546875 114.14453125 C147.66543565 106.5267398 156.97106589 101.18396798 165.8125 95.875 C177.0875157 88.96888328 185.07390474 80.97898482 189 68 C189.33 68 189.66 68 190 68 C190 126.74 190 185.48 190 246 C61.96 246 -66.08 246 -198 246 C-198 131.43261173 -198 131.43261173 -183.9375 116.375 C-175.28547089 108.21571627 -165.25297299 102.99575281 -154.5625 98.0625 C-137.96624287 90.38474366 -121.0390894 80.84327313 -114 63 C-112.90493508 59.71480525 -112.90039392 57.26336585 -112.9375 53.8125 C-112.94652344 52.72582031 -112.95554687 51.63914063 -112.96484375 50.51953125 C-112.97644531 49.68808594 -112.98804688 48.85664062 -113 48 C-106.38168017 50.43076855 -102.31630968 54.80955526 -99 61 C-92.14306315 82.39129871 -99.36975272 100.64762027 -107.23046875 120.65454102 C-110.75073748 129.70874781 -113.19480713 138.18659081 -113 148 C-112.5153125 146.90042969 -112.030625 145.80085937 -111.53125 144.66796875 C-96.87558994 112.07233256 -71.07323332 93.65096058 -39.36206055 79.59643555 C-22.39962257 72.07043376 -5.14091921 63.76719912 3 46 C3.33644531 45.28070313 3.67289063 44.56140625 4.01953125 43.8203125 C8.62715386 31.65955511 7.10133956 16.65488527 2 5 C1.33094738 3.3342897 0.66357338 1.66790065 0 0 Z " fill="#D0202A" transform="translate(1107,28)"/>
<path d="M0 0 C2.475 0.495 2.475 0.495 5 1 C5 7.6 5 14.2 5 21 C7.3925 19.783125 9.785 18.56625 12.25 17.3125 C31.21079297 7.81378111 48.93722257 2.04035409 70 9 C84.07718824 14.99307351 93.2895653 25.04982035 99.3125 39 C106.16142745 57.87129367 104.60968363 79.21640484 96.26391602 97.29785156 C87.79716692 114.64316851 74.11654674 128.08590309 55.75390625 134.578125 C47.38939056 137.32827205 39.53338535 139.14406795 30.66796875 139.0625 C29.99075272 139.05871338 29.31353668 139.05492676 28.61579895 139.05102539 C26.47296501 139.03889845 24.3302716 139.02024894 22.1875 139 C19.34766036 138.97349188 16.50788477 138.95349222 13.66796875 138.9375 C12.41266357 138.92589844 11.1573584 138.91429687 9.86401367 138.90234375 C7.10215804 138.67030883 7.10215804 138.67030883 6 140 C5.89571675 141.81967907 5.86145648 143.64341206 5.85473633 145.46606445 C5.84835648 146.63430252 5.84197662 147.80254059 5.83540344 149.00617981 C5.83429062 150.27902328 5.8331778 151.55186676 5.83203125 152.86328125 C5.82870285 154.16194626 5.82537445 155.46061127 5.82194519 156.79862976 C5.81594659 159.55350576 5.81410594 162.30835035 5.81469727 165.06323242 C5.81479871 168.59068906 5.80116883 172.11794357 5.78392506 175.64535236 C5.77011604 179.00966509 5.77071571 182.37394054 5.76953125 185.73828125 C5.76234573 187.00505203 5.75516022 188.27182281 5.74775696 189.57698059 C5.7523719 191.34352242 5.7523719 191.34352242 5.75708008 193.14575195 C5.75565506 194.18198196 5.75423004 195.21821198 5.75276184 196.2858429 C6.0046907 199.05149408 6.52109549 200.67166401 8 203 C11.61921137 205.63621569 16.36731012 205.8815026 20.6875 206.5625 C28.87426614 207.87426614 28.87426614 207.87426614 30 209 C29.67 211.31 29.34 213.62 29 216 C6.89 216 -15.22 216 -38 216 C-38.33 213.69 -38.66 211.38 -39 209 C-35.84058008 206.89372006 -34.24389853 206.61452111 -30.5625 206.125 C-27.08117149 205.53634736 -25.2791914 205.19942243 -22.375 203.125 C-19.73519811 199.04530617 -19.86682267 195.12080073 -19.83937073 190.3400116 C-19.831739 189.33773961 -19.831739 189.33773961 -19.82395309 188.3152197 C-19.80826447 186.0775801 -19.79971315 183.83997272 -19.79125977 181.60229492 C-19.78171859 179.99731747 -19.77182731 178.39234207 -19.76161194 176.78736877 C-19.73026397 171.51842683 -19.70996759 166.24946925 -19.69140625 160.98046875 C-19.68810893 160.08364325 -19.68481161 159.18681775 -19.68141437 158.26281571 C-19.65064085 149.80366675 -19.62393729 141.34451417 -19.60699558 132.88532543 C-19.58507991 122.0702036 -19.54307881 111.25557759 -19.47355801 100.44065398 C-19.42631499 92.83288634 -19.40206185 85.2252525 -19.3947987 77.61734277 C-19.38984391 73.07464905 -19.37477926 68.53251464 -19.3350544 63.9899807 C-19.29816779 59.71587649 -19.2897846 55.44265061 -19.30306053 51.16841698 C-19.30300662 49.60229985 -19.29272504 48.03614357 -19.2713089 46.47017288 C-18.88194032 36.93921592 -18.88194032 36.93921592 -22.86387634 28.61103821 C-24.81256416 26.7682706 -26.48170387 25.73820442 -28.875 24.4375 C-29.57625 23.963125 -30.2775 23.48875 -31 23 C-31.1328125 19.91015625 -31.1328125 19.91015625 -31 17 C-29.38544922 16.27296875 -29.38544922 16.27296875 -27.73828125 15.53125 C-12.91968765 9.27539526 -12.91968765 9.27539526 0 0 Z " fill="#040404" transform="translate(741,666)"/>
<path d="M0 0 C26.07 0 52.14 0 79 0 C79 2.64 79 5.28 79 8 C78.14277344 8.10957031 77.28554688 8.21914063 76.40234375 8.33203125 C65.99062441 9.38722519 65.99062441 9.38722519 57.39335632 14.73550415 C52.44725074 22.77396164 53.69249629 35.17303543 53.69921875 44.2890625 C53.69279106 46.24844254 53.69279106 46.24844254 53.68623352 48.24740601 C53.67885341 50.98187382 53.67900681 53.71621223 53.68432617 56.45068359 C53.69018244 59.95334993 53.67300456 63.45549797 53.6499815 66.95807838 C53.63175306 70.31842913 53.63542686 73.67866253 53.63671875 77.0390625 C53.627509 78.29522369 53.61829926 79.55138489 53.60881042 80.84561157 C53.61815361 82.58419937 53.61815361 82.58419937 53.62768555 84.35791016 C53.62705612 85.37793121 53.6264267 86.39795227 53.6257782 87.44888306 C54.06993761 90.47677347 54.61446234 91.15815097 57 93 C59.17713625 93.44453709 59.17713625 93.44453709 61.63049316 93.36749268 C63.05637505 93.37584641 63.05637505 93.37584641 64.51106262 93.3843689 C65.55219711 93.37515411 66.5933316 93.36593933 67.66601562 93.35644531 C69.31267464 93.35951187 69.31267464 93.35951187 70.99259949 93.36264038 C74.630651 93.36565478 78.26825216 93.34715078 81.90625 93.328125 C84.4282622 93.32506839 86.95027609 93.32319152 89.47229004 93.32244873 C94.76170753 93.31784147 100.05097021 93.303789 105.34033203 93.28125 C112.1298816 93.25237738 118.91932667 93.2420266 125.70893097 93.2375679 C130.91783687 93.23401515 136.12672401 93.2236007 141.33561707 93.21169281 C143.8395315 93.20598437 146.34344828 93.20122757 148.84736633 93.19742584 C152.34294777 93.19057108 155.83843342 93.17694217 159.33398438 93.16113281 C160.37511887 93.16001495 161.41625336 93.15889709 162.48893738 93.15774536 C163.4395253 93.15203522 164.39011322 93.14632507 165.36950684 93.14044189 C166.60946537 93.1359799 166.60946537 93.1359799 167.87447357 93.13142776 C170.18932454 93.07971228 170.18932454 93.07971228 173 92 C174.36511967 89.26976067 174.13472403 87.09711486 174.14526367 84.04077148 C174.15164352 82.78864365 174.15802338 81.53651581 174.16459656 80.2464447 C174.16612616 78.87132811 174.16723963 77.496211 174.16796875 76.12109375 C174.17118291 74.71061672 174.1745471 73.30014003 174.17805481 71.8896637 C174.18405105 68.92635324 174.18589445 65.96307196 174.18530273 62.99975586 C174.18520165 59.22284203 174.19879583 55.44611848 174.21607494 51.66924953 C174.22726254 48.75138003 174.2292198 45.83355533 174.22869301 42.91566658 C174.2298652 41.52476413 174.23424372 40.13386022 174.24202538 38.74297905 C174.53473689 25.89127086 174.53473689 25.89127086 170.1875 14.0625 C166.00212609 10.11629032 161.32054015 9.63090406 155.75 8.9375 C149.10320285 8.10320285 149.10320285 8.10320285 148 7 C148.33 4.69 148.66 2.38 149 0 C174.74 0 200.48 0 227 0 C227 2.31 227 4.62 227 7 C222.77920232 8.31313705 218.7553048 9.19012922 214.375 9.8125 C209.48204009 10.67833241 206.95660808 11.80352401 204 16 C202.21847105 20.42065978 201.74748205 24.137527 201.73930359 28.88703918 C201.73547804 29.55551823 201.73165249 30.22399727 201.72771102 30.91273326 C201.71744071 33.13957605 201.72136172 35.36615813 201.7253418 37.59301758 C201.72099195 39.19504534 201.71580788 40.79707102 201.70985413 42.39909363 C201.69648059 46.74220283 201.69588375 51.08522491 201.69841743 55.42835069 C201.6994885 59.05887509 201.69460015 62.68938196 201.689812 66.3199026 C201.67872198 74.88881889 201.67827623 83.45769134 201.68432617 92.02661133 C201.69036296 100.85391827 201.6780613 109.6810657 201.6567561 118.50834543 C201.63911554 126.09751423 201.63314271 133.68663237 201.63639385 141.27582091 C201.63820332 145.8038213 201.63560431 150.33170796 201.62167931 154.85968971 C201.609066 159.12052839 201.61107805 163.38111936 201.62409019 167.64195442 C201.62644812 169.20074804 201.62374955 170.75955928 201.61546707 172.31833267 C201.57580482 180.36678318 201.67494382 187.53509337 205 195 C210.3151107 199.70766947 218.37905088 200.17937134 225.21484375 200.75390625 C227 201 227 201 228 202 C228.04092937 204.33297433 228.04241723 206.66705225 228 209 C217.71695462 209.02312376 207.43391538 209.04091525 197.15084934 209.05181217 C192.3765172 209.05704093 187.60220279 209.06413844 182.82788086 209.07543945 C178.22433738 209.0862686 173.62081101 209.09227689 169.01725578 209.09487724 C167.25690377 209.09673144 165.49655274 209.10035196 163.73620796 209.10573006 C161.27927723 209.11294086 158.82241805 209.11399093 156.36547852 209.11352539 C155.63036545 209.11712067 154.89525238 209.12071594 154.13786316 209.12442017 C149.11405216 209.11405216 149.11405216 209.11405216 148 208 C148.28730055 205.66055264 148.61936779 203.3260857 149 201 C150.2684375 200.85304688 150.2684375 200.85304688 151.5625 200.703125 C161.38767196 199.52621557 161.38767196 199.52621557 170 195 C173.81570058 189.21490557 174.12517603 183.54833845 174.12939453 176.76293945 C174.13114685 176.05341125 174.13289917 175.34388306 174.13470459 174.612854 C174.13908776 172.27963784 174.13619855 169.94649811 174.1328125 167.61328125 C174.13348633 165.9885405 174.13445702 164.36379985 174.13571167 162.73905945 C174.13718366 159.34059689 174.13504928 155.94216067 174.13037109 152.54370117 C174.12466045 148.18219831 174.12796438 143.82075681 174.13394356 139.45925617 C174.13755101 136.1076155 174.13640997 132.75598947 174.13381577 129.40434837 C174.13314771 127.79554423 174.13397069 126.18673877 174.13629532 124.57793617 C174.13882632 122.33488038 174.13497553 120.09192522 174.12939453 117.84887695 C174.12859894 116.57156204 174.12780334 115.29424713 174.12698364 113.97822571 C174.20630995 111.07203134 174.20630995 111.07203134 173 109 C170.08889024 107.98532766 167.35095404 107.87069474 164.28721619 107.85955811 C162.87189354 107.85099289 162.87189354 107.85099289 161.42797852 107.84225464 C160.39979004 107.84113678 159.37160156 107.84001892 158.31225586 107.83886719 C157.22409073 107.83390228 156.1359256 107.82893738 155.01478577 107.82382202 C151.41479868 107.80921459 147.8148556 107.80240224 144.21484375 107.796875 C141.71667988 107.79112426 139.21851602 107.78536652 136.72035217 107.77960205 C132.15317383 107.77043974 127.58600814 107.76413649 123.01882166 107.7611053 C116.29545329 107.75661822 109.57228758 107.7390345 102.84898084 107.7101047 C97.02373404 107.68590838 91.1985551 107.67816238 85.37326241 107.67642975 C82.89445451 107.67339546 80.41564764 107.665341 77.93687248 107.65224457 C74.47720655 107.63526413 71.01803984 107.63704437 67.55834961 107.64355469 C66.5281369 107.6343399 65.49792419 107.62512512 64.43649292 107.6156311 C63.49576431 107.62120026 62.55503571 107.62676941 61.58580017 107.63250732 C60.76783431 107.63104076 59.94986845 107.6295742 59.10711575 107.6280632 C56.46917058 108.09369917 55.58630973 108.87077969 54 111 C53.5420408 114.04517745 53.5420408 114.04517745 53.61181641 117.57592773 C53.60393097 118.57179649 53.60393097 118.57179649 53.59588623 119.58778381 C53.58266788 121.78662567 53.59143918 123.98474424 53.6015625 126.18359375 C53.59954012 127.71997719 53.59662732 129.2563597 53.59286499 130.79273987 C53.58843739 134.02004088 53.5948785 137.24709314 53.60888672 140.47436523 C53.62584982 144.57953566 53.61622313 148.68411204 53.59816933 152.78925991 C53.58723197 155.96806659 53.59082512 159.14673697 53.5985527 162.32554817 C53.60053414 163.83677302 53.59816897 165.34801083 53.59111404 166.8592205 C53.06656095 182.00038537 53.06656095 182.00038537 58.99673462 195.25267029 C63.16986349 198.89264338 67.16549232 199.46398902 72.5625 200.0625 C79.65643382 200.88547794 79.65643382 200.88547794 83 202 C83.04254356 203.99954746 83.04080783 206.00041636 83 208 C81.06067979 209.93932021 77.39044545 209.19439948 74.7421875 209.22119141 C73.98286926 209.2326973 73.22355103 209.24420319 72.44122314 209.25605774 C69.91919058 209.29288467 67.3971325 209.32244284 64.875 209.3515625 C63.13004176 209.37466323 61.38508734 209.3980534 59.64013672 209.42172241 C55.97822267 209.47024399 52.3162862 209.5151674 48.65429688 209.55761719 C43.94946648 209.61245465 39.24480863 209.67627413 34.54013062 209.74279213 C30.93550834 209.79275638 27.33083837 209.83792827 23.72613525 209.88163376 C21.99088612 209.90326737 20.25565533 209.92642463 18.52044678 209.9510994 C16.09959719 209.9848148 13.67876052 210.01208712 11.2578125 210.03759766 C10.53362122 210.04897263 9.80942993 210.0603476 9.06329346 210.07206726 C7.37541935 210.08645623 5.68722844 210.04884911 4 210 C3 209 3 209 2.9375 205.4375 C2.958125 204.303125 2.97875 203.16875 3 202 C6.49069957 200.74692836 9.85925925 199.83433211 13.5 199.1875 C18.3272018 198.11297953 20.71877124 196.76140857 24 193 C26.44291878 185.02274864 26.2837109 177.11175913 26.25878906 168.83251953 C26.26150339 167.31211175 26.26506679 165.79170528 26.26940918 164.27130127 C26.27848453 160.16375549 26.27500864 156.0563108 26.26865101 151.94876337 C26.26356393 147.63510027 26.26829013 143.32144545 26.27142334 139.00778198 C26.2750559 131.76347308 26.27028336 124.51920503 26.26074219 117.27490234 C26.24986723 108.92191256 26.25337911 100.5690205 26.264395 92.2160331 C26.27349797 85.02337409 26.27473823 77.83074435 26.26951766 70.63808143 C26.26641341 66.35154043 26.26594568 62.06504522 26.27259064 57.77850723 C26.27840712 53.7450152 26.27428925 49.71164794 26.26280212 45.67816925 C26.26017804 44.20568167 26.26088166 42.73318343 26.26532745 41.26070023 C26.61611511 27.08850487 26.61611511 27.08850487 22.1875 13.9375 C17.82588951 10.07435928 12.87351867 9.56052952 7.25 8.9375 C0.12579702 8.12579702 0.12579702 8.12579702 -1 7 C-0.67 4.69 -0.34 2.38 0 0 Z " fill="#030303" transform="translate(215,592)"/>
<path d="M0 0 C1.12112938 -0.0049926 1.12112938 -0.0049926 2.26490784 -0.01008606 C3.84058016 -0.01511714 5.41626301 -0.01749558 6.99194336 -0.01733398 C9.34182509 -0.01949712 11.69121808 -0.03762892 14.04101562 -0.05664062 C30.37467184 -0.12059445 46.00617461 2.17679219 62.00390625 5.29296875 C63.4679935 5.57346765 64.9321861 5.85341728 66.39648438 6.1328125 C69.91268627 6.80491888 73.4274362 7.48427695 76.94140625 8.16796875 C77.51481996 13.89676826 78.08436806 19.62593424 78.65039062 25.35546875 C78.84334719 27.30316459 79.03734609 29.25075746 79.23242188 31.19824219 C79.513183 34.00298852 79.79015169 36.80808789 80.06640625 39.61328125 C80.15390137 40.47913849 80.24139648 41.34499573 80.33154297 42.23709106 C81.21629743 51.30081753 81.21629743 51.30081753 80.94140625 55.16796875 C79.95140625 56.15796875 79.95140625 56.15796875 78.94140625 57.16796875 C75.31640625 56.79296875 75.31640625 56.79296875 71.94140625 56.16796875 C71.73386719 55.36875 71.52632812 54.56953125 71.3125 53.74609375 C67.47224782 40.0561571 61.1333688 27.63202065 48.5703125 20.1640625 C28.2094523 9.3464052 2.46851326 7.22553527 -19.66015625 13.97265625 C-20.78164062 14.36710938 -21.903125 14.7615625 -23.05859375 15.16796875 C-24.20070313 15.54179688 -25.3428125 15.915625 -26.51953125 16.30078125 C-46.41225994 23.30265079 -61.83371715 37.96459509 -71.1640625 56.7578125 C-83.74070427 84.32647757 -83.6646678 119.69305299 -73.86083984 148.03173828 C-65.42777947 170.48739204 -50.05136396 188.40627195 -28.46484375 198.91796875 C-7.23352106 207.99118357 16.43128496 210.84691291 38.50390625 202.98046875 C44.82447804 200.41131547 50.38363005 197.10357478 55.94140625 193.16796875 C56.97265625 192.44609375 58.00390625 191.72421875 59.06640625 190.98046875 C67.82343591 183.20765856 73.13389419 172.61773774 77.94140625 162.16796875 C80.274354 162.12555152 82.60843192 162.12703938 84.94140625 162.16796875 C85.94140625 163.16796875 85.94140625 163.16796875 86.19140625 166.04296875 C86.00181543 174.62626233 82.428307 182.86840971 79.56640625 190.85546875 C79.28659912 191.65114258 79.00679199 192.44681641 78.71850586 193.26660156 C73.81632162 206.61829318 73.81632162 206.61829318 67.7890625 209.8671875 C63.18650122 211.06888823 58.59920409 212.20025817 53.94140625 213.16796875 C52.86552246 213.39645508 51.78963867 213.62494141 50.68115234 213.86035156 C25.51252186 219.03625748 0.22137781 220.5314378 -25.05859375 215.16796875 C-25.72987305 215.02875 -26.40115234 214.88953125 -27.09277344 214.74609375 C-37.33319918 212.53967783 -46.66248245 208.67871798 -56.05859375 204.16796875 C-57.52425781 203.47574219 -57.52425781 203.47574219 -59.01953125 202.76953125 C-82.98329459 190.61196217 -99.73569757 168.98630791 -108.25390625 143.80859375 C-113.75803687 125.74649521 -115.39174777 105.70015852 -111.05859375 87.16796875 C-110.77886719 85.95496094 -110.49914063 84.74195313 -110.2109375 83.4921875 C-108.30133477 75.61805999 -105.80608234 68.35315355 -102.05859375 61.16796875 C-101.19427734 59.48380859 -101.19427734 59.48380859 -100.3125 57.765625 C-95.89201116 49.44897744 -90.73362359 42.86477682 -84.05859375 36.16796875 C-83.21425781 35.31847656 -82.36992188 34.46898437 -81.5 33.59375 C-80.69433594 32.79324219 -79.88867188 31.99273438 -79.05859375 31.16796875 C-78.42179687 30.53375 -77.785 29.89953125 -77.12890625 29.24609375 C-57.28113144 10.59396802 -26.99935695 0.043366 0 0 Z " fill="#040404" transform="translate(1228.05859375,587.83203125)"/>
<path d="M0 0 C7.58710139 5.18522571 11.02229941 11.83343266 12.72265625 20.74609375 C12.97331367 23.60958325 12.98067323 26.44733682 12.953125 29.3203125 C12.95302933 30.11817169 12.95293365 30.91603088 12.95283508 31.73806763 C12.94914366 34.30340183 12.93027143 36.86834015 12.91015625 39.43359375 C12.9033064 41.20597203 12.89679736 42.97835166 12.890625 44.75073242 C12.83781283 55.28202454 12.54568951 65.77349374 11.9609375 76.2890625 C10.20927064 94.94807204 10.20927064 94.94807204 17.25 111.48828125 C20.75849382 114.48492584 25.33114838 114.04895636 29.72265625 113.74609375 C31.73046802 112.76187229 33.73158377 111.76375302 35.72265625 110.74609375 C38.09765625 111.05859375 38.09765625 111.05859375 39.72265625 111.74609375 C39.80370124 115.06893827 39.32053062 117.10105528 37.0390625 119.5625 C29.08962356 126.1232669 20.56519039 129.48673987 10.21484375 128.98828125 C1.9073489 128.18096984 -2.58574635 124.59997702 -8.27734375 118.74609375 C-8.93734375 117.75609375 -9.59734375 116.76609375 -10.27734375 115.74609375 C-15.79144823 116.24347798 -19.46117686 118.33179252 -24.08984375 121.12109375 C-35.28311374 127.57314835 -45.75970176 131.5568429 -58.99609375 128.01953125 C-61.23003666 127.07852105 -63.22103834 126.02659225 -65.27734375 124.74609375 C-65.92316406 124.36066406 -66.56898438 123.97523438 -67.234375 123.578125 C-73.66985327 119.39167703 -77.58145208 113.24949936 -79.27734375 105.74609375 C-79.95684132 99.2049063 -80.35545985 92.37645016 -76.83984375 86.578125 C-70.15640646 78.74179478 -60.94416318 74.98977113 -51.50097656 71.56298828 C-49.04760168 70.66169356 -46.61171119 69.72084447 -44.17578125 68.7734375 C-34.86898411 65.16471399 -25.57141372 61.74440783 -16.015625 58.8515625 C-12.99311973 57.93064345 -12.99311973 57.93064345 -11.27734375 54.74609375 C-10.84346433 50.58880288 -10.86322402 46.42997417 -10.85180664 42.25170898 C-10.84002003 40.21406777 -10.79094273 38.17956998 -10.74023438 36.14257812 C-10.69199102 27.24387254 -11.52370462 19.58575943 -18.00415039 12.98803711 C-23.12775636 8.73873036 -29.34983214 9.15672268 -35.703125 9.390625 C-41.34063351 9.95129525 -45.17614556 11.03195838 -49.65234375 14.68359375 C-51.35147154 17.88579612 -51.76171421 20.18475416 -52.27734375 23.74609375 C-53.44401042 31.67942708 -53.44401042 31.67942708 -57.27734375 34.74609375 C-63.72960887 38.3031117 -69.93761015 39.65058617 -77.27734375 38.74609375 C-78.27734375 37.74609375 -78.27734375 37.74609375 -78.65234375 34.18359375 C-78.51241971 27.03474712 -74.01320184 22.3307099 -69.33984375 17.30859375 C-52.30381975 0.97653768 -22.52017789 -12.39961767 0 0 Z " fill="#040404" transform="translate(548.27734375,676.25390625)"/>
<path d="M0 0 C0.495 8.91 0.495 8.91 1 18 C1.99 18.33 2.98 18.66 4 19 C6.15590487 17.88737217 8.14260339 16.72816173 10.1875 15.4375 C15.43866903 12.27983878 20.69508392 9.70503152 26.4375 7.5625 C27.08678467 7.3162085 27.73606934 7.06991699 28.4050293 6.81616211 C39.20822643 2.91581583 53.02676116 2.17765514 64 6 C73.06857485 10.60789599 79.22339697 17.60691041 83 27 C84.13407695 30.59117906 84.15061009 33.99731849 84.18945312 37.74951172 C84.20189308 38.755411 84.20189308 38.755411 84.21458435 39.78163147 C84.23194996 41.23570304 84.24712624 42.68980205 84.26036072 44.14391708 C84.28151325 46.45849305 84.30853503 48.77293644 84.33703613 51.08743286 C84.39664409 56.01656932 84.44868516 60.94577127 84.5 65.875 C84.55962256 71.55757439 84.6224649 77.24008645 84.69187927 82.9225502 C84.71801577 85.1788046 84.73910445 87.43506668 84.7598877 89.69137573 C84.83073611 96.35604001 84.9818549 103.01569936 85.33007812 109.67236328 C85.3855481 110.75091583 85.44101807 111.82946838 85.49816895 112.94070435 C86.07926491 116.48322001 87.08783268 118.96477054 89 122 C91.85149837 122.99802443 94.07181448 123.58855787 97 124 C98.02867187 124.16435547 98.02867187 124.16435547 99.078125 124.33203125 C100.7148819 124.58153687 102.35712037 124.79464005 104 125 C104.625 128.375 104.625 128.375 105 132 C103 134 103 134 100.48838806 134.20927429 C99.42995193 134.19008438 98.37151581 134.17089447 97.28100586 134.15112305 C96.0831395 134.13417892 94.88527313 134.1172348 93.65110779 134.09977722 C92.35214066 134.07071793 91.05317352 134.04165863 89.71484375 134.01171875 C88.37489596 133.98809007 87.03493464 133.9652168 85.69496155 133.94306946 C82.88624359 133.89451591 80.07777093 133.83914518 77.26928711 133.77856445 C73.66219436 133.70097067 70.05502094 133.63663301 66.44759274 133.57690716 C63.68095454 133.53027118 60.91443285 133.4784889 58.14792061 133.42493629 C56.16863197 133.38703069 54.18928832 133.35203445 52.20994568 133.31706238 C51.01523148 133.29066177 49.82051727 133.26426117 48.58959961 133.23706055 C47.53195908 133.21548386 46.47431854 133.19390717 45.3846283 133.17167664 C43 133 43 133 42 132 C41.95919217 130.00041636 41.95745644 127.99954746 42 126 C47.29012667 124.42421759 52.60204011 123.15058556 58 122 C59.59028266 117.0722146 60.25859866 112.90598823 60.29052734 107.67871094 C60.29724457 106.98334732 60.30396179 106.2879837 60.31088257 105.57154846 C60.32974474 103.29241617 60.33378098 101.0135803 60.3359375 98.734375 C60.34237454 97.13405237 60.34910356 95.53373089 60.35610962 93.93341064 C60.36805364 90.58464839 60.37179351 87.23598906 60.37060547 83.88720703 C60.37040266 79.62280031 60.39767808 75.35906282 60.43214989 71.0948143 C60.4545295 67.78996833 60.45843962 64.48528046 60.45738602 61.18036652 C60.45972639 59.60967966 60.46846048 58.03898739 60.48405075 56.46837616 C60.57771035 46.0568627 59.70331214 37.21627395 54.25 28.0625 C47.10076032 21.50903029 37.65746549 19.48223828 28.1875 19.6953125 C19.20723929 20.55371977 12.49574485 23.69564944 5.83984375 29.70703125 C1.599354 34.9918879 0.62409336 39.90358199 0.61181641 46.56835938 C0.60393097 47.65030327 0.60393097 47.65030327 0.59588623 48.75410461 C0.58277722 51.1175458 0.59139143 53.48030301 0.6015625 55.84375 C0.59953914 57.49849577 0.59662552 59.15324067 0.59286499 60.8079834 C0.58845397 64.26774629 0.5948331 67.72727604 0.60888672 71.18701172 C0.62597799 75.60866608 0.61613022 80.02977404 0.59816933 84.45140839 C0.58729832 87.8659065 0.59079299 91.28027634 0.5985527 94.69477844 C0.60054555 96.32457037 0.59812778 97.95437417 0.59111404 99.58415222 C0.58344456 101.86695957 0.59517929 104.14889757 0.61181641 106.43164062 C0.61539658 108.37520447 0.61539658 108.37520447 0.61904907 110.35803223 C1.06372568 114.60923033 2.0263792 117.22475997 4 121 C8.47190709 124.11993518 12.71834389 124.46288243 18 125 C19 126 19 126 19.125 128.9375 C19 132 19 132 18 134 C-12.195 133.505 -12.195 133.505 -43 133 C-43 130.69 -43 128.38 -43 126 C-42.01 125.71125 -41.02 125.4225 -40 125.125 C-39.36578125 124.93808594 -38.7315625 124.75117187 -38.078125 124.55859375 C-36 124 -36 124 -33.859375 123.59765625 C-30.26608419 122.89896081 -28.38214181 122.48075905 -26.0625 119.5625 C-24.16097931 114.97647952 -23.84064666 111.12726341 -23.82299805 106.22729492 C-23.81642685 105.43670181 -23.80985565 104.6461087 -23.80308533 103.83155823 C-23.78337051 101.21452742 -23.77169412 98.59755394 -23.76171875 95.98046875 C-23.75764322 95.08603876 -23.7535677 94.19160877 -23.74936867 93.27007484 C-23.72851621 88.53641618 -23.71421062 83.80278644 -23.70483398 79.0690918 C-23.69376802 74.18311211 -23.65936369 69.29758766 -23.61966228 64.41176891 C-23.59350357 60.65162821 -23.58514284 56.89159614 -23.58155251 53.13137245 C-23.57668504 51.33046708 -23.56506646 49.52956662 -23.54651451 47.72875023 C-23.52213727 45.20576363 -23.52308512 42.68395726 -23.5300293 40.16088867 C-23.51721924 39.4204129 -23.50440918 38.67993713 -23.49121094 37.91702271 C-23.54235864 32.80599878 -24.81227968 29.95144185 -28 26 C-30.07102741 24.0902864 -30.07102741 24.0902864 -32.25 22.625 C-32.95640625 22.12226562 -33.6628125 21.61953125 -34.390625 21.1015625 C-34.92171875 20.73804688 -35.4528125 20.37453125 -36 20 C-35.78515625 17.64453125 -35.78515625 17.64453125 -35 15 C-33.05859375 13.69921875 -33.05859375 13.69921875 -30.4375 12.6875 C-25.35747012 10.59415435 -20.46083661 8.29325785 -15.5625 5.8125 C-14.87663818 5.46727295 -14.19077637 5.1220459 -13.48413086 4.76635742 C-9.60247554 2.81783095 -9.60247554 2.81783095 -5.77734375 0.76171875 C-4 0 -4 0 0 0 Z " fill="#020202" transform="translate(1787,668)"/>
<path d="M0 0 C7.36259113 4.87010708 13.78661363 12.40039832 16.16015625 21.046875 C16.5686807 24.14794695 16.63609652 27.15348237 16.62890625 30.28125 C16.63277344 31.97121094 16.63277344 31.97121094 16.63671875 33.6953125 C16.50390625 36.65625 16.50390625 36.65625 15.50390625 39.65625 C12.43910579 41.18865023 9.22167522 40.82689795 5.85717773 40.84570312 C4.67409027 40.85814308 4.67409027 40.85814308 3.46710205 40.87083435 C1.75213579 40.88824956 0.03714554 40.90341235 -1.67785835 40.91661072 C-4.3877555 40.93759879 -7.09753167 40.96462331 -9.80735779 40.99328613 C-16.53667215 41.06320001 -23.26607223 41.1225951 -29.9954834 41.18231201 C-35.68115805 41.23315527 -41.36676727 41.28794903 -47.052351 41.34812927 C-49.72966978 41.37479749 -52.40699434 41.39555385 -55.08436584 41.4161377 C-56.71583347 41.43273299 -58.34729832 41.44960415 -59.97875977 41.46679688 C-61.10476845 41.4730735 -61.10476845 41.4730735 -62.25352478 41.47947693 C-65.6634163 41.2197181 -65.6634163 41.2197181 -68.49609375 42.65625 C-69.85993057 61.06804711 -66.48872443 77.37808756 -54.37109375 91.78125 C-45.68815752 101.0248394 -35.77363855 106.28529418 -23.08203125 106.93359375 C-21.4911389 106.97679351 -19.89992133 107.00931298 -18.30859375 107.03125 C-17.5602124 107.04534912 -16.81183105 107.05944824 -16.04077148 107.07397461 C-8.57320129 107.00888159 -2.5247234 104.94427651 3.31640625 100.21875 C4.04472656 99.64253906 4.77304687 99.06632813 5.5234375 98.47265625 C7.57524301 96.7122498 7.57524301 96.7122498 9.1015625 94.453125 C9.56433594 93.86015625 10.02710938 93.2671875 10.50390625 92.65625 C13.12890625 92.34375 13.12890625 92.34375 15.50390625 92.65625 C16.50390625 93.65625 16.50390625 93.65625 16.56640625 96.59375 C15.26006937 104.46402651 8.2249096 110.38086367 2.19140625 114.96875 C-12.45243514 124.96695895 -28.43183084 127.61602434 -45.83203125 125.19140625 C-60.98357471 121.83102456 -73.37913228 113.4396487 -81.8984375 100.44921875 C-91.34554835 83.93409832 -94.46642804 64.19785658 -90.3046875 45.484375 C-84.70968436 25.91537852 -74.99428755 9.44777725 -56.74194336 -0.73193359 C-51.81790855 -3.34015314 -46.91496225 -5.11587905 -41.49609375 -6.34375 C-40.87436279 -6.51430908 -40.25263184 -6.68486816 -39.61206055 -6.8605957 C-26.08025897 -9.95041171 -11.76572757 -6.82847347 0 0 Z " fill="#040404" transform="translate(961.49609375,679.34375)"/>
<path d="M0 0 C6.58542805 5.58051211 11.47768137 11.83848512 15.62890625 19.41796875 C16.22445313 20.39636719 16.22445313 20.39636719 16.83203125 21.39453125 C22.19950807 30.80764359 22.89271432 41.58028289 22.94140625 52.16796875 C22.94688477 53.03059326 22.95236328 53.89321777 22.95800781 54.78198242 C22.75794954 72.85103834 15.72070723 88.80828546 3.56640625 102.04296875 C-10.99290462 116.03278277 -29.65723672 119.97524518 -49.20703125 119.69921875 C-66.69621908 119.05409932 -81.75956525 110.76210241 -93.74609375 98.359375 C-106.79264083 82.77251467 -109.81045874 63.09063053 -108.37109375 43.41796875 C-105.97220313 25.45926354 -95.53658532 9.50505986 -81.40625 -1.4765625 C-57.09873438 -18.33853279 -23.46684898 -18.65562499 0 0 Z M-69.37109375 7.41796875 C-80.71475362 22.8212206 -83.55514393 43.97899591 -81.07080078 62.67822266 C-78.44442175 77.73055293 -73.17003858 94.08889495 -60.51953125 103.55078125 C-51.40023959 109.49396078 -43.09814784 110.73609284 -32.37109375 109.41796875 C-23.0888029 106.64453896 -16.83579179 101.29627667 -11.98046875 93.05859375 C-3.26192651 75.72655195 -1.51809551 54.12795569 -6.37109375 35.41796875 C-6.56574219 34.53496094 -6.76039062 33.65195312 -6.9609375 32.7421875 C-10.0417257 19.85391969 -16.17206792 8.30807351 -27.08984375 0.46484375 C-41.34659567 -7.73662106 -58.60684557 -4.93518093 -69.37109375 7.41796875 Z " fill="#030303" transform="translate(1448.37109375,685.58203125)"/>
<path d="M0 0 C10.54090491 10.44127443 15.24793531 23.64565934 15.4465332 38.234375 C15.42945738 49.47514374 15.19171134 59.44864054 11.06640625 70.046875 C10.71578125 70.96082031 10.36515625 71.87476563 10.00390625 72.81640625 C5.90002992 82.09287671 -1.52674404 90.88148029 -10.93359375 95.046875 C-21.24937559 98.51817852 -32.89384618 98.46285419 -42.93359375 94.046875 C-48.93443628 90.65017168 -53.85485523 86.27905458 -56.93359375 80.046875 C-57.31454468 76.68338013 -57.31454468 76.68338013 -57.32177734 72.79736328 C-57.3270343 72.08611298 -57.33229126 71.37486267 -57.33770752 70.64205933 C-57.35086753 68.30020927 -57.34218218 65.95904401 -57.33203125 63.6171875 C-57.33405359 61.98200348 -57.33696637 60.34682034 -57.34072876 58.7116394 C-57.34514706 55.28700155 -57.33873875 51.86259876 -57.32470703 48.43798828 C-57.3076424 44.06111421 -57.31744194 39.68479318 -57.33542442 35.30793953 C-57.34629884 31.93118168 -57.34279874 28.55455349 -57.33504105 25.1777916 C-57.33304773 23.56474618 -57.33546765 21.95168878 -57.34247971 20.33865738 C-57.35015173 18.07718292 -57.33840981 15.81658542 -57.32177734 13.55517578 C-57.31939056 12.27119904 -57.31700378 10.98722229 -57.31454468 9.66433716 C-56.77213593 4.51369179 -55.42657901 0.53986026 -51.68359375 -3.203125 C-35.85926187 -13.27315438 -14.40297005 -12.05830051 0 0 Z " fill="#FDFDFD" transform="translate(802.93359375,696.953125)"/>
<path d="M0 0 C0.00238835 1.07252109 0.00477671 2.14504217 0.00723743 3.2500639 C0.06599679 29.33063671 0.1418575 55.41111687 0.23571491 81.49158764 C0.28070629 94.10383965 0.32011326 106.71606321 0.34643555 119.32836914 C0.36938854 130.31952304 0.40275633 141.31058716 0.44870156 152.3016699 C0.47267015 158.1229275 0.49137511 163.94409599 0.49761391 169.76540184 C0.50364829 175.24255868 0.52358853 180.7194874 0.55427551 186.19655991 C0.56308218 188.20852768 0.56677291 190.22052524 0.56500816 192.23251152 C0.56336091 194.97669935 0.58000784 197.7201872 0.60127258 200.46427917 C0.59642501 201.26292316 0.59157743 202.06156715 0.58658296 202.88441247 C0.64444662 207.40007117 1.0614211 210.48522788 4 214 C8.04383081 215.3479436 11.72348257 215.96049751 15.9375 216.5625 C19 217 19 217 20 218 C20.23529412 223.52941176 20.23529412 223.52941176 19 226 C10.80300281 225.89264919 2.60610208 225.78004701 -5.59072781 225.66066074 C-9.39647405 225.60539706 -13.20222792 225.55197171 -17.00805664 225.50268555 C-20.67799335 225.45509259 -24.34783391 225.40275191 -28.01765633 225.34705925 C-29.42072227 225.32661263 -30.8238146 225.30790343 -32.2269268 225.29092598 C-34.18576926 225.26693313 -36.14452701 225.23629801 -38.10327148 225.20532227 C-39.22023911 225.18977798 -40.33720673 225.1742337 -41.48802185 225.15821838 C-44 225 -44 225 -45 224 C-44.71269945 221.66055264 -44.38063221 219.3260857 -44 217 C-43.10796875 216.86722656 -42.2159375 216.73445312 -41.296875 216.59765625 C-39.54117187 216.33275391 -39.54117187 216.33275391 -37.75 216.0625 C-36.58984375 215.88847656 -35.4296875 215.71445312 -34.234375 215.53515625 C-31.76399111 215.12640916 -29.41720545 214.6272786 -27 214 C-25.52102659 208.68924334 -24.74835414 204.06921261 -24.73930359 198.51731873 C-24.73547804 197.80896773 -24.73165249 197.10061673 -24.72771102 196.37080055 C-24.71747525 194.02112982 -24.72135497 191.67170777 -24.7253418 189.32202148 C-24.7209902 187.627785 -24.71580556 185.93355047 -24.70985413 184.23931885 C-24.69650385 179.65473572 -24.69588082 175.07023524 -24.69841743 170.48563647 C-24.69948942 166.65351199 -24.69459814 162.82140407 -24.689812 158.98928314 C-24.67873145 149.94865329 -24.67827182 140.90806499 -24.68432617 131.86743164 C-24.69037118 122.54812634 -24.67803825 113.22897181 -24.6567561 103.90969223 C-24.63913539 95.89843772 -24.63313932 87.8872312 -24.63639385 79.87595803 C-24.63820543 75.09542458 -24.63558251 70.31499881 -24.62167931 65.53448296 C-24.60909725 61.04052785 -24.61104862 56.54680797 -24.62409019 52.05285645 C-24.62645436 50.40614301 -24.62372701 48.759413 -24.61546707 47.11271858 C-24.60498446 44.86010658 -24.61311153 42.6082818 -24.6257782 40.35569763 C-24.62552659 38.46732005 -24.62552659 38.46732005 -24.62526989 36.54079342 C-25.17153532 31.37917717 -26.51806554 27.40393791 -30.375 23.75 C-32.96175979 21.94151497 -32.96175979 21.94151497 -35.8125 20.625 C-36.534375 20.08875 -37.25625 19.5525 -38 19 C-38.3125 15.8125 -38.3125 15.8125 -38 13 C-33.3279425 10.92419468 -28.70059732 9.21208341 -23.8125 7.6875 C-17.66818168 5.73329207 -12.12648363 3.20518998 -6.48828125 0.0390625 C-3.65970883 -1.14209961 -2.82711586 -0.86590948 0 0 Z " fill="#050505" transform="translate(1538,576)"/>
<path d="M0 0 C-0.00276538 1.55686728 -0.00276538 1.55686728 -0.00558662 3.14518642 C-0.05000165 28.40925916 -0.08285911 53.67332684 -0.10362434 78.93743038 C-0.11393337 91.15499701 -0.1279866 103.37253783 -0.15087891 115.59008789 C-0.17082417 126.23989665 -0.18371916 136.88968673 -0.18817699 147.53951365 C-0.19078243 153.17758502 -0.19689867 158.81560293 -0.21146011 164.45365715 C-0.22506193 169.76330391 -0.22921736 175.07287531 -0.22621536 180.38253784 C-0.22676436 182.32834343 -0.23072626 184.2741516 -0.23841095 186.21994209 C-0.24841289 188.88373441 -0.24594981 191.54724499 -0.24050903 194.21104431 C-0.24924756 195.35651471 -0.24924756 195.35651471 -0.25816262 196.52512592 C-0.20860962 205.87500995 -0.20860962 205.87500995 3.70703125 213.9921875 C6.69282966 215.30451457 9.4531224 215.72658843 12.6875 216.125 C18.91464968 216.91464968 18.91464968 216.91464968 20 218 C20.125 221 20.125 221 20 224 C18.20903955 225.79096045 15.53667215 225.12766791 13.11914062 225.12939453 C11.2321344 225.13412277 11.2321344 225.13412277 9.30700684 225.13894653 C7.92342087 225.13715675 6.53983522 225.1351058 5.15625 225.1328125 C3.74759911 225.13348559 2.33894834 225.13445565 0.93029785 225.13571167 C-2.02548323 225.13718842 -4.98123414 225.13503483 -7.93701172 225.13037109 C-11.73374584 225.12467381 -15.53040928 225.12795293 -19.32714081 225.13394356 C-22.23696428 225.13754979 -25.14677088 225.1364103 -28.05659485 225.13381577 C-29.456894 225.13314667 -30.85719467 225.13397432 -32.25749207 225.13629532 C-34.21137464 225.13882283 -36.16526255 225.13429033 -38.11914062 225.12939453 C-39.23309204 225.12859894 -40.34704346 225.12780334 -41.49475098 225.12698364 C-44 225 -44 225 -45 224 C-44.71269945 221.66055264 -44.38063221 219.3260857 -44 217 C-43.19175781 216.89042969 -42.38351562 216.78085937 -41.55078125 216.66796875 C-40.48214844 216.50941406 -39.41351562 216.35085938 -38.3125 216.1875 C-37.25675781 216.03667969 -36.20101563 215.88585937 -35.11328125 215.73046875 C-31.79294805 214.95141943 -29.6882263 214.0950275 -27 212 C-24.86917892 207.9050594 -24.74664691 204.36734956 -24.73930359 199.79542542 C-24.73547804 199.08076502 -24.73165249 198.36610463 -24.72771102 197.62978786 C-24.71741202 195.24082816 -24.72136721 192.85211019 -24.7253418 190.46313477 C-24.72099362 188.7480141 -24.71581011 187.03289538 -24.70985413 185.31777954 C-24.69646462 180.66284064 -24.69588538 176.00798294 -24.69841743 171.35302854 C-24.69948712 167.46628317 -24.69460383 163.57955423 -24.689812 159.69281238 C-24.67871709 150.52330448 -24.6782794 141.35383754 -24.68432617 132.18432617 C-24.69036757 122.72589526 -24.6780507 113.26761304 -24.6567561 103.8092075 C-24.63914195 95.6867775 -24.63313843 87.56439484 -24.63639385 79.44194645 C-24.63820706 74.59153668 -24.6355666 69.741233 -24.62167931 64.89084053 C-24.60910855 60.32962579 -24.61103793 55.76864295 -24.62409019 51.20743179 C-24.62645713 49.53449996 -24.6237171 47.86155185 -24.61546707 46.18863869 C-24.60500757 43.90267615 -24.61309323 41.61749289 -24.6257782 39.33155823 C-24.62561046 38.0530729 -24.62544271 36.77458757 -24.62526989 35.45736027 C-25.16406629 30.48628047 -26.70072464 27.19670099 -30.375 23.8125 C-32.95172937 21.93704486 -32.95172937 21.93704486 -35.8125 20.625 C-36.534375 20.08875 -37.25625 19.5525 -38 19 C-38.3125 15.8125 -38.3125 15.8125 -38 13 C-31.06604062 9.80698917 -24.02832789 7.11879516 -16.84179688 4.55664062 C-13.29421686 3.27469377 -10.00578942 2.00308814 -6.66796875 0.22265625 C-3.67750737 -1.14778945 -2.99776933 -0.9425667 0 0 Z " fill="#010101" transform="translate(1620,576)"/>
<path d="M0 0 C5.19753519 7.23578429 4.83541523 18.16304072 5.1953125 26.6640625 C2.48651915 28.01845918 0.18597982 27.72907701 -2.8046875 27.6640625 C-3.17980469 26.93960938 -3.55492187 26.21515625 -3.94140625 25.46875 C-9.15741632 15.6148267 -13.28320195 9.93427361 -23.6796875 5.4140625 C-30.44312819 3.79083673 -35.95601799 4.0021149 -42.08203125 7.4609375 C-46.11365256 10.27667302 -48.49689571 13.97780859 -49.8046875 18.6640625 C-50.43543994 25.07671226 -49.46418468 29.34490068 -45.8046875 34.6640625 C-40.2078474 40.53308415 -33.4452568 44.49162633 -26.4921875 48.5390625 C-12.68808973 56.79733785 -0.25432783 64.61239462 5.1953125 80.6640625 C7.15856186 92.88742373 6.41195815 102.35674371 -0.8046875 112.6640625 C-8.50512803 121.62761877 -20.28019504 126.85511296 -32.02954102 127.85302734 C-34.37520815 127.93152457 -36.70790458 127.94222485 -39.0546875 127.9140625 C-40.30584351 127.90173584 -40.30584351 127.90173584 -41.58227539 127.88916016 C-52.96437042 127.68431549 -63.2050761 126.33471898 -72.8046875 119.6640625 C-77.98049952 113.42092202 -76.96544022 102.44319042 -76.9296875 94.7265625 C-76.93355469 93.86482422 -76.93742187 93.00308594 -76.94140625 92.11523438 C-76.93143868 85.79081368 -76.93143868 85.79081368 -75.8046875 84.6640625 C-73.3671875 84.4765625 -73.3671875 84.4765625 -70.8046875 84.6640625 C-68.30863994 87.16011006 -67.76903441 89.33038952 -66.6171875 92.6640625 C-62.16434049 104.41282793 -56.27442337 111.61331926 -44.9296875 117.0390625 C-37.75266606 118.47446679 -30.99695558 118.68376394 -24.52734375 114.9375 C-20.52436105 111.978379 -17.72207833 108.64675389 -16.8046875 103.6640625 C-15.93657375 96.16971346 -16.40421012 90.3470026 -20.7265625 84.03515625 C-27.05641078 76.81294214 -35.42225992 72.20506162 -43.71923828 67.6105957 C-54.94186189 61.3163846 -66.23026108 52.44093137 -70.171875 39.74609375 C-72.22650951 29.7392627 -71.70986855 21.16612761 -66.55859375 12.25 C-60.46887835 3.27139957 -51.81125275 -2.06867119 -41.2421875 -4.7109375 C-29.01700003 -6.59778315 -10.51135356 -7.78113186 0 0 Z " fill="#040404" transform="translate(1985.8046875,677.3359375)"/>
<path d="M0 0 C0 7.26 0 14.52 0 22 C4.08582334 19.27611777 7.85231716 16.58146385 11.6875 13.5625 C19.74692486 7.53285622 27.15065363 3.04667647 37.484375 3.578125 C42.44030998 4.40924453 45.6235241 6.40151186 48.9375 10.25 C50.35001014 13.90590861 50.66974574 17.16965641 50 21 C47.60178971 25.79642058 44.79642058 28.60178971 40 31 C34.20444314 31.99923394 31.21315708 30.7618517 26.0625 28 C20.94112395 25.29095977 16.76927907 23.37219957 11 25 C6.79393365 27.18912225 3.98360381 30.21927991 2.32958984 34.67358398 C0.12132254 41.82462478 0.5689542 49.37742239 0.6015625 56.78515625 C0.59953779 58.41222768 0.59662306 60.03929823 0.59286499 61.66636658 C0.58846153 65.06290394 0.59480929 68.45920336 0.60888672 71.85571289 C0.62599126 76.19201851 0.61611702 80.52776746 0.59816933 84.86405277 C0.5872894 88.21939735 0.59079681 91.57461158 0.5985527 94.92996025 C0.60054239 96.52822372 0.59813911 98.12649934 0.59111404 99.72474861 C0.32127643 111.26785186 0.32127643 111.26785186 4 122 C6.98176958 123.35183926 9.75093804 123.71957501 13 124 C13.99 124.09539062 14.98 124.19078125 16 124.2890625 C17.93566227 124.46549005 19.87329961 124.62193289 21.8125 124.75390625 C24 125 24 125 25 126 C25.125 129 25.125 129 25 132 C23.17443883 133.82556117 20.29461397 133.12772403 17.84375 133.12939453 C16.52568359 133.13254669 15.20761719 133.13569885 13.84960938 133.13894653 C12.39973925 133.13715675 10.94986942 133.1351058 9.5 133.1328125 C8.02408838 133.13348557 6.54817687 133.13445563 5.07226562 133.13571167 C1.97524971 133.13718848 -1.12173742 133.13503464 -4.21875 133.13037109 C-8.19708549 133.1246738 -12.17535352 133.1279529 -16.15368652 133.13394356 C-19.20247917 133.13754963 -22.25125571 133.13641037 -25.30004883 133.13381577 C-26.76733406 133.13314662 -28.23462074 133.13397447 -29.7019043 133.13629532 C-31.74918593 133.13882257 -33.79647266 133.1342906 -35.84375 133.12939453 C-37.59461914 133.12820114 -37.59461914 133.12820114 -39.38085938 133.12698364 C-42 133 -42 133 -43 132 C-42.71269945 129.66055264 -42.38063221 127.3260857 -42 125 C-41.09636719 124.81824219 -40.19273437 124.63648438 -39.26171875 124.44921875 C-38.08222656 124.19785156 -36.90273438 123.94648437 -35.6875 123.6875 C-34.51574219 123.44386719 -33.34398437 123.20023438 -32.13671875 122.94921875 C-29.08684346 122.02628015 -27.87688919 121.49184264 -26 119 C-24.40751979 115.81503957 -24.82579891 112.36540171 -24.80712891 108.8659668 C-24.79895142 108.02514557 -24.79077393 107.18432434 -24.78234863 106.31802368 C-24.75748449 103.52842933 -24.74097637 100.73888588 -24.7265625 97.94921875 C-24.72123882 96.99746073 -24.71591515 96.04570271 -24.71043015 95.06510353 C-24.68369461 90.02786692 -24.66432068 84.99065514 -24.64990234 79.95336914 C-24.63325002 74.7476911 -24.58846853 69.54264561 -24.5375309 64.33720684 C-24.50389288 60.33691166 -24.49232872 56.33676727 -24.48667526 52.33634377 C-24.47995365 50.41736833 -24.46470799 48.49840313 -24.44078445 46.57956505 C-24.40920237 43.89325621 -24.40908535 41.20866216 -24.41650391 38.5222168 C-24.40009857 37.72982101 -24.38369324 36.93742523 -24.36679077 36.12101746 C-24.41287619 32.04340632 -24.79062701 30.25341204 -27.42391968 27.0662384 C-28.27402618 26.38437973 -29.12413269 25.70252106 -30 25 C-30.59425781 24.47792969 -31.18851563 23.95585938 -31.80078125 23.41796875 C-32.29964844 23.01191406 -32.79851563 22.60585938 -33.3125 22.1875 C-34.6428125 21.1046875 -34.6428125 21.1046875 -36 20 C-35.9140625 17.70703125 -35.9140625 17.70703125 -35 15 C-32.75003207 13.62844421 -30.79157424 12.65851473 -28.375 11.6875 C-27.00857059 11.10063397 -25.64403566 10.50934085 -24.28125 9.9140625 C-23.57613281 9.60758789 -22.87101563 9.30111328 -22.14453125 8.98535156 C-17.97348177 7.06887209 -13.98791974 4.78076752 -10.01318359 2.48901367 C-6.17593704 0.35456511 -4.60899362 0 0 0 Z " fill="#040404" transform="translate(641,668)"/>
<path d="M0 0 C0 7.26 0 14.52 0 22 C3.85783478 19.68529913 7.1689814 17.37780627 10.6875 14.625 C20.15156237 7.45100704 28.91122479 2.73750988 41 4 C44.87062746 5.93531373 48.0831623 8.05983361 50 12 C50.72675952 16.61178266 50.50540156 20.67659357 48.375 24.875 C44.86689151 29.49093222 42.03714364 30.6838915 36.375 31.5625 C32.35706769 31.44704217 29.51253563 29.87128787 26 28 C20.82995337 25.25219184 17.80378233 23.99934787 12 25 C6.24873521 27.92988961 3.95845677 31.14627725 1.94067383 37.15405273 C0.28161174 44.04482904 0.69200458 51.23954371 0.69921875 58.28515625 C0.6953257 59.87121186 0.69098978 61.45726644 0.68623352 63.0433197 C0.67880074 66.35581861 0.67904199 69.66821086 0.68432617 72.98071289 C0.69012964 77.21286972 0.67315458 81.44459015 0.6499815 85.67667484 C0.63521232 88.94789658 0.63437656 92.21901381 0.63749123 95.49026299 C0.63698003 97.05028589 0.63178044 98.61031496 0.62167931 100.17030525 C0.60926395 102.35478865 0.61613509 104.53842926 0.62768555 106.72290039 C0.62705612 107.96229874 0.6264267 109.20169708 0.6257782 110.47865295 C1.1461679 115.37540865 2.43487534 119.43487534 6 123 C7.91311602 123.44354914 7.91311602 123.44354914 10.09765625 123.59765625 C10.89880859 123.67693359 11.69996094 123.75621094 12.52539062 123.83789062 C13.36263672 123.91201172 14.19988281 123.98613281 15.0625 124.0625 C23.88006757 124.88006757 23.88006757 124.88006757 25 126 C25.125 129.5 25.125 129.5 25 133 C24 134 24 134 21.37413025 134.08229065 C20.20386795 134.06230515 19.03360565 134.04231964 17.82788086 134.02172852 C17.18399918 134.01212097 16.54011749 134.00251343 15.87672424 133.99261475 C13.7393231 133.95952022 11.60211978 133.91922824 9.46484375 133.87890625 C7.98654385 133.85461532 6.50823654 133.83077126 5.02992249 133.80735779 C1.13194365 133.74441454 -2.76590469 133.67537716 -6.66375732 133.60510254 C-10.63840778 133.53451131 -14.61315103 133.46963931 -18.58789062 133.40429688 C-26.39202969 133.27515264 -34.19603979 133.13957512 -42 133 C-42 130.36 -42 127.72 -42 125 C-40.89591797 124.83564453 -40.89591797 124.83564453 -39.76953125 124.66796875 C-32.32751995 123.67465628 -32.32751995 123.67465628 -26 120 C-24.00710689 115.29791702 -23.70326884 110.92277142 -23.70947266 105.88671875 C-23.70275543 105.09568756 -23.69603821 104.30465637 -23.68911743 103.48965454 C-23.67020288 100.88887156 -23.66621704 98.28834737 -23.6640625 95.6875 C-23.65763169 93.87198787 -23.65090312 92.05647677 -23.64389038 90.2409668 C-23.63193521 86.44154456 -23.62820791 82.64221315 -23.62939453 78.84277344 C-23.629598 73.98038616 -23.60225885 69.11858149 -23.56785011 64.2563324 C-23.54559103 60.50904678 -23.54155663 56.76190184 -23.54261398 53.01455688 C-23.54025796 51.22203558 -23.53143433 49.42951041 -23.51594925 47.63705444 C-23.4963022 45.12871624 -23.50212085 42.62164078 -23.51416016 40.11328125 C-23.49730164 39.0096373 -23.49730164 39.0096373 -23.48010254 37.88369751 C-23.54199277 32.79658759 -24.82185896 29.93089407 -28 26 C-29.81181015 24.6153646 -31.61977439 23.57222597 -33.609375 22.46875 C-35 21 -35 21 -35.08691406 17.90820312 C-35.05823242 16.94849609 -35.02955078 15.98878906 -35 15 C-34.23856689 14.65219482 -33.47713379 14.30438965 -32.69262695 13.94604492 C-29.84942747 12.64564671 -27.00745117 11.34262088 -24.16625977 10.0378418 C-22.3389764 9.19964504 -20.51031776 8.36444851 -18.68164062 7.52929688 C-17.52470703 6.99755859 -16.36777344 6.46582031 -15.17578125 5.91796875 C-14.11270752 5.43094482 -13.04963379 4.9439209 -11.9543457 4.44213867 C-8.99350828 3.06615389 -8.99350828 3.06615389 -6.36401367 1.31762695 C-4 0 -4 0 0 0 Z " fill="#020202" transform="translate(1042,668)"/>
<path d="M0 0 C-0.00414807 0.88072268 -0.00414807 0.88072268 -0.00837994 1.77923775 C-0.07468014 16.07663697 -0.1243002 30.37402246 -0.15543652 44.67154121 C-0.17089467 51.58577119 -0.19196395 58.49989846 -0.22631836 65.4140625 C-0.25945333 72.0859913 -0.27685113 78.75779131 -0.28463173 85.42980576 C-0.29017691 87.97591711 -0.30100517 90.52202259 -0.31719017 93.06808853 C-0.33895112 96.63292335 -0.3419674 100.19731653 -0.34057617 103.76220703 C-0.351362 104.81597031 -0.36214783 105.86973358 -0.3732605 106.95542908 C-0.35046206 112.35030854 -0.19168743 116.41405904 3 121 C7.94445703 123.811554 12.45879252 124.42677164 18 125 C19 126 19 126 19.125 129 C19 132 19 132 18 133 C16.06693502 133.09396057 14.13041162 133.11743517 12.19506836 133.11352539 C10.33325172 133.11341209 10.33325172 133.11341209 8.43382263 133.11329651 C7.0691626 133.10818911 5.70450298 133.1029731 4.33984375 133.09765625 C2.95121817 133.095792 1.56259193 133.09436813 0.17396545 133.09336853 C-3.48721115 133.08954387 -7.1483483 133.07971403 -10.80950928 133.06866455 C-14.54292263 133.05844932 -18.27634234 133.05387067 -22.00976562 133.04882812 C-29.33986177 133.03809171 -36.66992536 133.02101591 -44 133 C-44.04241723 130.66705225 -44.04092937 128.33297433 -44 126 C-42.32150783 124.32150783 -40.04417425 124.47464688 -37.75 124.125 C-33.59086411 123.40120233 -30.3686228 122.69489824 -27 120 C-25.39605224 116.79210449 -25.83473055 113.29892901 -25.82299805 109.77416992 C-25.81642685 108.92359512 -25.80985565 108.07302032 -25.80308533 107.19667053 C-25.78333304 104.37460243 -25.77168561 101.55258758 -25.76171875 98.73046875 C-25.75764322 97.76767817 -25.7535677 96.80488758 -25.74936867 95.81292152 C-25.72849996 90.7173242 -25.71420156 85.62175388 -25.70483398 80.52612305 C-25.69376624 75.26001096 -25.65936438 69.99432104 -25.61966228 64.72835827 C-25.59353077 60.68173938 -25.58514524 56.63522162 -25.58155251 52.58852577 C-25.57667778 50.64724183 -25.56503868 48.70596266 -25.54651451 46.76476097 C-25.52219609 44.04750387 -25.52307461 41.33134602 -25.5300293 38.61401367 C-25.51721924 37.81226715 -25.50440918 37.01052063 -25.49121094 36.18447876 C-25.53827785 31.13855811 -26.39850499 28.54939886 -30 25 C-31.86125929 23.41620701 -31.86125929 23.41620701 -33.75 22.1875 C-35.35875 21.1046875 -35.35875 21.1046875 -37 20 C-36.765625 17.63671875 -36.765625 17.63671875 -36 15 C-34.234375 13.76953125 -34.234375 13.76953125 -31.75 12.8125 C-27.67569448 11.14402614 -23.69576419 9.39433208 -19.73828125 7.4609375 C-18.8059668 7.00614014 -17.87365234 6.55134277 -16.91308594 6.08276367 C-15.02763185 5.15989881 -13.1441276 4.23303859 -11.26269531 3.30200195 C-10.38323242 2.8762085 -9.50376953 2.45041504 -8.59765625 2.01171875 C-7.80883057 1.62459717 -7.02000488 1.23747559 -6.20727539 0.83862305 C-4 0 -4 0 0 0 Z " fill="#040404" transform="translate(1704,668)"/>
<path d="M0 0 C2.42021406 2.42021406 1.1854949 8.69124913 1.1875 11.9375 C1.19974609 12.94619141 1.21199219 13.95488281 1.22460938 14.99414062 C1.25559719 31.03550083 1.25559719 31.03550083 -3.1875 36.875 C-10.78983195 42.61898414 -18.33082511 46.11299855 -28 45 C-34.52211571 42.61691926 -38.87016751 38.12704497 -42 32 C-42.8246573 26.47999662 -42.74825056 21.5519271 -40.3125 16.5 C-30.81746425 6.23509649 -14.03350327 -0.62371126 0 0 Z " fill="#FAFAFA" transform="translate(536,746)"/>
<path d="M0 0 C4.04628454 2.91833796 6.82633834 6.67817127 8.765625 11.2734375 C9.27501002 14.66755029 9.34010125 17.88460791 8.765625 21.2734375 C4.76383456 24.94174541 -0.01726239 25.40024839 -5.27832031 25.38696289 C-6.27905579 25.38688736 -7.27979126 25.38681183 -8.31085205 25.38673401 C-9.38389587 25.38157272 -10.4569397 25.37641144 -11.5625 25.37109375 C-12.66664246 25.3696788 -13.77078491 25.36826385 -14.90838623 25.36680603 C-18.43374342 25.36121008 -21.95903702 25.34865829 -25.484375 25.3359375 C-27.87499908 25.33092198 -30.26562416 25.32635916 -32.65625 25.32226562 C-38.51564668 25.31124197 -44.3750063 25.29450783 -50.234375 25.2734375 C-48.91257574 16.11067371 -44.38954035 9.97973759 -37.234375 4.2734375 C-26.15069599 -3.17208733 -12.50233591 -6.72835635 0 0 Z " fill="#FCFCFC" transform="translate(945.234375,684.7265625)"/>
<path d="M0 0 C0.33 0 0.66 0 1 0 C1 58.74 1 117.48 1 178 C-127.04 178 -255.08 178 -387 178 C-387 74 -387 74 -384 64 C-383.01 63.505 -383.01 63.505 -382 63 C-382.53980347 66.39305036 -383.16550811 69.66203244 -384 73 C-384.33 106.99 -384.66 140.98 -385 176 C-257.95 176 -130.9 176 0 176 C-0.495 93.83 -0.495 93.83 -1 10 C-5.95 16.435 -5.95 16.435 -11 23 C-20.73913043 30 -20.73913043 30 -24 30 C-24.3403125 30.8971875 -24.3403125 30.8971875 -24.6875 31.8125 C-26.40343593 34.67239321 -28.04133127 35.45634675 -31 37 C-31.67160156 37.36609375 -32.34320312 37.7321875 -33.03515625 38.109375 C-37.20027197 40.31665956 -37.20027197 40.31665956 -39 41 C-39.66 40.67 -40.32 40.34 -41 40 C-35.96903349 35.74098073 -30.78237632 32.21928083 -25 29.0625 C-12.85784931 22.31469953 -4.11539756 13.55894268 0 0 Z " fill="#BF5159" transform="translate(1296,96)"/>
<path d="M0 0 C0.33 0 0.66 0 1 0 C1 58.08 1 116.16 1 176 C-77.31487406 176.63930509 -77.31487406 176.63930509 -101.484375 176.77734375 C-102.83373784 176.7851153 -102.83373784 176.7851153 -104.21036053 176.79304385 C-161.62993894 177.12062887 -219.05072195 177.08180319 -276.47102904 177.06315851 C-278.5062553 177.06249797 -280.54148157 177.06185524 -282.57670784 177.06121445 C-291.97464137 177.05822221 -301.37257462 177.05470052 -310.77050781 177.05078125 C-312.54238661 177.05004482 -312.54238661 177.05004482 -314.35006094 177.04929352 C-338.56671261 177.03882825 -362.78335159 177.0183955 -387 177 C-387 121.56 -387 66.12 -387 9 C-385.02 9.99 -383.04 10.98 -381 12 C-382.32 12.33 -383.64 12.66 -385 13 C-385 66.46 -385 119.92 -385 175 C-257.95 175 -130.9 175 0 175 C0 118.57 0 62.14 0 4 C-0.66 3.67 -1.32 3.34 -2 3 C-1.34 2.01 -0.68 1.02 0 0 Z " fill="#1D6F98" transform="translate(1296,304)"/>
<path d="M0 0 C3.88446678 2.58964452 6.69907021 5.64814041 8.8125 9.875 C9.36963132 15.83201945 9.33430186 20.82708399 5.8125 25.875 C1.60908918 30.10138028 -2.02695419 32.01317147 -8 32.1875 C-12.8536481 32.13098008 -15.46919946 31.15064572 -19.1875 27.875 C-23.62299322 22.959994 -24.66972946 19.01186874 -24.59375 12.515625 C-23.88809016 7.92883604 -21.5472914 4.96778811 -18.1875 1.875 C-12.1638522 -1.69456907 -6.63718377 -2.34253545 0 0 Z " fill="#040404" transform="translate(1697.1875,605.125)"/>
<path d="M0 0 C0.66 0 1.32 0 2 0 C2 56.43 2 112.86 2 171 C-45.52 171 -93.04 171 -142 171 C-142 170.67 -142 170.34 -142 170 C-94.81 170 -47.62 170 1 170 C0.67 115.22 0.34 60.44 0 4 C-2.475 6.475 -2.475 6.475 -5 9 C-9.0197408 12.30410513 -13.3137716 15.72383192 -18 18 C-19.485 17.505 -19.485 17.505 -21 17 C-18.73020646 15.48680431 -16.45116076 14.04603984 -14.125 12.625 C-9.58980017 9.78117268 -5.68678132 6.93842478 -2.3125 2.75 C-1.1678125 1.38875 -1.1678125 1.38875 0 0 Z " fill="#0D70A2" transform="translate(1294,308)"/>
<path d="M0 0 C0.99 0 1.98 0 3 0 C3 58.74 3 117.48 3 178 C2.34 178 1.68 178 1 178 C0.67 119.26 0.34 60.52 0 0 Z " fill="#CEEFFA" transform="translate(1296,302)"/>
<path d="M0 0 C4.17047498 4.93090346 5.34888242 10.87329987 7 17 C7.34611328 18.28390625 7.34611328 18.28390625 7.69921875 19.59375 C15.78529257 55.83771207 -1.53161492 88.94127595 -20.1171875 118.5859375 C-22.23112626 121.89285019 -24.45051811 125.00712996 -27 128 C-27 126.02 -27 124.04 -27 122 C-26.34 122 -25.68 122 -25 122 C-24.566875 121.13375 -24.13375 120.2675 -23.6875 119.375 C-22.125 116.25 -20.5625 113.125 -19 110 C-18.34 110 -17.68 110 -17 110 C-16.71125 109.2575 -16.4225 108.515 -16.125 107.75 C-15.17697356 105.43260203 -14.15154089 103.22082885 -13 101 C-12.34 101 -11.68 101 -11 101 C-10.85304688 100.21109375 -10.85304688 100.21109375 -10.703125 99.40625 C-9.76890277 96.20913393 -8.28181407 93.45706717 -6.75 90.5 C4.75383906 67.82632338 11.57259953 39.63527731 3.85180664 14.51879883 C3.04566348 12.19417678 2.19492566 9.89426927 1.3125 7.59765625 C0 4 0 4 0 0 Z " fill="#B63D44" transform="translate(1148,64)"/>
<path d="M0 0 C6.61831983 2.43076855 10.68369032 6.80955526 14 13 C21.35999956 35.96068239 12.28101585 56.56245898 4 78 C2.87597942 74.17751663 3.33404669 72.21610012 4.6875 68.4375 C5.06132813 67.37402344 5.43515625 66.31054688 5.8203125 65.21484375 C6.55803652 63.20442366 7.30183974 61.19621195 8.0546875 59.19140625 C12.39425509 47.60240599 14.60881174 37.45020006 14 25 C13.9690625 24.21367188 13.938125 23.42734375 13.90625 22.6171875 C13.5519072 18.0993168 12.08983154 14.66281967 9.9375 10.76171875 C9 9 9 9 8 6 C5.525 5.505 5.525 5.505 3 5 C3.08701172 6.16015625 3.08701172 6.16015625 3.17578125 7.34375 C3.58339458 16.75379493 1.47722138 21.01391695 -4.5625 27.9375 C-6.954899 29.96183762 -8.0460065 30.40670321 -11 31 C-10.41992188 30.27296875 -10.41992188 30.27296875 -9.828125 29.53125 C-4.10354679 22.16298102 0.16495885 15.34117312 0.0625 5.8125 C0.04896484 4.18248047 0.04896484 4.18248047 0.03515625 2.51953125 C0.01775391 1.27236328 0.01775391 1.27236328 0 0 Z " fill="#B43C44" transform="translate(994,76)"/>
<path d="M0 0 C0.495 0.99 0.495 0.99 1 2 C-2.61328125 6.6875 -2.61328125 6.6875 -4 8 C-4.99 8 -5.98 8 -7 8 C-7.33 8.99 -7.66 9.98 -8 11 C-10.61365211 12.8449309 -13.22308176 14.09395808 -16.171875 15.3359375 C-20.97962824 17.3760489 -25.58634825 19.80110497 -30.21484375 22.21484375 C-33.80138251 24.04583007 -36.95113159 25.48010639 -41 26 C-41 26.66 -41 27.32 -41 28 C-44.30350614 31.11997802 -45.32409833 32 -50 32 C-50.33 32.99 -50.66 33.98 -51 35 C-51.66 35 -52.32 35 -53 35 C-53.66 36.32 -54.32 37.64 -55 39 C-55.66 39 -56.32 39 -57 39 C-57 39.66 -57 40.32 -57 41 C-57.556875 41.185625 -58.11375 41.37125 -58.6875 41.5625 C-62.06754192 43.66360714 -63.85140381 46.70665994 -66 50 C-66.33 49.34 -66.66 48.68 -67 48 C-55.65048922 32.10316867 -40.97496801 24.38307205 -23.88720703 16.02807617 C-19.17301743 13.68381386 -14.68320197 11.08912327 -10.25 8.25 C-9.67749512 7.88519531 -9.10499023 7.52039063 -8.51513672 7.14453125 C-5.31700649 5.04512746 -2.60154377 2.80360542 0 0 Z " fill="#B73842" transform="translate(982,107)"/>
<path d="M0 0 C5.81261371 1.73982995 10.83169994 3.8110489 16 7 C16 7.33 16 7.66 16 8 C14.02 8 12.04 8 10 8 C10.33 9.32 10.66 10.64 11 12 C10.01 12 9.02 12 8 12 C8.16298584 12.5662207 8.32597168 13.13244141 8.49389648 13.71582031 C9.01684172 16.07601117 9.11396742 18.13282157 9.09765625 20.546875 C9.09443359 21.39121094 9.09121094 22.23554687 9.08789062 23.10546875 C9.07951172 23.97816406 9.07113281 24.85085937 9.0625 25.75 C9.05798828 26.63816406 9.05347656 27.52632812 9.04882812 28.44140625 C9.037074 30.62767329 9.02064249 32.81380179 9 35 C8.01 35.495 8.01 35.495 7 36 C6.97421875 34.76765625 6.9484375 33.5353125 6.921875 32.265625 C6.62360821 22.53405558 5.84268174 14.07742931 2 5 C1.33293539 3.33349257 0.6661516 1.6668726 0 0 Z " fill="#BB333D" transform="translate(1107,28)"/>
<path d="M0 0 C0.66 0.99 1.32 1.98 2 3 C3.32 2.67 4.64 2.34 6 2 C3.21269957 7.1286328 0.06195944 11.86232058 -3.31640625 16.62109375 C-5.26817674 19.37893187 -7.14321582 22.17768804 -9 25 C-10.35180538 20.94458385 -8.88771744 18.5026159 -7.3125 14.75 C-7.05533203 14.10675781 -6.79816406 13.46351563 -6.53320312 12.80078125 C-4.69194006 8.3039373 -2.48285948 4.17596409 0 0 Z " fill="#FCE2E3" transform="translate(1124,187)"/>
<path d="M0 0 C1.84851083 2.77276624 2.5205764 4.39992766 3.25 7.5625 C3.44078125 8.34753906 3.6315625 9.13257813 3.828125 9.94140625 C3.88484375 10.62074219 3.9415625 11.30007813 4 12 C3.34 12.66 2.68 13.32 2 14 C0.03177114 12.03177114 0.33751619 8.65191291 0 6 C-2.36913032 5.76483608 -2.36913032 5.76483608 -4.57421875 8.5625 C-5.6173501 9.70344596 -6.65478564 10.84961669 -7.6875 12 C-8.22987305 12.59288818 -8.77224609 13.18577637 -9.33105469 13.79663086 C-12.23272521 16.98144406 -15.02206198 20.22694702 -17.75 23.5625 C-21.03135169 27.36790048 -24.32712425 29.17837047 -29 31 C-29.66 30.67 -30.32 30.34 -31 30 C-30.09378906 29.31035156 -29.18757813 28.62070312 -28.25390625 27.91015625 C-17.43658148 19.6000106 -8.32668741 10.86780182 0 0 Z " fill="#20719B" transform="translate(1142,296)"/>
<path d="M0 0 C0.33 0 0.66 0 1 0 C1.04898437 0.82242187 1.09796875 1.64484375 1.1484375 2.4921875 C1.6161944 9.47628184 2.41439227 16.18034735 4 23 C3.01 22.67 2.02 22.34 1 22 C0.34 17.38 -0.32 12.76 -1 8 C-2.051875 8.928125 -3.10375 9.85625 -4.1875 10.8125 C-6.29808302 12.63006445 -8.22313879 14.13282071 -10.625 15.5625 C-13.54006183 17.32687953 -15.66692501 19.53360643 -18 22 C-18.66 21.67 -19.32 21.34 -20 21 C-19.57178955 20.57702637 -19.1435791 20.15405273 -18.70239258 19.71826172 C-16.73638357 17.77322701 -14.77442705 15.82415171 -12.8125 13.875 C-12.13896484 13.20984375 -11.46542969 12.5446875 -10.77148438 11.859375 C-7.73587964 8.8385781 -4.78498109 5.82627723 -2.07421875 2.5078125 C-1.38972656 1.68023437 -0.70523437 0.85265625 0 0 Z " fill="#156D9C" transform="translate(1069,292)"/>
<path d="M0 0 C0 0.99 0 1.98 0 3 C-1.98 3.99 -1.98 3.99 -4 5 C-4 5.99 -4 6.98 -4 8 C-8.09746542 12.53701171 -12.85718882 16.40943308 -17.4765625 20.40234375 C-20.1151981 23.11858627 -21.42244555 25.58666046 -23 29 C-24.62339805 30.70884005 -26.29319053 32.37446717 -28 34 C-29.7132661 35.9653543 -31.35371945 37.97742676 -33 40 C-33 29.69334806 -15.11525092 14.05067468 -8.0625 6.875 C-5.51046899 4.4042837 -2.8333375 2.1464678 0 0 Z " fill="#B73B43" transform="translate(1155,163)"/>
<path d="M0 0 C0.66 0.33 1.32 0.66 2 1 C-0.625 4.875 -0.625 4.875 -4 6 C-4.33 6.66 -4.66 7.32 -5 8 C-5.804375 8.309375 -6.60875 8.61875 -7.4375 8.9375 C-10.29863959 9.84547289 -10.29863959 9.84547289 -12 13 C-13.175625 13.33 -14.35125 13.66 -15.5625 14 C-16.696875 14.33 -17.83125 14.66 -19 15 C-19.33 15.99 -19.66 16.98 -20 18 C-20.66 18 -21.32 18 -22 18 C-22.33 18.66 -22.66 19.32 -23 20 C-30.38652064 22.55687253 -38.29855573 22.21728213 -46 22 C-46 21.67 -46 21.34 -46 21 C-44.90945313 20.97873047 -44.90945313 20.97873047 -43.796875 20.95703125 C-27.17011074 20.16832577 -12.34800937 10.70415673 0 0 Z " fill="#2779A2" transform="translate(969,298)"/>
<path d="M0 0 C0.66 0.33 1.32 0.66 2 1 C-3.57023313 9.37598018 -8.73249548 15.50090379 -18 20 C-18.66 20 -19.32 20 -20 20 C-20.226875 20.598125 -20.45375 21.19625 -20.6875 21.8125 C-22.40343593 24.67239321 -24.04133127 25.45634675 -27 27 C-27.67160156 27.36609375 -28.34320312 27.7321875 -29.03515625 28.109375 C-33.20027197 30.31665956 -33.20027197 30.31665956 -35 31 C-35.66 30.67 -36.32 30.34 -37 30 C-31.96932627 25.74122859 -26.78318707 22.21746079 -21 19.0625 C-12.16935774 14.18573556 -5.47937487 8.48419335 0 0 Z " fill="#BC303B" transform="translate(1292,106)"/>
<path d="M0 0 C0.33 0 0.66 0 1 0 C1 1.65 1 3.3 1 5 C2.65 4.34 4.3 3.68 6 3 C6 2.34 6 1.68 6 1 C6.66 1.33 7.32 1.66 8 2 C7.06027344 3.73636719 7.06027344 3.73636719 6.1015625 5.5078125 C5.27579507 7.04674271 4.45028797 8.58581262 3.625 10.125 C3.2125 10.88554687 2.8 11.64609375 2.375 12.4296875 C0.17497794 16.5458578 -1.69018349 20.49480694 -3 25 C-3.33 25 -3.66 25 -4 25 C-4.75214626 16.1204955 -2.51122918 8.40813341 0 0 Z " fill="#FEE3E4" transform="translate(997,154)"/>
<path d="M0 0 C0.33 0 0.66 0 1 0 C0.71311275 7.00004889 -0.50404312 11.91026866 -4 18 C-4.66 18 -5.32 18 -6 18 C-6.33 19.65 -6.66 21.3 -7 23 C-7.99 23.33 -8.98 23.66 -10 24 C-11.21869929 26.50447516 -11.21869929 26.50447516 -12 29 C-13.32 29 -14.64 29 -16 29 C-16.66 30.32 -17.32 31.64 -18 33 C-19.32 32.67 -20.64 32.34 -22 32 C-21.13117188 31.24976562 -20.26234375 30.49953125 -19.3671875 29.7265625 C-9.45264975 20.99499305 -3.17581552 13.09327453 0 0 Z " fill="#BD3039" transform="translate(1113,64)"/>
<path d="M0 0 C0.66 0 1.32 0 2 0 C1.81824219 0.53367188 1.63648438 1.06734375 1.44921875 1.6171875 C-0.49396629 7.37698726 -2.27589234 13.1708741 -4 19 C-2.35 16.36 -0.7 13.72 1 11 C2 14 2 14 1.109375 16.0078125 C0.66078125 16.70648438 0.2121875 17.40515625 -0.25 18.125 C-0.68828125 18.82882813 -1.1265625 19.53265625 -1.578125 20.2578125 C-3 22 -3 22 -6 23 C-7.56454159 18.97985339 -6.46223974 15.30074319 -5.5625 11.25 C-5.41490234 10.55261719 -5.26730469 9.85523438 -5.11523438 9.13671875 C-4.75131967 7.4227979 -4.37670932 5.71115419 -4 4 C-2.68 3.67 -1.36 3.34 0 3 C0 2.01 0 1.02 0 0 Z " fill="#BB3037" transform="translate(1119,192)"/>
<path d="M0 0 C0.33 0 0.66 0 1 0 C2.93192789 12.54796728 2.93192789 12.54796728 -0.125 17.5 C-1.53515625 19.34765625 -1.53515625 19.34765625 -3 21 C-4.2684375 22.4540625 -4.2684375 22.4540625 -5.5625 23.9375 C-7.954899 25.96183762 -9.0460065 26.40670321 -12 27 C-11.41992188 26.27296875 -11.41992188 26.27296875 -10.828125 25.53125 C-4.42704848 17.29224062 -1.44989236 10.37817689 0 0 Z " fill="#BA343C" transform="translate(995,80)"/>
<path d="M0 0 C1.65 0 3.3 0 5 0 C5 9.24 5 18.48 5 28 C4.67 28 4.34 28 4 28 C3.22471521 24.57426063 2.88081222 21.42760755 2.90234375 17.91796875 C2.90556641 16.98662109 2.90878906 16.05527344 2.91210938 15.09570312 C2.92048828 14.13599609 2.92886719 13.17628906 2.9375 12.1875 C2.94201172 11.20845703 2.94652344 10.22941406 2.95117188 9.22070312 C2.96291316 6.81373889 2.97933581 4.40690143 3 2 C2.21625 2.66 1.4325 3.32 0.625 4 C-2 6 -2 6 -4 6 C-4 2.99472353 -2.05564773 2.05564773 0 0 Z " fill="#C5EBF6" transform="translate(973,292)"/>
<path d="M0 0 C0.83660156 0.48984375 1.67320312 0.9796875 2.53515625 1.484375 C6.47657871 3.20846961 9.15731371 3.33761896 13.4375 3.25 C14.69433594 3.23453125 15.95117188 3.2190625 17.24609375 3.203125 C20.9054477 3.00511625 24.38603073 2.57823508 28 2 C27.0859375 3.97265625 27.0859375 3.97265625 25 6 C21.8743122 6.60711981 18.79862043 6.51136054 15.625 6.4375 C14.77421875 6.44458984 13.9234375 6.45167969 13.046875 6.45898438 C8.28106658 6.41073242 4.79136201 6.20981844 1 3 C0.67 2.01 0.34 1.02 0 0 Z " fill="#1C739F" transform="translate(986,337)"/>
<path d="M0 0 C0.99 0.495 0.99 0.495 2 1 C2.43158861 3.51760023 2.74984125 5.96344718 3 8.5 C3.89506117 19.26108274 3.89506117 19.26108274 8 29 C7.625 31.1875 7.625 31.1875 7 33 C1.05136164 22.33347604 -0.52856676 12.13745891 0 0 Z " fill="#D8F6FB" transform="translate(1070,292)"/>
<path d="M0 0 C-1.9151579 0.81604999 -3.83218834 1.62770632 -5.75 2.4375 C-6.81734375 2.88996094 -7.8846875 3.34242188 -8.984375 3.80859375 C-16.70617409 6.85930453 -25.2572083 7.34823425 -33 4 C-28.4532642 2.46473856 -23.65536237 3.01567675 -18.93164062 3.21484375 C-14.34583973 3.30939635 -11.70865157 2.68604544 -8 0 C-4.89511676 -1.12904845 -3.1396677 -0.86161359 0 0 Z " fill="#C9ECF6" transform="translate(1282,321)"/>
<path d="M0 0 C0 4.61375948 -2.85168629 6.83724448 -6 10 C-10.50937387 13.62710507 -14.44094562 14.84985082 -20 16 C-17.49183145 13.29889541 -14.68690985 11.25736053 -11.6875 9.125 C-7.64748059 6.22090117 -3.76207123 3.25368323 0 0 Z " fill="#1B739E" transform="translate(1212,310)"/>
<path d="M0 0 C0 0.99 0 1.98 0 3 C-2.37109375 4.97265625 -2.37109375 4.97265625 -5.4375 7.0625 C-9.33177834 9.48320475 -9.33177834 9.48320475 -12 13 C-14.31979381 14.03101947 -16.65429915 15.02936517 -19 16 C-19.99 16.66 -20.98 17.32 -22 18 C-24.1875 17.625 -24.1875 17.625 -26 17 C-25.12859375 16.52691406 -24.2571875 16.05382812 -23.359375 15.56640625 C-15.03159191 10.96884945 -7.46337446 5.90508748 0 0 Z " fill="#21729B" transform="translate(1040,321)"/>
<path d="M0 0 C1.19326733 4.19952926 1.0267867 8.23477342 0.9375 12.5625 C0.85250162 19.58761643 1.30893928 26.14516459 3 33 C2.01 33.495 2.01 33.495 1 34 C-0.78101897 27.16341143 -1.25249204 20.98388717 -1.125 13.9375 C-1.11597656 12.97650391 -1.10695313 12.01550781 -1.09765625 11.02539062 C-1.07435208 8.68332195 -1.04164058 6.34180208 -1 4 C-1.99 3.67 -2.98 3.34 -4 3 C-2.68 2.01 -1.36 1.02 0 0 Z " fill="#277299" transform="translate(976,293)"/>
<path d="M0 0 C1.90941111 2.86411667 3.20438681 5.62306371 4.625 8.75 C7.50993916 14.61935897 10.83499339 18.11461214 16 22 C16.66 22.66 17.32 23.32 18 24 C15.02901177 23.8618145 12.78174052 23.7414883 10.55859375 21.6328125 C9.34081797 20.11331914 8.16835853 18.55781137 7 17 C6.34 16.67 5.68 16.34 5 16 C5 14.68 5 13.36 5 12 C4.34 12 3.68 12 3 12 C2.49166409 10.75336669 1.99368855 9.50250613 1.5 8.25 C1.2215625 7.55390625 0.943125 6.8578125 0.65625 6.140625 C0 4 0 4 0 0 Z " fill="#1D6F9B" transform="translate(1146,309)"/>
<path d="M0 0 C0.66 0.33 1.32 0.66 2 1 C-3.92802203 10.19073183 -9.89542241 16.43336881 -20 21 C-20.66 20.67 -21.32 20.34 -22 20 C-21.35933594 19.56429687 -20.71867187 19.12859375 -20.05859375 18.6796875 C-12.02122632 13.14576238 -5.40554403 8.19021823 0 0 Z " fill="#B43742" transform="translate(1292,106)"/>
<path d="M0 0 C0.99 0.33 1.98 0.66 3 1 C-2.03034386 6.23566402 -6.92929095 10.99591531 -13 15 C-13 13.68 -13 12.36 -13 11 C-12.01 11 -11.02 11 -10 11 C-9.6596875 10.1646875 -9.6596875 10.1646875 -9.3125 9.3125 C-7.61382022 6.31958801 -5.57927313 4.26472763 -3 2 C-2.01 2 -1.02 2 0 2 C0 1.34 0 0.68 0 0 Z " fill="#D7F3FB" transform="translate(1054,305)"/>
<path d="M0 0 C1 3 1 3 -0.3125 5.6875 C-0.869375 6.450625 -1.42625 7.21375 -2 8 C-2.66 8 -3.32 8 -4 8 C-4.185625 8.5775 -4.37125 9.155 -4.5625 9.75 C-6.74569692 13.16717779 -9.36059284 14.24528583 -13 16 C-13.66 15.67 -14.32 15.34 -15 15 C-14.33613281 14.41992188 -13.67226562 13.83984375 -12.98828125 13.2421875 C-8.26794615 9.06624141 -3.84575655 4.99948351 0 0 Z " fill="#BC303B" transform="translate(1171,147)"/>
<path d="M0 0 C0.33 0 0.66 0 1 0 C1.45454996 6.25006194 0.59736535 11.85837675 -0.75 17.9375 C-0.98541504 19.07433228 -0.98541504 19.07433228 -1.22558594 20.23413086 C-2.49540749 25.64549614 -2.49540749 25.64549614 -5.140625 27.50390625 C-6.06101562 27.74947266 -6.06101562 27.74947266 -7 28 C-6.5625 26.54166667 -6.125 25.08333333 -5.6875 23.625 C-5.41550781 22.71234375 -5.14351562 21.7996875 -4.86328125 20.859375 C-4.31167316 19.03232919 -3.747756 17.20892493 -3.16796875 15.390625 C-1.54178953 10.2317116 -0.49899503 5.38914637 0 0 Z " fill="#B93F48" transform="translate(1188,106)"/>
<path d="M0 0 C0.33 0.66 0.66 1.32 1 2 C-0.6029053 2.81498562 -2.20737278 3.62689927 -3.8125 4.4375 C-4.70582031 4.88996094 -5.59914063 5.34242188 -6.51953125 5.80859375 C-10.95009273 7.93665871 -14.30330727 8.10730911 -19.1875 8.0625 C-20.45980469 8.05347656 -21.73210937 8.04445313 -23.04296875 8.03515625 C-24.50669922 8.01775391 -24.50669922 8.01775391 -26 8 C-26 7.67 -26 7.34 -26 7 C-25.12859375 6.91363281 -24.2571875 6.82726562 -23.359375 6.73828125 C-14.84104186 5.73341295 -7.7282921 3.70844786 0 0 Z " fill="#25759C" transform="translate(1190,326)"/>
<path d="M0 0 C0.33 0 0.66 0 1 0 C1 1.65 1 3.3 1 5 C2.65 4.34 4.3 3.68 6 3 C6 2.34 6 1.68 6 1 C6.66 1.33 7.32 1.66 8 2 C5.69 6.29 3.38 10.58 1 15 C0.67 15 0.34 15 0 15 C-0.125 10.25 -0.125 10.25 1 8 C0.34 7.67 -0.32 7.34 -1 7 C-0.67 4.69 -0.34 2.38 0 0 Z " fill="#FADBDD" transform="translate(997,154)"/>
<path d="M0 0 C0.33 0 0.66 0 1 0 C0.71311275 7.00004889 -0.50404312 11.91026866 -4 18 C-4.66 18 -5.32 18 -6 18 C-6.66 19.32 -7.32 20.64 -8 22 C-8.99 22 -9.98 22 -11 22 C-10.54109375 21.41734375 -10.0821875 20.8346875 -9.609375 20.234375 C-4.81379459 13.82683478 -2.12865225 7.69487956 0 0 Z " fill="#B63941" transform="translate(1113,64)"/>
<path d="M0 0 C0.33 0.66 0.66 1.32 1 2 C0 5 0 5 -2.25 6.6875 C-7.02564075 10.70337972 -9.97933272 16.12169518 -12 22 C-12.66 22 -13.32 22 -14 22 C-12.64231256 17.14901946 -10.47162629 13.36835781 -7.5625 9.3125 C-6.96985352 8.46075195 -6.96985352 8.46075195 -6.36523438 7.59179688 C-4.42707089 4.84095918 -2.4937321 2.26921603 0 0 Z " fill="#B43C45" transform="translate(1247,143)"/>
<path d="M0 0 C0.66 0.33 1.32 0.66 2 1 C-3.4529148 9.43497758 -3.4529148 9.43497758 -7.24609375 10.8203125 C-9.4375 11.0625 -9.4375 11.0625 -13 11 C-9.0299782 6.78185183 -4.69159716 3.38772897 0 0 Z " fill="#BC353F" transform="translate(1036,124)"/>
<path d="M0 0 C1.84851083 2.77276624 2.5205764 4.39992766 3.25 7.5625 C3.44078125 8.34753906 3.6315625 9.13257813 3.828125 9.94140625 C3.88484375 10.62074219 3.9415625 11.30007813 4 12 C3.34 12.66 2.68 13.32 2 14 C0.03177114 12.03177114 0.33751619 8.65191291 0 6 C-2.12364481 5.77390663 -2.12364481 5.77390663 -3.625 7.5 C-4.07875 7.995 -4.5325 8.49 -5 9 C-5.66 8.67 -6.32 8.34 -7 8 C-4.69 5.36 -2.38 2.72 0 0 Z " fill="#2779A3" transform="translate(1142,296)"/>
<path d="M0 0 C0.66 0 1.32 0 2 0 C0.39369175 4.24292532 -1.5768162 8.27025107 -3.625 12.3125 C-4.11226562 13.28026367 -4.11226562 13.28026367 -4.609375 14.26757812 C-5.40441956 15.84597541 -6.20195634 17.42311694 -7 19 C-7.33 19 -7.66 19 -8 19 C-8 16.03 -8 13.06 -8 10 C-6.68 9.67 -5.36 9.34 -4 9 C-3.896875 8.2575 -3.79375 7.515 -3.6875 6.75 C-2.95066203 3.8026481 -2.05200858 2.21616926 0 0 Z " fill="#FBD1D4" transform="translate(1238,151)"/>
<path d="M0 0 C0.33 0 0.66 0 1 0 C1.04898437 0.82242187 1.09796875 1.64484375 1.1484375 2.4921875 C1.6161944 9.47628184 2.41439227 16.18034735 4 23 C3.01 22.67 2.02 22.34 1 22 C0.10395632 15.95170514 -0.11269443 10.1105424 0 4 C-1.32 4.33 -2.64 4.66 -4 5 C-2.69254251 3.31295807 -1.35827971 1.64639965 0 0 Z " fill="#30769A" transform="translate(1069,292)"/>
<path d="M0 0 C1 3 1 3 0.109375 5.0078125 C-0.33921875 5.70648438 -0.7878125 6.40515625 -1.25 7.125 C-1.68828125 7.82882813 -2.1265625 8.53265625 -2.578125 9.2578125 C-4 11 -4 11 -7 12 C-8.0326802 9.21176345 -8.04509293 8.1322726 -7.0625 5.25 C-6.711875 4.5075 -6.36125 3.765 -6 3 C-5 6 -5 6 -5 8 C-3.35 5.36 -1.7 2.72 0 0 Z " fill="#BF3B43" transform="translate(1120,203)"/>
<path d="M0 0 C0.33 0.99 0.66 1.98 1 3 C-0.0390625 4.61328125 -0.0390625 4.61328125 -1.625 6.3125 C-2.17671875 6.91835937 -2.7284375 7.52421875 -3.296875 8.1484375 C-3.85890625 8.75945312 -4.4209375 9.37046875 -5 10 C-5.96555571 11.13975391 -6.92463655 12.28504778 -7.875 13.4375 C-8.57625 14.283125 -9.2775 15.12875 -10 16 C-10 12.00908575 -8.49620157 10.60613412 -6.125 7.4375 C-5.40570312 6.46683594 -4.68640625 5.49617187 -3.9453125 4.49609375 C-2 2 -2 2 0 0 Z " fill="#B73942" transform="translate(1015,142)"/>
<path d="M0 0 C2.67055431 1.00987348 3.80669101 1.66827223 5.265625 4.171875 C7.07667279 8.9150954 8.5444976 12.82727284 8 18 C6.09387022 14.33578935 4.48877043 10.54892369 2.875 6.75 C2.59785156 6.1003125 2.32070312 5.450625 2.03515625 4.78125 C1.35566896 3.18796947 0.67768372 1.5940485 0 0 Z " fill="#FCDCDC" transform="translate(1146,59)"/>
<path d="M0 0 C-1.91040052 0.8680908 -3.82860737 1.71901783 -5.75 2.5625 C-6.81734375 3.03816406 -7.8846875 3.51382812 -8.984375 4.00390625 C-11.98369837 4.9946154 -13.13421241 5.16161779 -16 4 C-14.75264433 3.3490741 -13.50198168 2.70448331 -12.25 2.0625 C-11.55390625 1.70285156 -10.8578125 1.34320313 -10.140625 0.97265625 C-6.36979384 -0.74073236 -4.00166914 -1.2862508 0 0 Z " fill="#D7F6FB" transform="translate(1282,321)"/>
<path d="M0 0 C0.99 0.33 1.98 0.66 3 1 C0.36 3.64 -2.28 6.28 -5 9 C-5.33 7.68 -5.66 6.36 -6 5 C-5.34 5 -4.68 5 -4 5 C-4 4.34 -4 3.68 -4 3 C-2.1875 1.3125 -2.1875 1.3125 0 0 Z " fill="#D8F6FD" transform="translate(1129,308)"/>
<path d="M0 0 C0.763125 0.474375 1.52625 0.94875 2.3125 1.4375 C6.89111612 3.7764557 11.9528922 3.73956205 17 4 C17 4.33 17 4.66 17 5 C14.72975032 5.08097324 12.45867925 5.13917704 10.1875 5.1875 C8.29064453 5.23970703 8.29064453 5.23970703 6.35546875 5.29296875 C3 5 3 5 1.05078125 3.61328125 C0 2 0 2 0 0 Z " fill="#3A85AA" transform="translate(986,337)"/>
<path d="M0 0 C1.31625194 2.63250388 0.74813658 3.80179056 0.0625 6.625 C-0.13214844 7.44226563 -0.32679688 8.25953125 -0.52734375 9.1015625 C-0.68332031 9.72804687 -0.83929687 10.35453125 -1 11 C-1.66 11 -2.32 11 -3 11 C-3.36923077 4.6 -3.36923077 4.6 -1.5 1.5625 C-1.005 1.046875 -0.51 0.53125 0 0 Z " fill="#BC2A30" transform="translate(997,148)"/>
<path d="M0 0 C0.99 0.33 1.98 0.66 3 1 C-1.455 4.465 -1.455 4.465 -6 8 C-6.33 7.01 -6.66 6.02 -7 5 C-6.360625 4.896875 -5.72125 4.79375 -5.0625 4.6875 C-4.381875 4.460625 -3.70125 4.23375 -3 4 C-2.67 3.01 -2.34 2.02 -2 1 C-1.34 0.67 -0.68 0.34 0 0 Z " fill="#D8F6FB" transform="translate(1207,312)"/>
<path d="M0 0 C0 3.58912412 -0.66436554 4.10857029 -3 6.6875 C-3.556875 7.31011719 -4.11375 7.93273437 -4.6875 8.57421875 C-5.120625 9.04472656 -5.55375 9.51523437 -6 10 C-7.32 9.67 -8.64 9.34 -10 9 C-6.7 6.03 -3.4 3.06 0 0 Z " fill="#21729A" transform="translate(1223,300)"/>
<path d="M0 0 C0.33 0.99 0.66 1.98 1 3 C-0.98 4.32 -2.96 5.64 -5 7 C-5.66 6.67 -6.32 6.34 -7 6 C-4.69 4.02 -2.38 2.04 0 0 Z " fill="#21759F" transform="translate(1048,314)"/>
<path d="M0 0 C1.71017726 2.5652659 2.90417811 4.87960965 4.125 7.6875 C4.47820312 8.49574219 4.83140625 9.30398438 5.1953125 10.13671875 C5.46085937 10.75160156 5.72640625 11.36648438 6 12 C5.01 12 4.02 12 3 12 C2.49166409 10.75336669 1.99368855 9.50250613 1.5 8.25 C1.2215625 7.55390625 0.943125 6.8578125 0.65625 6.140625 C0 4 0 4 0 0 Z " fill="#2F7AA2" transform="translate(1146,309)"/>
<path d="M0 0 C0.78375 0.04125 1.5675 0.0825 2.375 0.125 C0.83691023 3.20117954 -1.74596091 4.36232301 -4.625 6.125 C-5.285 6.125 -5.945 6.125 -6.625 6.125 C-6.625 2.46914342 -3.41868273 0.16279442 0 0 Z " fill="#D8F2F8" transform="translate(975.625,291.875)"/>
<path d="M0 0 C0.33 0.66 0.66 1.32 1 2 C-0.11575573 5.34726719 -0.51344622 5.62079748 -3.4375 7.25 C-4.613125 7.8275 -5.78875 8.405 -7 9 C-7.66 8.67 -8.32 8.34 -9 8 C-6.03 5.36 -3.06 2.72 0 0 Z " fill="#B33D44" transform="translate(1165,154)"/>
<path d="M0 0 C1.60226148 4.00565371 0.47694566 7.08609399 -1 11 C-1.99 11.33 -2.98 11.66 -4 12 C-2.66666667 8 -1.33333333 4 0 0 Z " fill="#FCDDDE" transform="translate(1150,139)"/>
<path d="M0 0 C0.12375 0.61875 0.2475 1.2375 0.375 1.875 C0.87197356 4.19120832 0.87197356 4.19120832 3 6 C1.33333333 7.66666667 -0.33333333 9.33333333 -2 11 C-3.13643966 7.59068103 -2.86747764 6.99664544 -1.5625 3.8125 C-1.13130859 2.73935547 -1.13130859 2.73935547 -0.69140625 1.64453125 C-0.46324219 1.10183594 -0.23507812 0.55914062 0 0 Z " fill="#FBE0E1" transform="translate(1005,132)"/>
<path d="M0 0 C0.99 0.33 1.98 0.66 3 1 C-0.465 3.97 -0.465 3.97 -4 7 C-4.33 6.01 -4.66 5.02 -5 4 C-2.6875 1.9375 -2.6875 1.9375 0 0 Z " fill="#FCE1E2" transform="translate(1154,161)"/>
<path d="M0 0 C0.66 0 1.32 0 2 0 C0.6302836 3.99500618 -1.25722422 6.80009492 -4 10 C-4.4025937 6.47730515 -4.13372795 5.20059192 -2.125 2.1875 C-1.42375 1.465625 -0.7225 0.74375 0 0 Z " fill="#FCDEDD" transform="translate(1238,151)"/>
<path d="M0 0 C0.66 0.33 1.32 0.66 2 1 C1.04663979 2.31611677 0.08714226 3.62778961 -0.875 4.9375 C-1.40867187 5.66839844 -1.94234375 6.39929688 -2.4921875 7.15234375 C-4 9 -4 9 -6 10 C-4.34832443 6.4213696 -2.21713508 3.25179812 0 0 Z " fill="#FDDFE2" transform="translate(990,95)"/>
<path d="M0 0 C2.0343459 1.41519715 2.90410393 2.54982123 3.421875 4.98046875 C3.66273952 6.98176954 3.83532741 8.9909944 4 11 C0.85041169 7.57653445 0.43820891 4.55737263 0 0 Z " fill="#E0FCFD" transform="translate(978,320)"/>
<path d="M0 0 C0.33 1.32 0.66 2.64 1 4 C-1.97 6.475 -1.97 6.475 -5 9 C-5.66 8.67 -6.32 8.34 -7 8 C-4.69 5.36 -2.38 2.72 0 0 Z " fill="#2D7498" transform="translate(1142,296)"/>
<path d="M0 0 C-6.75 4 -6.75 4 -9 4 C-8 1 -8 1 -5.625 -0.25 C-3 -1 -3 -1 0 0 Z " fill="#CBEFF7" transform="translate(1021,335)"/>
<path d="M0 0 C-0.625 1.9375 -0.625 1.9375 -2 4 C-5.125 4.75 -5.125 4.75 -8 5 C-3.16129032 0 -3.16129032 0 0 0 Z " fill="#1B719A" transform="translate(1111,327)"/>
<path d="M0 0 C0.66 0.33 1.32 0.66 2 1 C0.60667426 4.36720387 -0.9789286 5.9859524 -4 8 C-4 6.68 -4 5.36 -4 4 C-3.01 4 -2.02 4 -1 4 C-0.67 2.68 -0.34 1.36 0 0 Z " fill="#E5FCFD" transform="translate(1045,312)"/>
<path d="M0 0 C0.66 0.33 1.32 0.66 2 1 C0.35 2.98 -1.3 4.96 -3 7 C-3.33 5.68 -3.66 4.36 -4 3 C-2.68 2.01 -1.36 1.02 0 0 Z " fill="#CFF0F6" transform="translate(1222,298)"/>
<path d="M0 0 C-5.625 3 -5.625 3 -9 3 C-8.67 2.01 -8.34 1.02 -8 0 C-5.04215769 -1.22393475 -3.00272755 -0.96516243 0 0 Z " fill="#FBDBDA" transform="translate(959,124)"/>
<path d="M0 0 C0.66 0.66 1.32 1.32 2 2 C1.65071808 5.60924648 0.72887752 6.27112248 -2 9 C-1.34 6.03 -0.68 3.06 0 0 Z " fill="#FBC7CB" transform="translate(1116,203)"/>
<path d="M0 0 C0.33 0 0.66 0 1 0 C1 2.64 1 5.28 1 8 C-0.32 8.33 -1.64 8.66 -3 9 C-2.01 6.03 -1.02 3.06 0 0 Z " fill="#A04249" transform="translate(1296,96)"/>
<path d="M0 0 C3.37503669 1.1858237 5.64722731 2.27573689 8 5 C5.36 4.67 2.72 4.34 0 4 C0 2.68 0 1.36 0 0 Z " fill="#A84249" transform="translate(1188,79)"/>
</svg>
