<?xml version="1.0" encoding="UTF-8"?>
<svg version="1.1" xmlns="http://www.w3.org/2000/svg" width="460" height="170">
<path d="M0 0 C151.8 0 303.6 0 460 0 C460 56.1 460 112.2 460 170 C308.2 170 156.4 170 0 170 C0 113.9 0 57.8 0 0 Z " fill="#FCFCFC" transform="translate(0,0)"/>
<path d="M0 0 C11.88 0 23.76 0 36 0 C36 31.35 36 62.7 36 95 C24.12 95 12.24 95 0 95 C0 85.43 0 75.86 0 66 C-9.57 66 -19.14 66 -29 66 C-29 63.69 -29 61.38 -29 59 C-17.45 59 -5.9 59 6 59 C6 68.57 6 78.14 6 88 C13.59 88 21.18 88 29 88 C29 61.27 29 34.54 29 7 C19.43 7 9.86 7 0 7 C0 4.69 0 2.38 0 0 Z " fill="#101010" transform="translate(63,49)"/>
<path d="M0 0 C11.88 0 23.76 0 36 0 C36 9.57 36 19.14 36 29 C45.57 29 55.14 29 65 29 C65 30.98 65 32.96 65 35 C53.45 35 41.9 35 30 35 C30 25.43 30 15.86 30 6 C22.41 6 14.82 6 7 6 C7 32.73 7 59.46 7 87 C16.57 87 26.14 87 36 87 C36 89.31 36 91.62 36 94 C24.12 94 12.24 94 0 94 C0 62.98 0 31.96 0 0 Z " fill="#0C0C0C" transform="translate(4,50)"/>
<path d="M0 0 C1.98 0 3.96 0 6 0 C6 9.9 6 19.8 6 30 C6.66 30 7.32 30 8 30 C8.33 29.01 8.66 28.02 9 27 C14.80994062 23.58981746 20.35987282 23.27671837 27 24 C32.67458259 25.89152753 36.32628019 29.65256038 39 35 C39.08705146 37.98970289 39.11550145 40.95584955 39.09765625 43.9453125 C39.0962413 44.8303244 39.09482635 45.7153363 39.09336853 46.62716675 C39.0877614 49.45981191 39.07520771 52.29237864 39.0625 55.125 C39.05748592 57.04296761 39.05292285 58.96093646 39.04882812 60.87890625 C39.03778966 65.58596782 39.02052025 70.2929706 39 75 C37.02 75 35.04 75 33 75 C32.98598145 73.36587158 32.98598145 73.36587158 32.97167969 71.69873047 C32.93167019 67.63923946 32.86588171 63.58049759 32.79248047 59.52148438 C32.76433416 57.76800188 32.74308815 56.01439401 32.72900391 54.26074219 C32.70748573 51.73307401 32.66079298 49.20690316 32.609375 46.6796875 C32.60814636 45.90132538 32.60691772 45.12296326 32.60565186 44.3210144 C32.46725947 39.12522145 31.40394277 36.13948006 28 32 C24.09283342 29.35691673 19.90332969 29.76740233 15.37890625 30.3203125 C11.37911312 31.46311054 10.15967699 33.51665001 8 37 C6.77681134 40.66956597 6.76883876 44.12321003 6.68359375 47.94921875 C6.66281265 48.72183548 6.64203156 49.49445221 6.62062073 50.29048157 C6.55528962 52.7560648 6.49631685 55.22175361 6.4375 57.6875 C6.39429913 59.36003691 6.35068434 61.03256319 6.30664062 62.70507812 C6.1996251 66.8032775 6.09831143 70.90158296 6 75 C4.02 75 2.04 75 0 75 C0 50.25 0 25.5 0 0 Z " fill="#030303" transform="translate(269,25)"/>
<path d="M0 0 C1.98 0 3.96 0 6 0 C6.33 9.57 6.66 19.14 7 29 C8.65 27.68 10.3 26.36 12 25 C17.89337991 23.03554003 24.62481701 23.0137304 30.375 25.5 C34.64675494 28.10819767 36.96522285 31.46692434 39 36 C39.61121767 39.13431697 39.58948964 42.12881004 39.48828125 45.3125 C39.48120651 46.16682617 39.47413177 47.02115234 39.46684265 47.90136719 C39.43908893 50.60184255 39.37639149 53.30016274 39.3125 56 C39.28739232 57.84241775 39.2645835 59.68486834 39.24414062 61.52734375 C39.18932539 66.01904619 39.10319028 70.50915908 39 75 C37.02 75 35.04 75 33 75 C32.98541748 73.94087402 32.97083496 72.88174805 32.95581055 71.79052734 C32.89762673 67.84292658 32.82039593 63.89588429 32.73754883 59.94873047 C32.70439364 58.24374488 32.67633263 56.53865202 32.65356445 54.83349609 C32.61984432 52.37551366 32.56752206 49.91850594 32.51171875 47.4609375 C32.50532883 46.70444916 32.4989389 45.94796082 32.49235535 45.16854858 C32.36219276 40.43203429 31.62571196 37.09214877 29 33 C24.2713279 30.0682233 20.5766178 29.50828396 15.0859375 30.3515625 C11.76306821 31.38451438 10.06866158 33.28488168 8 36 C6.75526468 39.73420597 6.76790215 43.27365238 6.68359375 47.16796875 C6.66281265 47.96278152 6.64203156 48.7575943 6.62062073 49.57649231 C6.55527913 52.11340763 6.49631192 54.65042573 6.4375 57.1875 C6.39430014 58.90821372 6.35068537 60.62891708 6.30664062 62.34960938 C6.19961352 66.56630113 6.09830276 70.7830962 6 75 C4.02 75 2.04 75 0 75 C0 50.25 0 25.5 0 0 Z " fill="#030303" transform="translate(126,25)"/>
<path d="M0 0 C0.67627441 -0.00999023 1.35254883 -0.01998047 2.04931641 -0.03027344 C8.01846496 0.07107034 12.65000344 1.53209738 17.3125 5.3125 C21.34327542 10.38829128 21.27271373 15.25394551 21.1953125 21.45703125 C21.1924826 22.31560226 21.18965271 23.17417328 21.18673706 24.0587616 C21.1755807 26.78931875 21.15048459 29.5195427 21.125 32.25 C21.11496432 34.10611504 21.1058395 35.96223524 21.09765625 37.81835938 C21.07565626 42.35820046 21.04115781 46.89779381 21 51.4375 C18.69 51.4375 16.38 51.4375 14 51.4375 C14 50.1175 14 48.7975 14 47.4375 C13.37738281 47.97890625 13.37738281 47.97890625 12.7421875 48.53125 C6.36965279 53.33064853 -0.24467919 53.51712703 -8 52.4375 C-12.63458917 50.49769574 -15.17672671 48.62012709 -18 44.4375 C-19.7792361 39.0997917 -19.83210936 34.27507484 -17.5 29.125 C-13.1249321 24.421802 -9.64213647 22.60347007 -3.14453125 22.1953125 C0.57720276 22.14863118 4.28256057 22.26324503 8 22.4375 C8 24.0875 8 25.7375 8 27.4375 C7.13117188 27.47488281 6.26234375 27.51226562 5.3671875 27.55078125 C-3.30876192 27.90163892 -3.30876192 27.90163892 -11 31.4375 C-12.56471233 34.56692465 -12.69701958 38.04832223 -12 41.4375 C-10.52601776 43.81892556 -10.52601776 43.81892556 -8 45.4375 C-4.44007154 45.99713459 -4.44007154 45.99713459 -0.5625 45.8125 C0.73558594 45.79960938 2.03367188 45.78671875 3.37109375 45.7734375 C6.74911709 45.4607249 9.08134836 45.15050302 12 43.4375 C13.96591843 38.00912435 13.3095506 31.68517326 13.375 26 C13.41238281 24.77216797 13.44976562 23.54433594 13.48828125 22.27929688 C13.85869683 15.15312395 13.85869683 15.15312395 10.6640625 9.15234375 C5.64339721 5.92056653 0.81051966 5.89741965 -5 6.4375 C-7.8552976 7.68221981 -7.8552976 7.68221981 -10 9.4375 C-11.32608822 10.11846422 -12.65686601 10.79080586 -14 11.4375 C-14.99 10.4475 -15.98 9.4575 -17 8.4375 C-15.8677607 4.91497772 -13.76573677 2.92981309 -10.5234375 1.19921875 C-7.03169991 0.14521127 -3.61813419 0.03149808 0 0 Z " fill="#0F0F0F" transform="translate(193,48.5625)"/>
<path d="M0 0 C5.64816538 2.64291512 8.83038524 6.26601337 11.3203125 11.96875 C12.5703125 16.28125 12.5703125 16.28125 12.5703125 26.28125 C3.3303125 26.28125 -5.9096875 26.28125 -15.4296875 26.28125 C-15.4296875 24.63125 -15.4296875 22.98125 -15.4296875 21.28125 C-8.1696875 21.28125 -0.9096875 21.28125 6.5703125 21.28125 C5.21481474 11.83779802 5.21481474 11.83779802 -0.4296875 6.28125 C-4.16132392 4.41543179 -8.36643251 4.72660323 -12.4296875 5.28125 C-15.7277886 6.89678326 -17.82196721 9.14125057 -19.5625 12.40625 C-20.74845318 16.33805873 -20.79793958 20.00788279 -20.8046875 24.09375 C-20.82917969 24.86267578 -20.85367187 25.63160156 -20.87890625 26.42382812 C-20.90777307 32.12502423 -19.69039341 36.55037865 -16.4296875 41.28125 C-12.20189606 44.50242443 -8.05709255 44.780462 -2.89453125 44.65625 C0.87911388 44.08212966 3.3485412 42.27874821 6.5703125 40.28125 C9.0078125 40.53125 9.0078125 40.53125 10.5703125 41.28125 C10.5703125 42.60125 10.5703125 43.92125 10.5703125 45.28125 C7.8203125 47.40625 7.8203125 47.40625 4.5703125 49.28125 C3.9721875 49.6421875 3.3740625 50.003125 2.7578125 50.375 C-2.52419789 52.56326145 -9.45062096 52.11614763 -14.8828125 50.59375 C-20.36791448 48.08148955 -24.11750088 44.49822365 -26.3984375 38.90625 C-29.43398146 29.23748035 -30.09769462 18.89181967 -25.84375 9.51171875 C-19.85441007 0.064445 -10.74113667 -3.17744236 0 0 Z " fill="#0A0A0A" transform="translate(346.4296875,49.71875)"/>
<path d="M0 0 C5.65750419 2.62669837 8.8388997 6.26371483 11.328125 11.96484375 C12.578125 16.27734375 12.578125 16.27734375 12.578125 26.27734375 C3.338125 26.27734375 -5.901875 26.27734375 -15.421875 26.27734375 C-15.421875 24.62734375 -15.421875 22.97734375 -15.421875 21.27734375 C-8.161875 21.27734375 -0.901875 21.27734375 6.578125 21.27734375 C5.22262724 11.83389177 5.22262724 11.83389177 -0.421875 6.27734375 C-4.15351142 4.41152554 -8.35862001 4.72269698 -12.421875 5.27734375 C-15.7199761 6.89287701 -17.81415471 9.13734432 -19.5546875 12.40234375 C-20.74064068 16.33415248 -20.79012708 20.00397654 -20.796875 24.08984375 C-20.82136719 24.85876953 -20.84585937 25.62769531 -20.87109375 26.41992188 C-20.90024777 32.17784043 -19.58681133 36.44818143 -16.421875 41.27734375 C-13.25775687 44.34557952 -10.29985273 44.52284886 -6.046875 44.71484375 C-0.66451279 44.59893824 2.10560123 43.1068996 6.578125 40.27734375 C9.015625 40.52734375 9.015625 40.52734375 10.578125 41.27734375 C10.578125 42.59734375 10.578125 43.91734375 10.578125 45.27734375 C7.828125 47.40234375 7.828125 47.40234375 4.578125 49.27734375 C3.98 49.63828125 3.381875 49.99921875 2.765625 50.37109375 C-2.51638539 52.5593552 -9.44280846 52.11224138 -14.875 50.58984375 C-20.38359763 48.06682193 -24.15517272 44.47474548 -26.390625 38.83203125 C-29.40813643 29.02511912 -29.88814948 18.72523207 -25.421875 9.27734375 C-18.9761636 -0.01755891 -11.28006103 -3.36582466 0 0 Z " fill="#090909" transform="translate(442.421875,49.72265625)"/>
<path d="M0 0 C2.9375 2.6875 2.9375 2.6875 5 5 C3.35 5.99 1.7 6.98 0 8 C-0.804375 7.360625 -1.60875 6.72125 -2.4375 6.0625 C-6.42305305 3.44610164 -10.25974899 2.68719156 -15 3 C-19.59607421 4.15915099 -22.97474844 6.25437645 -25.5 10.3125 C-28.4303443 17.24113629 -28.46680459 27.06349649 -25.875 34.125 C-23.63300649 37.56272339 -21.79474116 40.33149513 -18 42 C-12.46193699 42.85547315 -7.70995256 43.17559238 -3 39.9375 C-2.34 39.298125 -1.68 38.65875 -1 38 C1.1875 38.0625 1.1875 38.0625 3 39 C3.66 39.99 4.32 40.98 5 42 C3.75627811 42.98712878 2.50472782 43.96439905 1.25 44.9375 C0.55390625 45.48277344 -0.1421875 46.02804688 -0.859375 46.58984375 C-6.40008687 50.23983825 -13.34971426 49.45694582 -19.625 48.375 C-25.97054444 45.78977819 -29.74307126 42.43804969 -32.4375 36.0625 C-35.38932351 26.68311273 -35.56899288 16.08777286 -31.33203125 7.08984375 C-28.47522913 2.60776418 -24.91483012 -0.06386083 -20.1875 -2.375 C-12.89723653 -3.80446342 -6.59921921 -3.7524972 0 0 Z " fill="#080808" transform="translate(258,52)"/>
<path d="M0 0 C2.31 0 4.62 0 7 0 C7 5.61 7 11.22 7 17 C9.97 17 12.94 17 16 17 C16 18.65 16 20.3 16 22 C13.03 22 10.06 22 7 22 C7.06881974 27.07250914 7.15675694 32.14418939 7.26245117 37.21606445 C7.29571172 38.94155693 7.32374019 40.66715849 7.34643555 42.39282227 C7.37996153 44.87303166 7.43227406 47.3522403 7.48828125 49.83203125 C7.49467117 50.60400345 7.5010611 51.37597565 7.50764465 52.17134094 C7.60084017 56.30609862 7.60084017 56.30609862 9.33276367 59.9675293 C11.77137311 61.47768881 14.18335965 61.68703996 17 62 C17 63.65 17 65.3 17 67 C12.78875012 67.24772058 9.1197503 67.41382076 5.125 65.9375 C1.88036344 62.9791549 0.29664312 59.3009264 -0.25985718 54.98440552 C-0.3445906 52.79700171 -0.33807173 50.62994947 -0.29296875 48.44140625 C-0.28872391 47.65225327 -0.28447906 46.86310028 -0.28010559 46.05003357 C-0.26344452 43.55382739 -0.22581779 41.05845808 -0.1875 38.5625 C-0.17243683 36.86003778 -0.15875129 35.15756279 -0.14648438 33.45507812 C-0.1135825 29.3030678 -0.06188951 25.1516753 0 21 C-1.98 21 -3.96 21 -6 21 C-6 19.68 -6 18.36 -6 17 C-4.02 17 -2.04 17 0 17 C0 11.39 0 5.78 0 0 Z " fill="#121212" transform="translate(395,33)"/>
<path d="M0 0 C1.98 0 3.96 0 6 0 C6.33 4.95 6.66 9.9 7 15 C9.97 15.33 12.94 15.66 16 16 C16 17.32 16 18.64 16 20 C12.7 20 9.4 20 6 20 C6.09366362 24.91162893 6.19978596 29.82277241 6.31738281 34.73388672 C6.35562857 36.40405941 6.39048915 38.07431323 6.421875 39.74462891 C6.46762161 42.14775557 6.52559925 44.55032584 6.5859375 46.953125 C6.59748871 47.69806213 6.60903992 48.44299927 6.62094116 49.21051025 C6.72577676 52.9060581 6.8219451 55.92121651 9 59 C10.93981618 59.90609992 10.93981618 59.90609992 13.125 60.25 C14.40375 60.4975 15.6825 60.745 17 61 C17 62.65 17 64.3 17 66 C12.78875012 66.24772058 9.1197503 66.41382076 5.125 64.9375 C1.88036344 61.9791549 0.29664312 58.3009264 -0.25985718 53.98440552 C-0.3445906 51.79700171 -0.33807173 49.62994947 -0.29296875 47.44140625 C-0.28872391 46.65225327 -0.28447906 45.86310028 -0.28010559 45.05003357 C-0.26344452 42.55382739 -0.22581779 40.05845808 -0.1875 37.5625 C-0.17243683 35.86003778 -0.15875129 34.15756279 -0.14648438 32.45507812 C-0.1135825 28.3030678 -0.06188951 24.1516753 0 20 C-2.31 20 -4.62 20 -7 20 C-7 18.68 -7 17.36 -7 16 C-4.69 16 -2.38 16 0 16 C0 10.72 0 5.44 0 0 Z " fill="#040404" transform="translate(369,34)"/>
<path d="M0 0 C13.32953496 -0.49368648 13.32953496 -0.49368648 16.4296875 1.7890625 C18.66626595 4.93807594 18.41828879 7.23540086 18 11 C17.34 11.66 16.68 12.32 16 13 C16.515625 13.515625 17.03125 14.03125 17.5625 14.5625 C19 17 19 17 19 20.5625 C18 24 18 24 13 27 C8.71 27 4.42 27 0 27 C0 18.09 0 9.18 0 0 Z " fill="#181818" transform="translate(125,117)"/>
<path d="M0 0 C2.69990662 1.79993774 4.5418865 3.083773 6 6 C6.17721577 8.45487423 6.27736821 10.85561664 6.3125 13.3125 C6.34988281 14.62863281 6.38726562 15.94476563 6.42578125 17.30078125 C5.94219336 21.50222832 4.96928843 23.06376487 2 26 C-1.10048928 27.55024464 -3.57894218 27.28992015 -7 27 C-9.75329021 25.20437595 -11.52627461 23.94745078 -13 21 C-13.14901491 18.89946284 -13.22138453 16.79312175 -13.25 14.6875 C-13.27578125 13.55699219 -13.3015625 12.42648438 -13.328125 11.26171875 C-12.88419878 6.84888071 -11.28530296 4.28530296 -8.1875 1.1875 C-5.19555967 -0.43669618 -3.36225157 -0.48032165 0 0 Z " fill="#121212" transform="translate(162,117)"/>
<path d="M0 0 C0.64195312 0.07992187 1.28390625 0.15984375 1.9453125 0.2421875 C4.97209422 1.6269095 6.14828075 3.29363285 7.875 6.125 C8.26900433 8.97863427 8.43737152 11.35219481 8.375 14.1875 C8.39046875 14.89455078 8.4059375 15.60160156 8.421875 16.33007812 C8.39551291 19.83953171 8.15764719 21.76416147 5.96875 24.55859375 C2.17902792 27.39381493 -0.38240175 27.60729813 -5.125 27.125 C-7.81237936 25.13290193 -9.76226161 23.53551012 -10.61987305 20.20068359 C-10.8345137 17.9876025 -10.8566447 15.84758984 -10.8125 13.625 C-10.84021484 12.87863281 -10.86792969 12.13226563 -10.89648438 11.36328125 C-10.88270094 8.24822559 -10.80101281 6.0196915 -8.88574219 3.48486328 C-6.10024769 0.9923472 -3.76355356 -0.62471942 0 0 Z " fill="#0C0C0C" transform="translate(184.125,116.875)"/>
<path d="M0 0 C0.99 0 1.98 0 3 0 C3 4.29 3 8.58 3 13 C6.73192935 9.48759591 9.57703435 5.87450119 12.375 1.57421875 C14 0 14 0 16.6875 -0.23046875 C17.8321875 -0.11638672 17.8321875 -0.11638672 19 0 C17.33248852 3.94139078 14.77289351 6.7892812 12 10 C13.48904175 13.89608498 15.24378713 17.59097018 17.125 21.3125 C17.66382813 22.38113281 18.20265625 23.44976562 18.7578125 24.55078125 C19.16773438 25.35902344 19.57765625 26.16726562 20 27 C18.35 27 16.7 27 15 27 C13.99491199 25.21118264 12.99607264 23.41885304 12 21.625 C11.1646875 20.12839844 11.1646875 20.12839844 10.3125 18.6015625 C9 16 9 16 9 14 C5.50586395 16.86698342 3.71163126 18.84150148 3.1875 23.3125 C3.125625 24.529375 3.06375 25.74625 3 27 C2.01 27 1.02 27 0 27 C0 18.09 0 9.18 0 0 Z " fill="#0C0C0C" transform="translate(199,117)"/>
<path d="M0 0 C2.18366732 2.20412322 2.9405245 3.56512539 3.36328125 6.65625 C3.34652344 7.5946875 3.32976562 8.533125 3.3125 9.5 C3.30863281 10.4384375 3.30476562 11.376875 3.30078125 12.34375 C2.99021355 15.08642578 2.59472886 16.74983241 1 19 C-2.625 19.75 -2.625 19.75 -6 20 C-9.18403855 16.57168336 -9.40644407 14.0440565 -9.375 9.4375 C-9.38273438 8.30183594 -9.39046875 7.16617188 -9.3984375 5.99609375 C-9 3 -9 3 -7.6640625 1.125 C-5.0301618 -0.65566526 -3.08210651 -0.44947387 0 0 Z " fill="#F3F3F3" transform="translate(186,121)"/>
<path d="M0 0 C3.02444656 3.02444656 3.20960336 5.96479246 3.3125 10.0625 C3.29639183 13.54723348 3.01786016 16.09402016 1 19 C-2.625 19.75 -2.625 19.75 -6 20 C-9.18403855 16.57168336 -9.40644407 14.0440565 -9.375 9.4375 C-9.38273438 8.30183594 -9.39046875 7.16617188 -9.3984375 5.99609375 C-9 3 -9 3 -7.6640625 1.12890625 C-4.99893977 -0.67912302 -3.11693874 -0.51948979 0 0 Z " fill="#F3F3F3" transform="translate(162,121)"/>
<path d="M0 0 C1.17755859 0.13535156 1.17755859 0.13535156 2.37890625 0.2734375 C4.4375 0.625 4.4375 0.625 6.4375 1.625 C6.4375 2.285 6.4375 2.945 6.4375 3.625 C2.74215669 4.8567811 0.25077437 4.17965809 -3.5625 3.625 C-4.5525 4.12 -4.5525 4.12 -5.5625 4.625 C-5.5625 6.275 -5.5625 7.925 -5.5625 9.625 C-4.87542969 9.80675781 -4.18835938 9.98851563 -3.48046875 10.17578125 C-2.57941406 10.42714844 -1.67835938 10.67851562 -0.75 10.9375 C0.14332031 11.18113281 1.03664062 11.42476562 1.95703125 11.67578125 C4.53358037 12.66176776 5.77623534 13.44593857 7.4375 15.625 C7.9585865 19.12372367 7.87883644 20.91502398 6 23.9375 C2.30904912 26.36812619 -1.1860287 26.7262351 -5.5625 26.625 C-8.625 25.6875 -8.625 25.6875 -10.5625 24.625 C-10.5625 23.635 -10.5625 22.645 -10.5625 21.625 C-7.5625 21.625 -7.5625 21.625 -4.0625 22.25 C-0.45313517 23.01444551 -0.45313517 23.01444551 2.4375 20.625 C2.1075 18.975 1.7775 17.325 1.4375 15.625 C0.51517578 15.46064453 0.51517578 15.46064453 -0.42578125 15.29296875 C-1.23402344 15.13441406 -2.04226562 14.97585937 -2.875 14.8125 C-4.07576172 14.58626953 -4.07576172 14.58626953 -5.30078125 14.35546875 C-7.84761911 13.5329149 -8.94582913 12.73950285 -10.5625 10.625 C-10.99740509 7.21824344 -10.95595822 5.3182359 -9.25 2.3125 C-6.34947235 -0.58802765 -3.83581347 -0.467628 0 0 Z " fill="#0A0A0A" transform="translate(231.5625,117.375)"/>
<path d="M0 0 C1.45792884 -0.05399736 2.91642712 -0.09279177 4.375 -0.125 C5.18710938 -0.14820313 5.99921875 -0.17140625 6.8359375 -0.1953125 C9 0 9 0 11 2 C11.3125 4.5 11.3125 4.5 11 7 C7.34346173 9.43769218 5.30999899 9.23944439 1 9 C0 8 0 8 -0.09765625 6.15234375 C-0.06510417 4.1015625 -0.03255208 2.05078125 0 0 Z " fill="#E9E9E9" transform="translate(129,132)"/>
<path d="M0 0 C1.45792884 -0.05399736 2.91642712 -0.09279177 4.375 -0.125 C5.18710938 -0.14820312 5.99921875 -0.17140625 6.8359375 -0.1953125 C9 0 9 0 11 2 C10.44444444 6.55555556 10.44444444 6.55555556 9 8 C7.48071962 8.07179964 5.95832518 8.08392007 4.4375 8.0625 C3.61121094 8.05347656 2.78492188 8.04445312 1.93359375 8.03515625 C1.29550781 8.02355469 0.65742188 8.01195312 0 8 C0 5.36 0 2.72 0 0 Z " fill="#E9E9E9" transform="translate(129,121)"/>
</svg>
