<?xml version="1.0" encoding="UTF-8"?>
<svg version="1.1" xmlns="http://www.w3.org/2000/svg" width="1200" height="600">
<path d="M0 0 C396 0 792 0 1200 0 C1200 198 1200 396 1200 600 C804 600 408 600 0 600 C0 402 0 204 0 0 Z " fill="#CD0E2D" transform="translate(0,0)"/>
<path d="M0 0 C4.97062729 4.36445323 6.0840009 7.71800978 6.6875 14.25 C7.25191536 20.3149395 7.25191536 20.3149395 8.5625 26.25 C14.7636419 24.81896725 18.74318023 21.16569731 23.5625 17.25 C45.17202236 0.15610384 45.17202236 0.15610384 57.5625 1.25 C63.91178351 3.00152649 68.07145461 6.76012387 71.5625 12.25 C76.10447282 25.35596198 74.68775595 40.54143169 74.5625 54.25 C72.26258391 52.04106531 70.95923833 50.24425076 69.6875 47.3125 C67.4795774 42.73714708 64.76689159 40.50965234 60.375 38 C52.27591779 35.84024474 46.09723582 37.18094195 38.78125 41.140625 C33.11000381 44.85721838 28.14404732 49.36751879 23.10009766 53.88037109 C14.85829524 61.22183054 14.85829524 61.22183054 10.6875 61.3125 C8.5625 60.25 8.5625 60.25 6.5625 57.25 C6.25390625 54.578125 6.25390625 54.578125 6.125 51.5 C5.71514308 45.55347947 4.86759345 41.13136682 1.0625 36.375 C-3.32168155 33.08686383 -9.26602468 33.79168142 -14.4375 34.25 C-29.74300577 37.6376836 -42.33819653 51.50134742 -53.07739258 62.03173828 C-54.4375 63.25 -54.4375 63.25 -55.4375 63.25 C-55.71294473 58.77045973 -55.91055008 54.29559792 -56.04174805 49.81005859 C-56.09650658 48.2906297 -56.17115798 46.7717649 -56.26733398 45.25439453 C-56.7493646 37.44395197 -56.97478377 31.14769523 -51.64253235 24.98724365 C-49.33871735 22.616218 -46.9180984 20.43684044 -44.4375 18.25 C-43.13005779 16.84787943 -41.8343164 15.43451395 -40.5625 14 C-31.0546483 4.64801472 -13.50392732 -6.87472664 0 0 Z " fill="#FDFBFB" transform="translate(265.4375,254.75)"/>
<path d="M0 0 C7.84700205 6.89005058 7.76380206 16.37136757 8.5625 26.25 C14.96933564 24.24346356 18.85723473 21.64613575 23.6875 17.0625 C32.49950464 9.04711132 42.80665415 0.82161377 55.22265625 1.04296875 C60.58327021 1.51728017 64.24994321 3.6048212 67.8125 7.5 C74.23952196 15.67517193 74.75109846 24.71276247 74.6875 34.6875 C74.68556641 35.42669678 74.68363281 36.16589355 74.68164062 36.92749023 C74.64072028 42.09766154 74.30749625 47.12815081 73.5625 52.25 C71.5625 50.25 71.5625 50.25 69.75 46.875 C67.12915934 42.18866409 63.48839462 39.33198783 58.5625 37.25 C56.0180593 36.85977573 56.0180593 36.85977573 53.3125 36.875 C52.42046875 36.84664062 51.5284375 36.81828125 50.609375 36.7890625 C43.2685924 37.89959115 37.43101694 42.56602466 31.6875 47 C30.99422607 47.52424561 30.30095215 48.04849121 29.58666992 48.58862305 C26.4912671 50.9414173 23.43733138 53.3223946 20.48046875 55.84765625 C19.62066406 56.57855469 18.76085937 57.30945313 17.875 58.0625 C16.78638672 59.03123047 16.78638672 59.03123047 15.67578125 60.01953125 C13.5625 61.25 13.5625 61.25 10.85546875 61.01171875 C8.5625 60.25 8.5625 60.25 7.5625 59.25 C7.18094515 55.97467273 6.84233194 52.70264386 6.57617188 49.41601562 C6.05418968 44.41330132 4.88376084 41.20885018 1.5625 37.25 C-2.85236996 33.90496929 -6.49350632 33.50407045 -11.91796875 33.64453125 C-26.95491377 36.23135309 -38.79560332 47.61376793 -49.50488281 57.6574707 C-53.23653966 61.14951983 -53.23653966 61.14951983 -55.4375 62.25 C-55.66230412 57.87611878 -55.8243239 53.50540769 -55.93188477 49.12744141 C-55.97677154 47.64312099 -56.03791266 46.15918996 -56.11645508 44.67626953 C-56.52620588 36.7329959 -56.69249324 30.64460041 -51.05859375 24.375 C-49.54896843 22.96631996 -48.01243304 21.58526551 -46.4375 20.25 C-45.6125 19.38375 -44.7875 18.5175 -43.9375 17.625 C-43.1125 16.84125 -42.2875 16.0575 -41.4375 15.25 C-40.81746094 14.64671875 -40.19742188 14.0434375 -39.55859375 13.421875 C-29.63639179 4.12092004 -13.91018518 -7.08154882 0 0 Z " fill="#FDFBFB" transform="translate(265.4375,208.75)"/>
<path d="M0 0 C5.54031522 3.45903278 8.94425305 7.65204916 11.0625 13.875 C11.3409729 16.33650208 11.3409729 16.33650208 11.38134766 18.94067383 C11.40121735 19.92131302 11.42108704 20.90195221 11.44155884 21.91230774 C11.45311005 22.9583165 11.46466125 24.00432526 11.4765625 25.08203125 C11.49592865 26.16256271 11.5152948 27.24309418 11.5352478 28.35636902 C11.59492103 31.7999996 11.64138041 35.24366383 11.6875 38.6875 C11.72569101 41.02540502 11.7647434 43.36329615 11.8046875 45.70117188 C11.90061253 51.42565765 11.98569593 57.15022748 12.0625 62.875 C14.3725 63.535 16.6825 64.195 19.0625 64.875 C19.0625 67.515 19.0625 70.155 19.0625 72.875 C9.2049483 73.65186484 9.2049483 73.65186484 4.9375 70.75 C2.92696758 67.66718363 2.31689237 65.52129065 2.0625 61.875 C1.60101562 62.47828125 1.13953125 63.0815625 0.6640625 63.703125 C-4.16403563 69.61897647 -8.33209012 73.37787207 -15.9375 74.875 C-24.14183216 75.57916424 -32.63118887 76.12594466 -39.9375 71.875 C-45.1568553 67.1557027 -48.43781675 62.64181962 -49.18359375 55.52734375 C-49.49041699 49.36298588 -48.63114168 45.83225594 -44.9375 40.875 C-37.19805278 32.75801877 -26.15008994 31.27072094 -15.4375 30.1875 C-13.32264508 29.95690437 -11.20804641 29.72394275 -9.09375 29.48828125 C-8.17400391 29.39329346 -7.25425781 29.29830566 -6.30664062 29.20043945 C-3.79346867 28.92931251 -3.79346867 28.92931251 -0.9375 27.875 C1.74539678 23.77438519 1.59597353 19.60851914 1.0625 14.875 C-0.29332442 11.41011537 -1.37218423 10.22544462 -4.52734375 8.26953125 C-8.66196184 6.57874241 -11.96095287 6.39456939 -16.375 6.4375 C-17.10009766 6.41751953 -17.82519531 6.39753906 -18.57226562 6.37695312 C-24.86413798 6.3826062 -29.21088059 8.2392679 -33.8125 12.6875 C-35.34667234 15.67061288 -35.56290471 18.56607495 -35.9375 21.875 C-36.9375 22.875 -36.9375 22.875 -39.00390625 22.97265625 C-39.82761719 22.96105469 -40.65132812 22.94945312 -41.5 22.9375 C-42.32628906 22.92847656 -43.15257812 22.91945312 -44.00390625 22.91015625 C-44.96103516 22.89275391 -44.96103516 22.89275391 -45.9375 22.875 C-45.15377376 15.1944828 -42.96996915 8.0416324 -36.9375 2.875 C-27.18548748 -4.13022638 -10.89084511 -5.03660705 0 0 Z " fill="#FBF4F5" transform="translate(901.9375,226.125)"/>
<path d="M0 0 C1.3295874 0.00966797 1.3295874 0.00966797 2.68603516 0.01953125 C9.40035539 0.20730985 14.9178586 1.0138287 20.1875 5.5 C24.8474832 10.45907115 27.27384064 14.63828007 27.39282227 21.5222168 C27.4227401 23.05346443 27.4227401 23.05346443 27.45326233 24.61564636 C27.46997482 25.71572525 27.48668732 26.81580414 27.50390625 27.94921875 C27.52468735 29.0769722 27.54546844 30.20472565 27.56687927 31.36665344 C27.63232847 34.9735396 27.69123844 38.58049929 27.75 42.1875 C27.79318961 44.63086702 27.83680404 47.07422656 27.88085938 49.51757812 C27.98800516 55.51164074 28.08978029 61.50577671 28.1875 67.5 C30.4975 67.83 32.8075 68.16 35.1875 68.5 C35.1875 70.81 35.1875 73.12 35.1875 75.5 C25.3299483 76.27686484 25.3299483 76.27686484 21.0625 73.375 C19.05196758 70.29218363 18.44189237 68.14629065 18.1875 64.5 C17.56875 65.29664063 17.56875 65.29664063 16.9375 66.109375 C12.03821778 72.102247 7.46721627 75.07342791 0.1875 77.5 C-18.67902069 78.70508666 -18.67902069 78.70508666 -24.8125 73.5 C-29.26193443 69.26148684 -32.35633737 65.09625885 -33.1484375 58.8515625 C-33.26441635 50.75623889 -31.92987465 46.76944171 -26.25 40.8125 C-18.41321099 34.8482181 -8.30433926 33.73015706 1.1875 32.8125 C3.39609919 32.58195995 5.60444775 32.34900215 7.8125 32.11328125 C8.77414062 32.01829346 9.73578125 31.92330566 10.7265625 31.82543945 C13.31750138 31.56173587 13.31750138 31.56173587 16.1875 30.5 C17.92447827 25.28906519 18.0342371 19.71092465 16.0625 14.5625 C12.73678782 10.9042166 8.97583892 9.3575924 4.09375 9.1015625 C2.62500037 9.09368012 1.15608708 9.10177103 -0.3125 9.125 C-1.41271484 9.10759766 -1.41271484 9.10759766 -2.53515625 9.08984375 C-8.48159202 9.12175664 -12.74127045 10.42877045 -17.0625 14.75 C-19.13940534 18.01370839 -19.92976557 20.74837866 -20.8125 24.5 C-23.4525 24.5 -26.0925 24.5 -28.8125 24.5 C-29.30581387 18.58023355 -28.33987494 14.36125623 -24.8125 9.5 C-17.50806672 2.4649276 -9.94424754 -0.0749237 0 0 Z " fill="#FCF6F6" transform="translate(539.8125,223.5)"/>
<path d="M0 0 C3.57381494 2.39853351 6.46841306 4.86471527 8 9 C8.66 8.113125 9.32 7.22625 10 6.3125 C13.71930534 1.82808042 18.49631644 -1.16543881 24 -3 C34.16868478 -3.79728762 41.89404345 -3.2179641 49.875 3.375 C54.97774328 9.67838876 56.13184229 15.78044438 56.11352539 23.72998047 C56.11341209 25.38101273 56.11341209 25.38101273 56.11329651 27.06539917 C56.10813522 28.23748932 56.10297394 29.40957947 56.09765625 30.6171875 C56.0962413 31.82948029 56.09482635 33.04177307 56.09336853 34.290802 C56.08778345 38.15222673 56.07523361 42.01359288 56.0625 45.875 C56.05748308 48.49739499 56.0529205 51.1197909 56.04882812 53.7421875 C56.03781889 60.16147822 56.02109555 66.58073493 56 73 C53.03 73 50.06 73 47 73 C46.99453156 71.97428894 46.99453156 71.97428894 46.98895264 70.92785645 C46.94703522 63.78945329 46.87762404 56.65168754 46.79248047 49.51367188 C46.76212477 46.85208389 46.74307886 44.1910998 46.72900391 41.52929688 C46.70751785 37.69618357 46.66083437 33.86406398 46.609375 30.03125 C46.60814636 28.84760864 46.60691772 27.66396729 46.60565186 26.44445801 C46.48372675 19.51577418 45.74398968 14.885894 42 9 C38.10797429 5.64021712 34.60104744 5.56757407 29.5625 5.5625 C28.28503906 5.54316406 27.00757813 5.52382812 25.69140625 5.50390625 C20.8326924 6.15687626 17.6539009 7.93375669 14.57421875 11.78125 C11.96291707 16.84280392 10.89075168 20.57290128 10.79467773 26.22753906 C10.77473251 27.26831604 10.75478729 28.30909302 10.73423767 29.38140869 C10.70916893 31.05659576 10.70916893 31.05659576 10.68359375 32.765625 C10.66281265 33.91415955 10.64203156 35.06269409 10.62062073 36.24603271 C10.55525007 39.91396111 10.49629806 43.58196093 10.4375 47.25 C10.39430293 49.73698654 10.35068825 52.22396587 10.30664062 54.7109375 C10.19958138 60.80721852 10.09827853 66.90357136 10 73 C6.7 73 3.4 73 0 73 C-0.00546844 71.91125076 -0.00546844 71.91125076 -0.01104736 70.80050659 C-0.04898822 63.94440556 -0.10590995 57.08869341 -0.18390274 50.23293877 C-0.22333303 46.70865959 -0.25554282 43.18462859 -0.27099609 39.66015625 C-0.28910326 35.60376248 -0.33907322 31.54829512 -0.390625 27.4921875 C-0.39185364 26.23260223 -0.39308228 24.97301697 -0.39434814 23.67526245 C-0.50745801 15.03268369 -0.50745801 15.03268369 -5 8 C-9.5987584 4.69613009 -15.60917862 5.54782101 -21 6 C-26.09145706 7.1575604 -29.19807238 9.59697088 -32 14 C-35.36618692 20.25267919 -35.45534761 25.78518578 -35.4765625 32.8046875 C-35.49993179 34.48427048 -35.49993179 34.48427048 -35.52377319 36.19778442 C-35.57113134 39.75684982 -35.59901985 43.31571985 -35.625 46.875 C-35.66145808 50.45556759 -35.70199033 54.03602358 -35.74765015 57.6164856 C-35.77494109 59.84108942 -35.79626419 62.06577566 -35.81118774 64.29049683 C-35.82144989 65.2888858 -35.83171204 66.28727478 -35.84228516 67.31591797 C-35.84878082 68.19859344 -35.85527649 69.08126892 -35.86196899 69.99069214 C-36 72 -36 72 -37 73 C-39.97 73 -42.94 73 -46 73 C-46 48.58 -46 24.16 -46 -1 C-43.03 -1 -40.06 -1 -37 -1 C-36.67 2.3 -36.34 5.6 -36 9 C-35.01 7.7625 -34.02 6.525 -33 5.25 C-24.23707767 -4.5951956 -11.75201244 -5.97909405 0 0 Z " fill="#FAEDEF" transform="translate(436,227)"/>
<path d="M0 0 C5.93084869 2.32924334 9.53666379 6.37429666 13.3203125 11.38671875 C13.9390625 10.59007812 13.9390625 10.59007812 14.5703125 9.77734375 C19.56309091 3.67010587 23.62242294 -0.13525038 31.66015625 -0.953125 C40.1117428 -1.17862091 46.7434358 -0.4971481 53.6328125 4.69921875 C58.39412264 9.46052889 60.14809205 14.48093542 60.44056702 21.1139679 C60.43834641 22.09769882 60.43612579 23.08142975 60.43383789 24.0949707 C60.43372459 25.77614738 60.43372459 25.77614738 60.43360901 27.49128723 C60.42844772 28.69041245 60.42328644 29.88953766 60.41796875 31.125 C60.4165538 32.36090378 60.41513885 33.59680756 60.41368103 34.87016296 C60.40903868 38.1433022 60.40006561 41.41639162 60.38897705 44.68951416 C60.37871654 48.03454123 60.37425881 51.37957048 60.36914062 54.72460938 C60.35812157 61.27866525 60.34139086 67.83268793 60.3203125 74.38671875 C57.3503125 74.38671875 54.3803125 74.38671875 51.3203125 74.38671875 C51.31888748 73.70291138 51.31746246 73.019104 51.31599426 72.3145752 C51.29625735 65.17610935 51.24189698 58.038494 51.16772461 50.90039062 C51.14181982 48.2386731 51.13015704 45.57797907 51.12475586 42.91601562 C51.11544488 39.08275707 51.0744017 35.25092737 51.02734375 31.41796875 C51.0312764 30.23432739 51.03520905 29.05068604 51.03926086 27.83117676 C50.91693145 20.85278724 50.15625175 15.6676678 45.3203125 10.38671875 C41.63946614 7.93282117 38.77007946 8.01944725 34.5078125 8.01171875 C33.80849609 7.98722656 33.10917969 7.96273437 32.38867188 7.9375 C27.25773805 7.90870149 24.20706407 8.77643068 20.3203125 12.38671875 C15.47109709 19.63783253 14.58226311 26.17401739 14.61328125 34.73828125 C14.59815994 35.87832611 14.58303864 37.01837097 14.56745911 38.19296265 C14.52480615 41.79941943 14.51576523 45.40503557 14.5078125 49.01171875 C14.48465097 51.47137617 14.45928222 53.93101385 14.43164062 56.390625 C14.36900948 62.38933109 14.33389795 68.38771166 14.3203125 74.38671875 C11.3503125 74.38671875 8.3803125 74.38671875 5.3203125 74.38671875 C5.31444626 73.71321884 5.30858002 73.03971893 5.30253601 72.34580994 C5.23848625 65.32116794 5.15403613 58.29697915 5.05786133 51.27270508 C5.02465507 48.65297428 4.99660984 46.03317269 4.97387695 43.41333008 C4.94025296 39.64243464 4.88793054 35.87218553 4.83203125 32.1015625 C4.82564133 30.93463364 4.8192514 29.76770477 4.81266785 28.56541443 C4.68746454 21.60374747 4.30853861 16.12200138 -0.1796875 10.51171875 C-3.40917761 8.08960117 -6.67801267 8.22338755 -10.5546875 8.19921875 C-11.58335937 8.18503906 -12.61203125 8.17085937 -13.671875 8.15625 C-19.63105428 8.61286244 -22.81671417 10.91380226 -26.6796875 15.38671875 C-29.56864285 20.44239062 -30.78079828 24.56257344 -30.88500977 30.33886719 C-30.90495499 31.31958191 -30.92490021 32.30029663 -30.94544983 33.31072998 C-30.97051857 34.88748505 -30.97051857 34.88748505 -30.99609375 36.49609375 C-31.01687485 37.57804016 -31.03765594 38.65998657 -31.05906677 39.77471924 C-31.12441681 43.22865488 -31.18337979 46.68266612 -31.2421875 50.13671875 C-31.28538654 52.47917446 -31.32900128 54.82162255 -31.37304688 57.1640625 C-31.48008337 62.90487057 -31.58139198 68.64575463 -31.6796875 74.38671875 C-34.6496875 74.38671875 -37.6196875 74.38671875 -40.6796875 74.38671875 C-40.6796875 50.29671875 -40.6796875 26.20671875 -40.6796875 1.38671875 C-38.0396875 1.38671875 -35.3996875 1.38671875 -32.6796875 1.38671875 C-32.3496875 4.68671875 -32.0196875 7.98671875 -31.6796875 11.38671875 C-30.8340625 10.31421875 -29.9884375 9.24171875 -29.1171875 8.13671875 C-21.5314109 -0.76440629 -11.20656419 -2.56476761 0 0 Z " fill="#FCF7F7" transform="translate(701.6796875,224.61328125)"/>
<path d="M0 0 C5.83924212 3.41299639 8.03586762 7.59184126 10.19494629 13.86245728 C11.58247888 19.27009992 11.49062051 24.55340082 11.390625 30.10546875 C11.38496521 31.3106868 11.37930542 32.51590485 11.37347412 33.75764465 C11.35126855 37.5680183 11.30110001 41.37741554 11.25 45.1875 C11.22991464 47.7870957 11.21166747 50.38670628 11.1953125 52.98632812 C11.15145565 59.32454607 11.08470307 65.66220325 11 72 C8.03 72 5.06 72 2 72 C1.99453156 71.05611923 1.99453156 71.05611923 1.98895264 70.09317017 C1.94693463 63.50591949 1.87745491 56.91935309 1.79248047 50.33251953 C1.7643661 47.87881333 1.74310447 45.42501816 1.72900391 42.97119141 C1.70744278 39.43085496 1.66072262 35.89157749 1.609375 32.3515625 C1.60814636 31.26573883 1.60691772 30.17991516 1.60565186 29.06118774 C1.4520377 20.95674657 0.26146979 13.42454328 -5.5 7.375 C-10.71742682 5.32529661 -15.46903474 5.5481952 -21 6 C-21.76183594 6.05929688 -22.52367187 6.11859375 -23.30859375 6.1796875 C-28.53787392 7.01555684 -31.16707324 9.70989522 -34.45703125 13.5390625 C-38.90522127 20.63364406 -39.45992514 27.10561463 -39.51171875 35.28125 C-39.52966995 36.33534058 -39.54762115 37.38943115 -39.56611633 38.47546387 C-39.61996756 41.81693615 -39.65403452 45.15826765 -39.6875 48.5 C-39.72069526 50.77606115 -39.75518694 53.05210378 -39.79101562 55.328125 C-39.87567973 60.88531469 -39.94261103 66.44246443 -40 72 C-42.97 72 -45.94 72 -49 72 C-49 47.91 -49 23.82 -49 -1 C-46.03 -1 -43.06 -1 -40 -1 C-39.67 2.63 -39.34 6.26 -39 10 C-38.67 9.29875 -38.34 8.5975 -38 7.875 C-29.58488923 -4.22172173 -12.76809256 -6.54645842 0 0 Z " fill="#FCF6F7" transform="translate(980,227)"/>
<path d="M0 0 C4.67767031 2.96486169 7.85186665 6.87186053 10.01171875 11.96875 C10.64191909 14.97503905 10.93359572 17.90064573 11.01171875 20.96875 C8.37171875 20.96875 5.73171875 20.96875 3.01171875 20.96875 C2.63660156 20.22109375 2.26148438 19.4734375 1.875 18.703125 C-1.26404117 12.66224981 -3.71806596 8.10385765 -9.98828125 4.96875 C-18.30331818 4.209342 -26.31117541 3.48918612 -33.15234375 8.98046875 C-41.59818193 18.1271318 -42.52556307 26.97362385 -42.328125 38.84765625 C-41.97247577 46.90067632 -39.61859322 53.90193499 -33.67578125 59.53125 C-28.02793004 63.6844421 -22.02862834 65.83335403 -14.98828125 64.96875 C-12.58839554 64.07633019 -10.30482566 63.06370785 -8.00390625 61.94140625 C-5.98828125 60.96875 -5.98828125 60.96875 -2.98828125 59.96875 C-1.116832 56.94670603 -0.0551013 53.55584613 1.13671875 50.21875 C1.48992188 49.23390625 1.843125 48.2490625 2.20703125 47.234375 C2.47257813 46.48671875 2.738125 45.7390625 3.01171875 44.96875 C5.98171875 44.96875 8.95171875 44.96875 12.01171875 44.96875 C10.62208575 53.93819939 8.53835714 61.48974177 1.19921875 67.34375 C-8.21017496 73.61667914 -17.40194019 74.1605854 -28.60546875 72.60546875 C-36.4355004 70.55739997 -42.65689376 64.67493506 -46.8828125 57.95703125 C-48.40560678 55.00407007 -49.74425251 52.0483736 -50.98828125 48.96875 C-51.44203125 47.855 -51.89578125 46.74125 -52.36328125 45.59375 C-54.72670819 31.88587376 -52.91428813 19.45129842 -44.98828125 7.96875 C-33.16361227 -5.32288919 -15.98537945 -8.2910416 0 0 Z " fill="#FBF4F5" transform="translate(635.98828125,228.03125)"/>
<path d="M0 0 C0.33 0 0.66 0 1 0 C1.33 9.9 1.66 19.8 2 30 C6.455 25.545 6.455 25.545 11 21 C21.96486315 11.25204652 35.07723624 0.79524731 50.44921875 1.42578125 C55.79022818 2.62812181 58.99237986 5.54042531 62 10 C64.62090245 15.6556316 64.62273347 21.8644549 65 28 C67.15003259 28.99372644 67.15003259 28.99372644 70 29 C72.53463986 27.31728915 74.66593448 25.67504587 76.9375 23.6875 C78.26446689 22.57648207 79.59395455 21.46846884 80.92578125 20.36328125 C81.59947754 19.8007666 82.27317383 19.23825195 82.96728516 18.65869141 C86.09735125 16.10456349 89.33961063 13.72422766 92.625 11.375 C93.19210693 10.96209717 93.75921387 10.54919434 94.34350586 10.1237793 C101.07553327 5.330141 106.8005646 3.88450879 115 5 C120.67922851 7.23146753 124.49738517 11.1175672 128 16 C128.33 16.99 128.66 17.98 129 19 C129.33 16.69 129.66 14.38 130 12 C130.33 12 130.66 12 131 12 C131 15.63 131 19.26 131 23 C129.35 23.66 127.7 24.32 126 25 C125.46890625 24.50628906 124.9378125 24.01257813 124.390625 23.50390625 C123.68421875 22.86324219 122.9778125 22.22257812 122.25 21.5625 C121.20585937 20.60537109 121.20585937 20.60537109 120.140625 19.62890625 C115.7060987 16.25445831 110.36748857 16.51454455 105 17 C93.88520935 20.43548075 84.58912669 29.56483595 75.76953125 36.83984375 C75.08246094 37.38769531 74.39539063 37.93554688 73.6875 38.5 C73.09324219 38.9846875 72.49898438 39.469375 71.88671875 39.96875 C69.48316816 41.28249194 67.69692221 41.18567451 65 41 C62.30604262 36.71415871 62.33402909 31.84360657 61.96484375 26.93164062 C61.48594614 22.11103919 60.4812797 19.38769691 57 16 C52.62774445 13.1258081 48.0487321 13.43659077 43 14 C30.04668969 17.1640053 19.00040841 26.3417143 10.08666992 35.83374023 C8.75465869 37.25149692 7.38083667 38.62975257 6 40 C5.34 40 4.68 40 4 40 C3.34 38.35 2.68 36.7 2 35 C2.495 34.505 2.495 34.505 3 34 C2.01 33.34 1.02 32.68 0 32 C-0.26727014 29.51659097 -0.34866334 27.28527932 -0.29296875 24.8046875 C-0.28872391 24.09724396 -0.28447906 23.38980042 -0.28010559 22.66091919 C-0.26329547 20.39856095 -0.22564128 18.13708952 -0.1875 15.875 C-0.17245607 14.34246077 -0.15876716 12.8099076 -0.14648438 11.27734375 C-0.11338462 7.51788682 -0.06158825 3.75909382 0 0 Z " fill="#CE1231" transform="translate(209,240)"/>
<path d="M0 0 C1.04095068 18.64458321 1.04095068 18.64458321 -5 26 C-11.67590877 31.86596396 -18.67388312 34.51628459 -27.53515625 34.31640625 C-32.67515278 33.65659687 -35.9074477 31.2075578 -39.375 27.375 C-42.12867493 23.35039818 -42.41027941 20.92335292 -42 16 C-39.52940319 10.95998251 -36.17689657 8.04841231 -31 6 C-25.11246017 4.3550455 -19.22955884 3.3289513 -13.1875 2.4375 C-11.51396741 2.18857639 -9.84077222 1.93737092 -8.16796875 1.68359375 C-7.07391724 1.52201782 -7.07391724 1.52201782 -5.95776367 1.35717773 C-3.93700683 0.98850742 -2.03768776 0 0 0 Z " fill="#CE1331" transform="translate(558,260)"/>
<path d="M0 0 C0.7992018 18.29284111 0.7992018 18.29284111 -6.3125 26.75 C-12.98691113 32.33787909 -19.15264276 34.35422649 -27.79296875 34.2109375 C-32.63188881 33.74845664 -35.7090495 31.55437921 -38.8125 28 C-42.02256328 23.5976275 -42.46420802 20.38481298 -42 15 C-38.67059147 9.27341732 -33.53742933 6.7116846 -27.37890625 4.984375 C-22.68932585 3.86479049 -17.95436491 3.14080794 -13.1875 2.4375 C-11.51396741 2.18857639 -9.84077222 1.93737092 -8.16796875 1.68359375 C-7.07391724 1.52201782 -7.07391724 1.52201782 -5.95776367 1.35717773 C-3.93700683 0.98850742 -2.03768776 0 0 0 Z " fill="#CE1331" transform="translate(904,260)"/>
<path d="M0 0 C2.97 0 5.94 0 9 0 C9 33.33 9 66.66 9 101 C6.03 101 3.06 101 0 101 C0 67.67 0 34.34 0 0 Z " fill="#FCF8F9" transform="translate(831,198)"/>
<path d="M0 0 C2.97 0 5.94 0 9 0 C9 33.33 9 66.66 9 101 C6.03 101 3.06 101 0 101 C0 67.67 0 34.34 0 0 Z " fill="#FDFAF9" transform="translate(805,198)"/>
<path d="M0 0 C1.65 0 3.3 0 5 0 C5 57.75 5 115.5 5 175 C3.35 175 1.7 175 0 175 C0 117.25 0 59.5 0 0 Z " fill="#FEFCFB" transform="translate(362,191)"/>
<path d="M0 0 C1.98 0 3.96 0 6 0 C6.33 3.96 6.66 7.92 7 12 C7.99 11.34 8.98 10.68 10 10 C13.77688904 9.31656294 17.47186889 9.14892905 20.88671875 11.05078125 C23.04241292 12.82022513 24.7458328 14.4916656 26 17 C27.03676237 29.30517957 27.03676237 29.30517957 24.25 33.6875 C20.83638713 37.19593545 18.77019082 38.09097178 13.9375 38.25 C10 38 10 38 7 36 C6.505 36.495 6.505 36.495 6 37 C4.02 37 2.04 37 0 37 C0 24.79 0 12.58 0 0 Z " fill="#FBF1F1" transform="translate(459,327)"/>
<path d="M0 0 C3.17625 -0.061875 6.3525 -0.12375 9.625 -0.1875 C11.1092749 -0.22846802 11.1092749 -0.22846802 12.62353516 -0.27026367 C18.77037267 -0.32804171 23.14152307 0.42737076 27.875 4.6875 C29.53941429 8.10879604 29.51769373 11.31231863 29 15 C27.0956004 20.41250413 27.0956004 20.41250413 23.84375 22.15625 C20.34834158 23.1933492 17.32802575 23.19304721 13.6875 23.125 C10.3771875 23.063125 10.3771875 23.063125 7 23 C7 27.62 7 32.24 7 37 C4.69 37 2.38 37 0 37 C0 24.79 0 12.58 0 0 Z " fill="#FAEEF0" transform="translate(394,327)"/>
<path d="M0 0 C2.97 0 5.94 0 9 0 C9 24.09 9 48.18 9 73 C6.03 73 3.06 73 0 73 C0 48.91 0 24.82 0 0 Z " fill="#FDFAFA" transform="translate(779,226)"/>
<path d="M0 0 C4.12244569 1.74058818 6.66200608 4.18993583 9 8 C9 10.31 9 12.62 9 15 C2.4 15 -4.2 15 -11 15 C-9.34922098 18.75170424 -9.34922098 18.75170424 -7 22 C-3.58375742 22.33354403 -3.58375742 22.33354403 0 22 C1.62514468 20.54166642 1.62514468 20.54166642 3 19 C5.6875 18.8125 5.6875 18.8125 8 19 C7.9375 21.25 7.9375 21.25 7 24 C1.90499025 27.84725226 -1.67502182 28.80317183 -8 28 C-12.04313039 25.90356202 -14.36283801 24.24173788 -16 20 C-16.62977827 14.74208377 -17.16577147 8.98504473 -14.1875 4.375 C-9.74907652 -0.44385978 -6.21337434 -0.70133326 0 0 Z " fill="#FAEFF0" transform="translate(592,337)"/>
<path d="M0 0 C1.98 0 3.96 0 6 0 C6 4.29 6 8.58 6 13 C6.66 13 7.32 13 8 13 C8 12.34 8 11.68 8 11 C11.20173254 9.39913373 14.52577059 9.50082911 18 10 C20.8100346 11.79363911 22.50940468 13.01880935 24 16 C24.08400529 17.59447464 24.10727467 19.19240545 24.09765625 20.7890625 C24.09443359 21.73007812 24.09121094 22.67109375 24.08789062 23.640625 C24.07951172 24.62546875 24.07113281 25.6103125 24.0625 26.625 C24.05798828 27.61757813 24.05347656 28.61015625 24.04882812 29.6328125 C24.03702145 32.0886016 24.020554 34.54427104 24 37 C22.02 37 20.04 37 18 37 C17.97494385 36.39937744 17.9498877 35.79875488 17.92407227 35.17993164 C17.8084472 32.47388563 17.68557064 29.76821717 17.5625 27.0625 C17.52318359 26.11697266 17.48386719 25.17144531 17.44335938 24.19726562 C17.40146484 23.29814453 17.35957031 22.39902344 17.31640625 21.47265625 C17.27974854 20.64000244 17.24309082 19.80734863 17.20532227 18.94946289 C17.20632897 16.99661142 17.20632897 16.99661142 16 16 C12.54178598 15.74996036 12.54178598 15.74996036 9 16 C6.6031335 18.3968665 6.71718867 19.07028314 6.5859375 22.3515625 C6.54726563 23.20234375 6.50859375 24.053125 6.46875 24.9296875 C6.4378125 25.81914062 6.406875 26.70859375 6.375 27.625 C6.31699219 28.97078125 6.31699219 28.97078125 6.2578125 30.34375 C6.16340643 32.5622927 6.07783252 34.78082403 6 37 C4.02 37 2.04 37 0 37 C0 24.79 0 12.58 0 0 Z " fill="#FBF1F2" transform="translate(546,327)"/>
<path d="M0 0 C3.25 1.75 3.25 1.75 5 4 C5 5.32 5 6.64 5 8 C3.02 8 1.04 8 -1 8 C-1.33 7.34 -1.66 6.68 -2 6 C-4.64 6 -7.28 6 -10 6 C-9.67 6.99 -9.34 7.98 -9 9 C-6.57072509 9.92222383 -6.57072509 9.92222383 -3.6875 10.5 C0.21582683 11.37551256 3.10516463 12.14565184 6 15 C6.54889399 19.32254018 6.77218328 21.69064574 4.5625 25.4375 C-0.37384006 28.44746345 -5.30115189 28.30140854 -10.875 27.3125 C-14.14626114 25.93857032 -15.39063612 25.1240593 -17 22 C-17 21.01 -17 20.02 -17 19 C-14.125 18.8125 -14.125 18.8125 -11 19 C-10.34 19.99 -9.68 20.98 -9 22 C-7.02252878 22.36297936 -7.02252878 22.36297936 -4.875 22.1875 C-3.59625 22.125625 -2.3175 22.06375 -1 22 C-1 20.68 -1 19.36 -1 18 C-1.90363281 17.75765625 -2.80726563 17.5153125 -3.73828125 17.265625 C-5.50751953 16.76289063 -5.50751953 16.76289063 -7.3125 16.25 C-8.48425781 15.92515625 -9.65601563 15.6003125 -10.86328125 15.265625 C-14.17889563 13.92781795 -15.37366894 13.14070455 -17 10 C-16.89285714 3.89285714 -16.89285714 3.89285714 -14.3125 1.3125 C-9.9032746 -1.19003333 -4.90610488 -0.60907987 0 0 Z " fill="#FAEFF0" transform="translate(534,337)"/>
<path d="M0 0 C1.98 0 3.96 0 6 0 C6.01981934 0.59538574 6.03963867 1.19077148 6.06005859 1.80419922 C6.15516126 4.49492153 6.26489842 7.18485148 6.375 9.875 C6.4059375 10.81214844 6.436875 11.74929688 6.46875 12.71484375 C6.50742187 13.61074219 6.54609375 14.50664062 6.5859375 15.4296875 C6.6173584 16.25710449 6.6487793 17.08452148 6.68115234 17.93701172 C6.82599137 20.21986085 6.82599137 20.21986085 9 22 C12 22.41666667 12 22.41666667 15 22 C17.05127844 18.92308234 17.27260872 18.06355001 17.4140625 14.55078125 C17.45273437 13.70322266 17.49140625 12.85566406 17.53125 11.98242188 C17.5621875 11.10134766 17.593125 10.22027344 17.625 9.3125 C17.66367187 8.41982422 17.70234375 7.52714844 17.7421875 6.60742188 C17.83640218 4.4051538 17.92201588 2.20289278 18 0 C19.98 0 21.96 0 24 0 C24 8.91 24 17.82 24 27 C22.02 27 20.04 27 18 27 C18 26.34 18 25.68 18 25 C17.13375 25.495 16.2675 25.99 15.375 26.5 C11.76415174 28.10482145 9.88289028 28.66091749 6 28 C3.1875 25.5625 3.1875 25.5625 1 23 C0.67 22.67 0.34 22.34 0 22 C-0.08700342 20.36527118 -0.10701063 18.72685945 -0.09765625 17.08984375 C-0.09443359 16.10048828 -0.09121094 15.11113281 -0.08789062 14.09179688 C-0.07951172 13.05087891 -0.07113281 12.00996094 -0.0625 10.9375 C-0.05798828 9.89271484 -0.05347656 8.84792969 -0.04882812 7.77148438 C-0.03699913 5.1809334 -0.02051689 2.59049441 0 0 Z " fill="#FAEDEE" transform="translate(428,337)"/>
<path d="M0 0 C3.125 1.1875 3.125 1.1875 5 3 C5.8125 5.6875 5.8125 5.6875 6 8 C3.1875 8.1875 3.1875 8.1875 0 8 C-0.495 7.484375 -0.99 6.96875 -1.5 6.4375 C-1.995 5.963125 -2.49 5.48875 -3 5 C-6.14921909 5.23283149 -6.14921909 5.23283149 -9 6 C-9.33 6.99 -9.66 7.98 -10 9 C-9.18015625 9.19335938 -8.3603125 9.38671875 -7.515625 9.5859375 C-6.43796875 9.84632813 -5.3603125 10.10671875 -4.25 10.375 C-3.18265625 10.63023437 -2.1153125 10.88546875 -1.015625 11.1484375 C1.57777581 11.88077089 3.70947952 12.59785896 6 14 C7.56430248 17.12860495 7.35627284 19.55602925 7 23 C3.32824265 26.77099404 -0.12459026 28.14203687 -5.3125 28.375 C-8.78340185 28.34097155 -10.8063202 27.88932051 -13.5625 25.75 C-16 23 -16 23 -16 19 C-13.125 18.8125 -13.125 18.8125 -10 19 C-9.34 19.99 -8.68 20.98 -8 22 C-5.79274927 22.36362818 -5.79274927 22.36362818 -3.375 22.1875 C-2.55773437 22.16042969 -1.74046875 22.13335937 -0.8984375 22.10546875 C0.04128906 22.05326172 0.04128906 22.05326172 1 22 C0.99951164 20.02929583 0.99951164 20.02929583 0 18 C-2.90710069 16.77299597 -2.90710069 16.77299597 -6.375 16 C-12.5228522 14.47326065 -12.5228522 14.47326065 -14.91796875 12.09765625 C-16.62091393 8.79627877 -15.95386946 6.49752135 -15 3 C-10.67676339 -1.25445785 -5.69500595 -0.61590435 0 0 Z " fill="#FAF1F1" transform="translate(642,337)"/>
<path d="M0 0 C2.97 0.495 2.97 0.495 6 1 C6.66 6.28 7.32 11.56 8 17 C12.59882589 18.45625342 12.59882589 18.45625342 14.94458008 17.01196289 C15.54681396 16.5039917 16.14904785 15.99602051 16.76953125 15.47265625 C17.43017578 14.92802734 18.09082031 14.38339844 18.77148438 13.82226562 C19.78178711 12.95118164 19.78178711 12.95118164 20.8125 12.0625 C21.50537109 11.48564453 22.19824219 10.90878906 22.91210938 10.31445312 C24.61984577 8.88937655 26.3146101 7.45136963 28 6 C28 9.24792684 27.3492671 11.07658794 26 14 C25.34 14.66 24.68 15.32 24 16 C24.33 16.33 24.66 16.66 25 17 C25.66 16.34 26.32 15.68 27 15 C27 19 27 19 25.79418945 20.46386719 C25.23948975 20.90375977 24.68479004 21.34365234 24.11328125 21.796875 C23.1996582 22.52197266 23.1996582 22.52197266 22.26757812 23.26171875 C21.62240234 23.75285156 20.97722656 24.24398438 20.3125 24.75 C19.68666016 25.25660156 19.06082031 25.76320313 18.41601562 26.28515625 C13.74054448 29.91782598 13.74054448 29.91782598 10.04296875 30.328125 C9.36878906 30.21984375 8.69460938 30.1115625 8 30 C5.66462274 26.28069547 5.54618692 22.44819169 5.1875 18.1875 C4.54488428 11.71995402 3.2403247 7.92794492 -1 3 C-0.67 2.01 -0.34 1.02 0 0 Z " fill="#CF1534" transform="translate(266,251)"/>
<path d="M0 0 C1.0209375 0.01546875 1.0209375 0.01546875 2.0625 0.03125 C2.743125 0.0209375 3.42375 0.010625 4.125 0 C6.0625 0.53125 6.0625 0.53125 7.78515625 2.25 C9.99014304 6.18795806 9.71013813 10.15059657 9.0625 14.53125 C7.4375 17.15625 7.4375 17.15625 5.0625 18.53125 C1.52906253 19.12015625 -0.20845134 18.95333081 -3.3125 17.15625 C-5.76994866 13.18652525 -5.74721291 9.08314962 -4.9375 4.53125 C-3.53567918 2.02769233 -2.806322 0.76947539 0 0 Z " fill="#CE1231" transform="translate(469.9375,341.46875)"/>
<path d="M0 0 C0.7425 0.0825 1.485 0.165 2.25 0.25 C2.25 1.9 2.25 3.55 2.25 5.25 C0.5484375 5.930625 0.5484375 5.930625 -1.1875 6.625 C-4.79721692 7.82095806 -4.79721692 7.82095806 -5.75 10.25 C-5.98274209 13.12910588 -6.16972757 15.99146495 -6.3125 18.875 C-6.37727539 20.07769531 -6.37727539 20.07769531 -6.44335938 21.3046875 C-6.54951457 23.2862511 -6.65026855 25.26810271 -6.75 27.25 C-8.73 27.25 -10.71 27.25 -12.75 27.25 C-12.75 18.67 -12.75 10.09 -12.75 1.25 C-11.1 1.25 -9.45 1.25 -7.75 1.25 C-7.42 2.24 -7.09 3.23 -6.75 4.25 C-6.193125 3.59 -5.63625 2.93 -5.0625 2.25 C-2.75 0.25 -2.75 0.25 0 0 Z " fill="#FBF5F5" transform="translate(619.75,336.75)"/>
<path d="M0 0 C1.65 0 3.3 0 5 0 C5 11.88 5 23.76 5 36 C3.35 36 1.7 36 0 36 C0 24.12 0 12.24 0 0 Z " fill="#FEFEFE" transform="translate(492,328)"/>
<path d="M0 0 C2.10353495 -0.0810206 4.20795952 -0.13919907 6.3125 -0.1875 C7.48425781 -0.22230469 8.65601563 -0.25710938 9.86328125 -0.29296875 C13 0 13 0 14.88671875 1.359375 C16 3 16 3 16.5 5.4375 C16 8 16 8 14.1875 10.3125 C9.38894728 12.85291026 5.38876469 12.2596995 0 12 C0 8.04 0 4.08 0 0 Z " fill="#CE1331" transform="translate(401,333)"/>
<path d="M0 0 C1.98 0 3.96 0 6 0 C6 8.91 6 17.82 6 27 C4.02 27 2.04 27 0 27 C0 18.09 0 9.18 0 0 Z " fill="#FBF1F2" transform="translate(505,337)"/>
<path d="M0 0 C0.12375 0.639375 0.2475 1.27875 0.375 1.9375 C0.58125 2.618125 0.7875 3.29875 1 4 C1.66 4.33 2.32 4.66 3 5 C2.34 5 1.68 5 1 5 C1 5.66 1 6.32 1 7 C1.66 7 2.32 7 3 7 C3 8.98 3 10.96 3 13 C1.02 13.99 1.02 13.99 -1 15 C-1.93423645 11.98968256 -2.04449911 11.13349732 -1 8 C-5.41522109 9.26974972 -5.41522109 9.26974972 -9 12 C-12.375 12.4375 -12.375 12.4375 -16 12 C-18.4375 9.6875 -18.4375 9.6875 -20 7 C-20 6.01 -20 5.02 -20 4 C-13.4 4 -6.8 4 0 4 C0 2.68 0 1.36 0 0 Z " fill="#CF1333" transform="translate(601,348)"/>
<path d="M0 0 C0.99 0.33 1.98 0.66 3 1 C3 1.66 3 2.32 3 3 C5.64 3 8.28 3 11 3 C11.33 2.34 11.66 1.68 12 1 C15.3 1.66 18.6 2.32 22 3 C22.33 4.65 22.66 6.3 23 8 C22 9 22 9 20.15234375 9.09765625 C18.1015625 9.06510417 16.05078125 9.03255208 14 9 C13.34 7.68 12.68 6.36 12 5 C10.02 5 8.04 5 6 5 C6.474375 5.94875 6.94875 6.8975 7.4375 7.875 C8.29166667 9.58333333 9.14583333 11.29166667 10 13 C9.01 13 8.02 13 7 13 C7 12.34 7 11.68 7 11 C4.50935112 10.31292445 2.62113708 10 0 10 C0 6.7 0 3.4 0 0 Z " fill="#CE1331" transform="translate(511,351)"/>
<path d="M0 0 C2.97 0 5.94 0 9 0 C9 4.62 9 9.24 9 14 C6.03 14 3.06 14 0 14 C0 9.38 0 4.76 0 0 Z " fill="#FCF9F9" transform="translate(779,198)"/>
<path d="M0 0 C0.33 0 0.66 0 1 0 C1.33 9.9 1.66 19.8 2 30 C2.99 29.01 3.98 28.02 5 27 C8 28 8 28 9 30 C10.05609899 33.16829698 10.13055309 33.98519175 9 37 C7.5625 38.75 7.5625 38.75 6 40 C5.34 40 4.68 40 4 40 C3.34 38.35 2.68 36.7 2 35 C2.495 34.505 2.495 34.505 3 34 C2.01 33.34 1.02 32.68 0 32 C-0.26727014 29.51659097 -0.34866334 27.28527932 -0.29296875 24.8046875 C-0.28872391 24.09724396 -0.28447906 23.38980042 -0.28010559 22.66091919 C-0.26329547 20.39856095 -0.22564128 18.13708952 -0.1875 15.875 C-0.17245607 14.34246077 -0.15876716 12.8099076 -0.14648438 11.27734375 C-0.11338462 7.51788682 -0.06158825 3.75909382 0 0 Z " fill="#D42F4B" transform="translate(209,240)"/>
<path d="M0 0 C0.33 0.99 0.66 1.98 1 3 C2.98 3 4.96 3 7 3 C7.33 2.34 7.66 1.68 8 1 C8 1.99 8 2.98 8 4 C7.34 4 6.68 4 6 4 C6.33 5.32 6.66 6.64 7 8 C5 9 5 9 2.25 8.2578125 C1.1775 7.88398438 0.105 7.51015625 -1 7.125 C-2.0725 6.75632812 -3.145 6.38765625 -4.25 6.0078125 C-7 5 -7 5 -9 4 C-8.625 2.0625 -8.625 2.0625 -8 0 C-5.13822943 -1.43088528 -3.06624227 -0.59991697 0 0 Z " fill="#D22844" transform="translate(641,342)"/>
<path d="M0 0 C1.86323318 0.25288812 3.71708432 0.57690153 5.5625 0.9375 C6.57441406 1.13214844 7.58632813 1.32679688 8.62890625 1.52734375 C9.80259766 1.76130859 9.80259766 1.76130859 11 2 C11.33 3.65 11.66 5.3 12 7 C9.04335481 8.4783226 6.25770263 8.06032783 3 8 C2.34 6.68 1.68 5.36 1 4 C-0.98 4 -2.96 4 -5 4 C-5.33 4.66 -5.66 5.32 -6 6 C-6 5.01 -6 4.02 -6 3 C-5.195625 2.690625 -4.39125 2.38125 -3.5625 2.0625 C-1.10919595 1.23664655 -1.10919595 1.23664655 0 0 Z " fill="#D11A39" transform="translate(631,352)"/>
<path d="M0 0 C2.64 0 5.28 0 8 0 C8.33 0.99 8.66 1.98 9 3 C10.98 3 12.96 3 15 3 C15.33 2.34 15.66 1.68 16 1 C15.25 6.75 15.25 6.75 13 9 C8.52761347 7.58192622 4.28853694 5.88695626 0 4 C0 2.68 0 1.36 0 0 Z " fill="#D0223F" transform="translate(524,342)"/>
<path d="M0 0 C2.97 0.495 2.97 0.495 6 1 C6.33559955 3.60389297 6.66856858 6.2080761 7 8.8125 C7.09539062 9.55048828 7.19078125 10.28847656 7.2890625 11.04882812 C7.9621028 16.36103903 7.93573379 20.73649745 7 26 C6.67 26 6.34 26 6 26 C5.91363281 24.92621094 5.82726562 23.85242188 5.73828125 22.74609375 C4.98286924 14.72630867 4.4012116 9.27708375 -1 3 C-0.67 2.01 -0.34 1.02 0 0 Z " fill="#D01938" transform="translate(266,251)"/>
<path d="M0 0 C3.1875 1.5 3.1875 1.5 5 3 C1.71536341 5.18975773 -1.20696275 5.99806563 -5 7 C-5.556875 6.0409375 -5.556875 6.0409375 -6.125 5.0625 C-8.58052793 2.36141928 -10.44578805 2.31592995 -14 2 C-9.55299615 -0.96466923 -5.21871437 -0.52568072 0 0 Z " fill="#D01837" transform="translate(262,288)"/>
<path d="M0 0 C3.5625 0.375 3.5625 0.375 5.5 2.25 C6.5625 4.375 6.5625 4.375 6.5625 6.375 C2.2725 6.375 -2.0175 6.375 -6.4375 6.375 C-4.97955607 0.5432243 -4.97955607 0.5432243 0 0 Z " fill="#CF1433" transform="translate(588.4375,341.625)"/>
<path d="M0 0 C0.66 0.66 1.32 1.32 2 2 C2.99 1.34 3.98 0.68 5 0 C6 3 6 3 5 6 C5.66 6.33 6.32 6.66 7 7 C4.03 9.475 4.03 9.475 1 12 C-0.52299523 9.06279492 -1.80100302 6.0831351 -3 3 C-2.01 2.01 -1.02 1.02 0 0 Z " fill="#D01B38" transform="translate(218,263)"/>
<path d="M0 0 C0.99 0.495 0.99 0.495 2 1 C2 1.99 2 2.98 2 4 C2.99 4 3.98 4 5 4 C5 6.31 5 8.62 5 11 C5.99 10.67 6.98 10.34 8 10 C10.475 13.465 10.475 13.465 13 17 C12.34 17.99 11.68 18.98 11 20 C5.70302216 14.67326386 0 7.95842746 0 0 Z " fill="#D11939" transform="translate(593,270)"/>
<path d="M0 0 C6.6 0 13.2 0 20 0 C20 0.33 20 0.66 20 1 C14.06 1.495 14.06 1.495 8 2 C7.34 3.98 6.68 5.96 6 8 C2.83884224 6.63016497 2.0072908 6.0109362 0 3 C0 2.01 0 1.02 0 0 Z " fill="#D73C55" transform="translate(581,352)"/>
<path d="M0 0 C1.175625 0.5259375 1.175625 0.5259375 2.375 1.0625 C3.674375 1.5265625 3.674375 1.5265625 5 2 C5.66 1.67 6.32 1.34 7 1 C7 3.31 7 5.62 7 8 C6.34 8 5.68 8 5 8 C5 8.99 5 9.98 5 11 C5.66 11 6.32 11 7 11 C7 12.98 7 14.96 7 17 C5.68 17 4.36 17 3 17 C2.95101563 16.10796875 2.90203125 15.2159375 2.8515625 14.296875 C2.77679688 13.12640625 2.70203125 11.9559375 2.625 10.75 C2.55539062 9.58984375 2.48578125 8.4296875 2.4140625 7.234375 C2.03751692 4.29305666 1.5225877 2.50050989 0 0 Z " fill="#CE1231" transform="translate(482,340)"/>
<path d="M0 0 C0.763125 0.0825 1.52625 0.165 2.3125 0.25 C1.3225 0.745 1.3225 0.745 0.3125 1.25 C0.6425 2.9 0.9725 4.55 1.3125 6.25 C-0.0075 6.58 -1.3275 6.91 -2.6875 7.25 C-3.6775 10.715 -3.6775 10.715 -4.6875 14.25 C-5.0175 14.25 -5.3475 14.25 -5.6875 14.25 C-5.76903933 12.66753293 -5.82693557 11.08383727 -5.875 9.5 C-5.90980469 8.61828125 -5.94460938 7.7365625 -5.98046875 6.828125 C-5.51804293 2.75877775 -4.19874253 0.3905807 0 0 Z " fill="#D21E3C" transform="translate(470.6875,341.75)"/>
<path d="M0 0 C2.375 0.1875 2.375 0.1875 5 1 C6.3125 3.5625 6.3125 3.5625 7 6 C9.31 6.33 11.62 6.66 14 7 C14 7.33 14 7.66 14 8 C8.06 8.495 8.06 8.495 2 9 C2.33 8.01 2.66 7.02 3 6 C1.68 5.34 0.36 4.68 -1 4 C-0.67 2.68 -0.34 1.36 0 0 Z " fill="#D01C3A" transform="translate(484,357)"/>
<path d="M0 0 C0.33 0 0.66 0 1 0 C1 3.63 1 7.26 1 11 C-0.65 11.66 -2.3 12.32 -4 13 C-5.98 10.69 -7.96 8.38 -10 6 C-8.88625 6.2475 -8.88625 6.2475 -7.75 6.5 C-4.80993422 7.11925696 -4.80993422 7.11925696 -1 7 C-0.67 4.69 -0.34 2.38 0 0 Z " fill="#D4304C" transform="translate(339,252)"/>
<path d="M0 0 C0.66 0.99 1.32 1.98 2 3 C1.67 3.66 1.34 4.32 1 5 C1.66 5 2.32 5 3 5 C2.34 6.65 1.68 8.3 1 10 C-0.32 9.67 -1.64 9.34 -3 9 C-3.33 10.65 -3.66 12.3 -4 14 C-5.06528748 11.26980214 -5.07998186 10.20701188 -4.00390625 7.421875 C-3.52824219 6.54015625 -3.05257813 5.6584375 -2.5625 4.75 C-2.08941406 3.85796875 -1.61632812 2.9659375 -1.12890625 2.046875 C-0.75636719 1.37140625 -0.38382812 0.6959375 0 0 Z " fill="#D11E3C" transform="translate(405,238)"/>
<path d="M0 0 C1.51400391 0.01740234 1.51400391 0.01740234 3.05859375 0.03515625 C4.07050781 0.04417969 5.08242188 0.05320312 6.125 0.0625 C7.29869141 0.07990234 7.29869141 0.07990234 8.49609375 0.09765625 C8.49609375 0.75765625 8.49609375 1.41765625 8.49609375 2.09765625 C6.18609375 1.76765625 3.87609375 1.43765625 1.49609375 1.09765625 C1.24859375 1.90203125 1.00109375 2.70640625 0.74609375 3.53515625 C-0.50390625 6.09765625 -0.50390625 6.09765625 -2.62890625 6.91015625 C-3.24765625 6.97203125 -3.86640625 7.03390625 -4.50390625 7.09765625 C-3.46694712 0.13521635 -3.46694712 0.13521635 0 0 Z " fill="#CE0D2C" transform="translate(591.50390625,352.90234375)"/>
<path d="M0 0 C-0.33 1.32 -0.66 2.64 -1 4 C-2.60320974 4.19551338 -4.20762986 4.38111983 -5.8125 4.5625 C-6.70582031 4.66691406 -7.59914063 4.77132813 -8.51953125 4.87890625 C-11 5 -11 5 -14 4 C-9.02495953 0.75099398 -6.11774896 -0.49940808 0 0 Z " fill="#D21D3C" transform="translate(880,266)"/>
<path d="M0 0 C0.70125 0.268125 1.4025 0.53625 2.125 0.8125 C-0.00280579 3.15308637 -1.99062221 4.51950306 -4.875 5.8125 C-5.205 5.4825 -5.535 5.1525 -5.875 4.8125 C-6.143125 5.451875 -6.41125 6.09125 -6.6875 6.75 C-7.875 8.8125 -7.875 8.8125 -10.875 9.8125 C-9.37774763 4.5721167 -5.94370609 -0.38763301 0 0 Z " fill="#D11F3D" transform="translate(458.875,233.1875)"/>
<path d="M0 0 C2.31 0 4.62 0 7 0 C7.33 1.65 7.66 3.3 8 5 C5.03 4.67 2.06 4.34 -1 4 C-0.67 2.68 -0.34 1.36 0 0 Z " fill="#CE1231" transform="translate(635,354)"/>
<path d="M0 0 C1.98 0 3.96 0 6 0 C6 1.98 6 3.96 6 6 C4.02 6 2.04 6 0 6 C0 4.02 0 2.04 0 0 Z " fill="#F8E8E8" transform="translate(505,327)"/>
<path d="M0 0 C1.32 1.32 2.64 2.64 4 4 C3.67 4.66 3.34 5.32 3 6 C1.68 5.67 0.36 5.34 -1 5 C-1 6.32 -1 7.64 -1 9 C-2.32 8.67 -3.64 8.34 -5 8 C-5 6.68 -5 5.36 -5 4 C-4.34 4 -3.68 4 -3 4 C-2.67 3.34 -2.34 2.68 -2 2 C-1.34 1.34 -0.68 0.68 0 0 Z " fill="#D11A39" transform="translate(267,246)"/>
<path d="M0 0 C0.33 0.99 0.66 1.98 1 3 C1.99 3 2.98 3 4 3 C4.33 3.99 4.66 4.98 5 6 C3.02 6.99 1.04 7.98 -1 9 C-2.4606285 6.35261084 -3 5.10551666 -3 2 C-2.01 1.34 -1.02 0.68 0 0 Z " fill="#CE1635" transform="translate(302,208)"/>
<path d="M0 0 C0.33 0 0.66 0 1 0 C1 1.98 1 3.96 1 6 C0.01 6 -0.98 6 -2 6 C-3.67845419 7.53353564 -3.67845419 7.53353564 -5.1875 9.5 C-5.71730469 10.1496875 -6.24710938 10.799375 -6.79296875 11.46875 C-7.19128906 11.9740625 -7.58960938 12.479375 -8 13 C-8.66 12.01 -9.32 11.02 -10 10 C-9.52949219 9.61328125 -9.05898438 9.2265625 -8.57421875 8.828125 C-5.29517771 6.08540745 -2.44977889 3.53856951 0 0 Z " fill="#D11D3C" transform="translate(558,287)"/>
<path d="M0 0 C2.33944736 0.28730055 4.6739143 0.61936779 7 1 C6.67 2.32 6.34 3.64 6 5 C4.35 5 2.7 5 1 5 C0.34 3.68 -0.32 2.36 -1 1 C-0.67 0.67 -0.34 0.34 0 0 Z " fill="#CE1735" transform="translate(524,342)"/>
<path d="M0 0 C0.66 0.33 1.32 0.66 2 1 C1.34 1.66 0.68 2.32 0 3 C-0.66 2.67 -1.32 2.34 -2 2 C-2.2475 2.804375 -2.495 3.60875 -2.75 4.4375 C-4 7 -4 7 -6 7.9375 C-6.99 7.9684375 -6.99 7.9684375 -8 8 C-8.66 7.34 -9.32 6.68 -10 6 C-8.89932004 5.18278283 -7.79430269 4.37140549 -6.6875 3.5625 C-6.07261719 3.11003906 -5.45773437 2.65757812 -4.82421875 2.19140625 C-3 1 -3 1 0 0 Z " fill="#CF1A38" transform="translate(311,246)"/>
<path d="M0 0 C1.32 0.33 2.64 0.66 4 1 C3.52949219 1.39832031 3.05898438 1.79664063 2.57421875 2.20703125 C1.64029297 3.00173828 1.64029297 3.00173828 0.6875 3.8125 C0.07261719 4.33457031 -0.54226563 4.85664063 -1.17578125 5.39453125 C-2.85424679 6.87172469 -4.43882034 8.40039131 -6 10 C-6.1875 7.125 -6.1875 7.125 -6 4 C-5.01 3.34 -4.02 2.68 -3 2 C-2.34 2.33 -1.68 2.66 -1 3 C-0.67 2.01 -0.34 1.02 0 0 Z " fill="#D01839" transform="translate(405,227)"/>
<path d="M0 0 C0.99 1.485 0.99 1.485 2 3 C3.96361864 3.57748803 3.96361864 3.57748803 6.125 3.6875 C7.40375 3.790625 8.6825 3.89375 10 4 C9.67 4.99 9.34 5.98 9 7 C7.02 7.33 5.04 7.66 3 8 C3 7.34 3 6.68 3 6 C2.01 6 1.02 6 0 6 C0 4.02 0 2.04 0 0 Z " fill="#D32341" transform="translate(637,245)"/>
<path d="M0 0 C0 0.66 0 1.32 0 2 C-3.3 2.66 -6.6 3.32 -10 4 C-9 1 -9 1 -6.6875 -0.25 C-3.90126985 -1.0275526 -2.66561622 -0.98726527 0 0 Z " fill="#D1233F" transform="translate(535,233)"/>
<path d="M0 0 C3.11855294 0.77963823 5.32638802 1.3405167 8 3 C8.33 3.99 8.66 4.98 9 6 C8.01 6.99 7.02 7.98 6 9 C4.02 6.03 2.04 3.06 0 0 Z " fill="#D11738" transform="translate(438,228)"/>
<path d="M0 0 C0.33 0 0.66 0 1 0 C1.16820551 1.93736701 1.33451095 3.87489906 1.5 5.8125 C1.5928125 6.89144531 1.685625 7.97039062 1.78125 9.08203125 C2.09405528 13.2546303 1.73078689 16.88932376 1 21 C0.67 21 0.34 21 0 21 C-0.71148265 13.81949816 -1.25818438 7.12971149 0 0 Z " fill="#DF6C80" transform="translate(272,256)"/>
<path d="M0 0 C0 5.28 0 10.56 0 16 C-0.33 16 -0.66 16 -1 16 C-1.33 11.71 -1.66 7.42 -2 3 C-2.99 3.495 -2.99 3.495 -4 4 C-6.125 3.0625 -6.125 3.0625 -8 2 C-1.125 0 -1.125 0 0 0 Z " fill="#D63452" transform="translate(558,260)"/>
<path d="M0 0 C2.64 0.33 5.28 0.66 8 1 C7.67 1.99 7.34 2.98 7 4 C7 3.34 7 2.68 7 2 C2.58477891 3.26974972 2.58477891 3.26974972 -1 6 C-1.99 6 -2.98 6 -4 6 C-2.89131683 3.78263366 -1.50559539 1.96382007 0 0 Z " fill="#D32B48" transform="translate(593,354)"/>
<path d="M0 0 C0.66 1.32 1.32 2.64 2 4 C2.66 4 3.32 4 4 4 C4 5.98 4 7.96 4 10 C2.68 10 1.36 10 0 10 C0 6.7 0 3.4 0 0 Z " fill="#D5354F" transform="translate(485,347)"/>
<path d="M0 0 C0.66 0.33 1.32 0.66 2 1 C2.625 3.0625 2.625 3.0625 3 5 C1.02 5.33 -0.96 5.66 -3 6 C-2.625 3.5625 -2.625 3.5625 -2 1 C-1.34 0.67 -0.68 0.34 0 0 Z " fill="#D01836" transform="translate(608,233)"/>
<path d="M0 0 C0.99 0.33 1.98 0.66 3 1 C2.67 2.32 2.34 3.64 2 5 C-0.31 4.67 -2.62 4.34 -5 4 C-5.33 4.66 -5.66 5.32 -6 6 C-6 5.01 -6 4.02 -6 3 C-5.195625 2.690625 -4.39125 2.38125 -3.5625 2.0625 C-1.10919595 1.23664655 -1.10919595 1.23664655 0 0 Z " fill="#D4334D" transform="translate(631,352)"/>
<path d="M0 0 C0.33 0 0.66 0 1 0 C1.1875 2.875 1.1875 2.875 1 6 C0.01 6.66 -0.98 7.32 -2 8 C-2.66 7.01 -3.32 6.02 -4 5 C-2.69254251 3.31295807 -1.35827971 1.64639965 0 0 Z " fill="#D01F3D" transform="translate(904,287)"/>
<path d="M0 0 C0.66 0 1.32 0 2 0 C1.67 1.98 1.34 3.96 1 6 C-1.31 5.67 -3.62 5.34 -6 5 C-5.195625 4.360625 -4.39125 3.72125 -3.5625 3.0625 C-1.7249496 1.59396498 -1.7249496 1.59396498 0 0 Z " fill="#D21F3E" transform="translate(539,360)"/>
<path d="M0 0 C1.65 0.33 3.3 0.66 5 1 C3.875 3.5 3.875 3.5 2 6 C-1.1875 6.3125 -1.1875 6.3125 -4 6 C-2.68 5.67 -1.36 5.34 0 5 C0 3.35 0 1.7 0 0 Z " fill="#D9405B" transform="translate(622,337)"/>
<path d="M0 0 C0.598125 0.20625 1.19625 0.4125 1.8125 0.625 C1.4825 1.945 1.1525 3.265 0.8125 4.625 C-0.5075 4.625 -1.8275 4.625 -3.1875 4.625 C-3.1875 3.965 -3.1875 3.305 -3.1875 2.625 C-3.8475 2.295 -4.5075 1.965 -5.1875 1.625 C-2.1875 -0.375 -2.1875 -0.375 0 0 Z " fill="#CF1A38" transform="translate(638.1875,295.375)"/>
<path d="M0 0 C0 3.57575896 -1.08840607 5.05295935 -3 8 C-3.33 7.34 -3.66 6.68 -4 6 C-4.66 5.67 -5.32 5.34 -6 5 C-4.02 3.35 -2.04 1.7 0 0 Z " fill="#D01C3B" transform="translate(230,253)"/>
<path d="M0 0 C1.0326802 2.78823655 1.04509293 3.8677274 0.0625 6.75 C-0.288125 7.4925 -0.63875 8.235 -1 9 C-1.99 8.67 -2.98 8.34 -4 8 C-2.87548273 5.0280615 -1.77706209 2.66559313 0 0 Z " fill="#D32542" transform="translate(676,237)"/>
<path d="M0 0 C0.33 1.32 0.66 2.64 1 4 C-0.75 4.6875 -0.75 4.6875 -3 5 C-5.25 3.5625 -5.25 3.5625 -7 2 C-2.25 0 -2.25 0 0 0 Z " fill="#D01F3C" transform="translate(687,232)"/>
<path d="M0 0 C6.70212766 1.93617021 6.70212766 1.93617021 9 5 C9 5.66 9 6.32 9 7 C5.18315774 5.44499019 2.80804268 2.96404505 0 0 Z " fill="#D42141" transform="translate(471,232)"/>
<path d="M0 0 C3.63 0 7.26 0 11 0 C11 0.33 11 0.66 11 1 C8.03 1 5.06 1 2 1 C1.67 2.32 1.34 3.64 1 5 C0.34 5 -0.32 5 -1 5 C-0.67 3.35 -0.34 1.7 0 0 Z " fill="#D01336" transform="translate(658,225)"/>
<path d="M0 0 C1.32 0.33 2.64 0.66 4 1 C4 2.32 4 3.64 4 5 C4.66 5.66 5.32 6.32 6 7 C3.36 6.67 0.72 6.34 -2 6 C-1.01 5.34 -0.02 4.68 1 4 C1.33 3.01 1.66 2.02 2 1 C1.34 0.67 0.68 0.34 0 0 Z " fill="#D5324E" transform="translate(529,342)"/>
<path d="M0 0 C4.44936709 -0.36075949 4.44936709 -0.36075949 6.8125 1.1875 C8.36678206 3.55982525 8.22537188 5.22041345 8 8 C5.33333333 5.33333333 2.66666667 2.66666667 0 0 Z " fill="#D52D4B" transform="translate(409,333)"/>
<path d="M0 0 C1.32 0.66 2.64 1.32 4 2 C3 5 3 5 0.9375 6.1875 C0.298125 6.455625 -0.34125 6.72375 -1 7 C-1 4.37886292 -0.68707555 2.49064888 0 0 Z " fill="#D01535" transform="translate(596,225)"/>
<path d="M0 0 C-0.33 0.66 -0.66 1.32 -1 2 C-3.64 2 -6.28 2 -9 2 C-9.33 1.34 -9.66 0.68 -10 0 C-6.7169902 -1.6415049 -3.57454967 -0.51888624 0 0 Z " fill="#D1223F" transform="translate(534,358)"/>
<path d="M0 0 C0.99 0.33 1.98 0.66 3 1 C2.34 2.65 1.68 4.3 1 6 C0.67 5.34 0.34 4.68 0 4 C-1.98 4 -3.96 4 -6 4 C-6 3.67 -6 3.34 -6 3 C-5.195625 2.87625 -4.39125 2.7525 -3.5625 2.625 C-2.716875 2.41875 -1.87125 2.2125 -1 2 C-0.67 1.34 -0.34 0.68 0 0 Z " fill="#D5324E" transform="translate(523,352)"/>
<path d="M0 0 C1.98 0.66 3.96 1.32 6 2 C6 2.99 6 3.98 6 5 C3 5 3 5 1.3125 3.625 C0 2 0 2 0 0 Z " fill="#D01E3C" transform="translate(425,232)"/>
<path d="M0 0 C3.96 0.33 7.92 0.66 12 1 C12 1.33 12 1.66 12 2 C6.06 2.495 6.06 2.495 0 3 C0 2.01 0 1.02 0 0 Z " fill="#D52645" transform="translate(907,298)"/>
<path d="M0 0 C0.33 0 0.66 0 1 0 C1 2.31 1 4.62 1 7 C1.66 7 2.32 7 3 7 C2.34 8.65 1.68 10.3 1 12 C0.67 12 0.34 12 0 12 C0 8.04 0 4.08 0 0 Z " fill="#D32748" transform="translate(669,226)"/>
</svg>
